<mxfile host="app.diagrams.net" modified="2023-06-02T14:57:42.747Z" agent="Mozilla/5.0 (X11; Ubuntu; Linux x86_64; rv:109.0) Gecko/20100101 Firefox/113.0" etag="bMTlJbl1KiL6zt7lrsyG" version="21.3.5" type="github" pages="2">
  <diagram id="cez-rpx9PR17WSuJuLhv" name="GenÃ©rico">
    <mxGraphModel dx="-42" dy="763" grid="1" gridSize="10" guides="1" tooltips="1" connect="1" arrows="1" fold="1" page="1" pageScale="1" pageWidth="1169" pageHeight="827" math="0" shadow="0">
      <root>
        <mxCell id="0" />
        <mxCell id="1" parent="0" />
        <mxCell id="KSp4SFGzi_MSVjwqNxPU-1" value="Cycle" style="swimlane;fontStyle=1;align=center;verticalAlign=top;childLayout=stackLayout;horizontal=1;startSize=26;horizontalStack=0;resizeParent=1;resizeParentMax=0;resizeLast=0;collapsible=1;marginBottom=0;whiteSpace=wrap;html=1;" parent="1" vertex="1">
          <mxGeometry x="1927" y="650.5" width="160" height="154" as="geometry" />
        </mxCell>
        <mxCell id="KSp4SFGzi_MSVjwqNxPU-2" value="&lt;div&gt;+ Species:Species&lt;/div&gt;&lt;div&gt;+ Variety:varieties(species)&lt;/div&gt;&lt;div&gt;&lt;div&gt;+ producto:productos&lt;/div&gt;&lt;div&gt;+ uso: usos&lt;br&gt;&lt;/div&gt;&lt;div&gt;+ Starting:Date&lt;/div&gt;&lt;div&gt;+ offerDates&lt;br&gt;&lt;/div&gt;&lt;div&gt;&lt;br&gt;&lt;br&gt;&lt;/div&gt;&lt;div&gt;+ Variety&lt;/div&gt;&lt;div&gt;&lt;br&gt;&lt;br&gt;&lt;/div&gt;&lt;/div&gt;&lt;div&gt;&lt;br&gt;&lt;/div&gt;" style="text;strokeColor=none;fillColor=none;align=left;verticalAlign=top;spacingLeft=4;spacingRight=4;overflow=hidden;rotatable=0;points=[[0,0.5],[1,0.5]];portConstraint=eastwest;whiteSpace=wrap;html=1;" parent="KSp4SFGzi_MSVjwqNxPU-1" vertex="1">
          <mxGeometry y="26" width="160" height="94" as="geometry" />
        </mxCell>
        <mxCell id="KSp4SFGzi_MSVjwqNxPU-3" value="" style="line;strokeWidth=1;fillColor=none;align=left;verticalAlign=middle;spacingTop=-1;spacingLeft=3;spacingRight=3;rotatable=0;labelPosition=right;points=[];portConstraint=eastwest;strokeColor=inherit;" parent="KSp4SFGzi_MSVjwqNxPU-1" vertex="1">
          <mxGeometry y="120" width="160" height="8" as="geometry" />
        </mxCell>
        <mxCell id="KSp4SFGzi_MSVjwqNxPU-4" value="+ method(type): type" style="text;strokeColor=none;fillColor=none;align=left;verticalAlign=top;spacingLeft=4;spacingRight=4;overflow=hidden;rotatable=0;points=[[0,0.5],[1,0.5]];portConstraint=eastwest;whiteSpace=wrap;html=1;" parent="KSp4SFGzi_MSVjwqNxPU-1" vertex="1">
          <mxGeometry y="128" width="160" height="26" as="geometry" />
        </mxCell>
        <mxCell id="KSp4SFGzi_MSVjwqNxPU-66" value="UFData" style="swimlane;fontStyle=1;align=center;verticalAlign=top;childLayout=stackLayout;horizontal=1;startSize=26;horizontalStack=0;resizeParent=1;resizeParentMax=0;resizeLast=0;collapsible=1;marginBottom=0;whiteSpace=wrap;html=1;" parent="1" vertex="1">
          <mxGeometry x="1927" y="523.5" width="160" height="86" as="geometry" />
        </mxCell>
        <mxCell id="KSp4SFGzi_MSVjwqNxPU-67" value="+ field: type" style="text;strokeColor=none;fillColor=none;align=left;verticalAlign=top;spacingLeft=4;spacingRight=4;overflow=hidden;rotatable=0;points=[[0,0.5],[1,0.5]];portConstraint=eastwest;whiteSpace=wrap;html=1;" parent="KSp4SFGzi_MSVjwqNxPU-66" vertex="1">
          <mxGeometry y="26" width="160" height="26" as="geometry" />
        </mxCell>
        <mxCell id="KSp4SFGzi_MSVjwqNxPU-68" value="" style="line;strokeWidth=1;fillColor=none;align=left;verticalAlign=middle;spacingTop=-1;spacingLeft=3;spacingRight=3;rotatable=0;labelPosition=right;points=[];portConstraint=eastwest;strokeColor=inherit;" parent="KSp4SFGzi_MSVjwqNxPU-66" vertex="1">
          <mxGeometry y="52" width="160" height="8" as="geometry" />
        </mxCell>
        <mxCell id="KSp4SFGzi_MSVjwqNxPU-69" value="+ method(type): type" style="text;strokeColor=none;fillColor=none;align=left;verticalAlign=top;spacingLeft=4;spacingRight=4;overflow=hidden;rotatable=0;points=[[0,0.5],[1,0.5]];portConstraint=eastwest;whiteSpace=wrap;html=1;" parent="KSp4SFGzi_MSVjwqNxPU-66" vertex="1">
          <mxGeometry y="60" width="160" height="26" as="geometry" />
        </mxCell>
        <mxCell id="KSp4SFGzi_MSVjwqNxPU-70" value="UPData" style="swimlane;fontStyle=1;align=center;verticalAlign=top;childLayout=stackLayout;horizontal=1;startSize=26;horizontalStack=0;resizeParent=1;resizeParentMax=0;resizeLast=0;collapsible=1;marginBottom=0;whiteSpace=wrap;html=1;" parent="1" vertex="1">
          <mxGeometry x="1927" y="392.5" width="160" height="86" as="geometry" />
        </mxCell>
        <mxCell id="KSp4SFGzi_MSVjwqNxPU-71" value="+ field: type" style="text;strokeColor=none;fillColor=none;align=left;verticalAlign=top;spacingLeft=4;spacingRight=4;overflow=hidden;rotatable=0;points=[[0,0.5],[1,0.5]];portConstraint=eastwest;whiteSpace=wrap;html=1;" parent="KSp4SFGzi_MSVjwqNxPU-70" vertex="1">
          <mxGeometry y="26" width="160" height="26" as="geometry" />
        </mxCell>
        <mxCell id="KSp4SFGzi_MSVjwqNxPU-72" value="" style="line;strokeWidth=1;fillColor=none;align=left;verticalAlign=middle;spacingTop=-1;spacingLeft=3;spacingRight=3;rotatable=0;labelPosition=right;points=[];portConstraint=eastwest;strokeColor=inherit;" parent="KSp4SFGzi_MSVjwqNxPU-70" vertex="1">
          <mxGeometry y="52" width="160" height="8" as="geometry" />
        </mxCell>
        <mxCell id="KSp4SFGzi_MSVjwqNxPU-73" value="+ method(type): type" style="text;strokeColor=none;fillColor=none;align=left;verticalAlign=top;spacingLeft=4;spacingRight=4;overflow=hidden;rotatable=0;points=[[0,0.5],[1,0.5]];portConstraint=eastwest;whiteSpace=wrap;html=1;" parent="KSp4SFGzi_MSVjwqNxPU-70" vertex="1">
          <mxGeometry y="60" width="160" height="26" as="geometry" />
        </mxCell>
        <mxCell id="KSp4SFGzi_MSVjwqNxPU-74" value="User" style="swimlane;fontStyle=1;align=center;verticalAlign=top;childLayout=stackLayout;horizontal=1;startSize=26;horizontalStack=0;resizeParent=1;resizeParentMax=0;resizeLast=0;collapsible=1;marginBottom=0;whiteSpace=wrap;html=1;" parent="1" vertex="1">
          <mxGeometry x="1927" y="280" width="160" height="60" as="geometry" />
        </mxCell>
        <mxCell id="KSp4SFGzi_MSVjwqNxPU-75" value="+ phone: phone" style="text;strokeColor=none;fillColor=none;align=left;verticalAlign=top;spacingLeft=4;spacingRight=4;overflow=hidden;rotatable=0;points=[[0,0.5],[1,0.5]];portConstraint=eastwest;whiteSpace=wrap;html=1;" parent="KSp4SFGzi_MSVjwqNxPU-74" vertex="1">
          <mxGeometry y="26" width="160" height="26" as="geometry" />
        </mxCell>
        <mxCell id="KSp4SFGzi_MSVjwqNxPU-76" value="" style="line;strokeWidth=1;fillColor=none;align=left;verticalAlign=middle;spacingTop=-1;spacingLeft=3;spacingRight=3;rotatable=0;labelPosition=right;points=[];portConstraint=eastwest;strokeColor=inherit;" parent="KSp4SFGzi_MSVjwqNxPU-74" vertex="1">
          <mxGeometry y="52" width="160" height="8" as="geometry" />
        </mxCell>
        <mxCell id="KSp4SFGzi_MSVjwqNxPU-78" value="CoopData" style="swimlane;fontStyle=1;align=center;verticalAlign=top;childLayout=stackLayout;horizontal=1;startSize=26;horizontalStack=0;resizeParent=1;resizeParentMax=0;resizeLast=0;collapsible=1;marginBottom=0;whiteSpace=wrap;html=1;" parent="1" vertex="1">
          <mxGeometry x="1925.5" y="137" width="163" height="114" as="geometry" />
        </mxCell>
        <mxCell id="KSp4SFGzi_MSVjwqNxPU-79" value="&lt;div&gt;+ proveedoresExt: proveedor&lt;/div&gt;&lt;div&gt;+ economicmodel&lt;br&gt;&lt;/div&gt;" style="text;strokeColor=none;fillColor=none;align=left;verticalAlign=top;spacingLeft=4;spacingRight=4;overflow=hidden;rotatable=0;points=[[0,0.5],[1,0.5]];portConstraint=eastwest;whiteSpace=wrap;html=1;" parent="KSp4SFGzi_MSVjwqNxPU-78" vertex="1">
          <mxGeometry y="26" width="163" height="54" as="geometry" />
        </mxCell>
        <mxCell id="KSp4SFGzi_MSVjwqNxPU-80" value="" style="line;strokeWidth=1;fillColor=none;align=left;verticalAlign=middle;spacingTop=-1;spacingLeft=3;spacingRight=3;rotatable=0;labelPosition=right;points=[];portConstraint=eastwest;strokeColor=inherit;" parent="KSp4SFGzi_MSVjwqNxPU-78" vertex="1">
          <mxGeometry y="80" width="163" height="8" as="geometry" />
        </mxCell>
        <mxCell id="KSp4SFGzi_MSVjwqNxPU-81" value="+ method(type): type" style="text;strokeColor=none;fillColor=none;align=left;verticalAlign=top;spacingLeft=4;spacingRight=4;overflow=hidden;rotatable=0;points=[[0,0.5],[1,0.5]];portConstraint=eastwest;whiteSpace=wrap;html=1;" parent="KSp4SFGzi_MSVjwqNxPU-78" vertex="1">
          <mxGeometry y="88" width="163" height="26" as="geometry" />
        </mxCell>
        <mxCell id="KSp4SFGzi_MSVjwqNxPU-86" value="TodosData" style="swimlane;fontStyle=1;align=center;verticalAlign=top;childLayout=stackLayout;horizontal=1;startSize=26;horizontalStack=0;resizeParent=1;resizeParentMax=0;resizeLast=0;collapsible=1;marginBottom=0;whiteSpace=wrap;html=1;" parent="1" vertex="1">
          <mxGeometry x="1927" y="20" width="160" height="86" as="geometry" />
        </mxCell>
        <mxCell id="KSp4SFGzi_MSVjwqNxPU-87" value="+ clima: type" style="text;strokeColor=none;fillColor=none;align=left;verticalAlign=top;spacingLeft=4;spacingRight=4;overflow=hidden;rotatable=0;points=[[0,0.5],[1,0.5]];portConstraint=eastwest;whiteSpace=wrap;html=1;" parent="KSp4SFGzi_MSVjwqNxPU-86" vertex="1">
          <mxGeometry y="26" width="160" height="26" as="geometry" />
        </mxCell>
        <mxCell id="KSp4SFGzi_MSVjwqNxPU-88" value="" style="line;strokeWidth=1;fillColor=none;align=left;verticalAlign=middle;spacingTop=-1;spacingLeft=3;spacingRight=3;rotatable=0;labelPosition=right;points=[];portConstraint=eastwest;strokeColor=inherit;" parent="KSp4SFGzi_MSVjwqNxPU-86" vertex="1">
          <mxGeometry y="52" width="160" height="8" as="geometry" />
        </mxCell>
        <mxCell id="KSp4SFGzi_MSVjwqNxPU-89" value="+ method(type): type" style="text;strokeColor=none;fillColor=none;align=left;verticalAlign=top;spacingLeft=4;spacingRight=4;overflow=hidden;rotatable=0;points=[[0,0.5],[1,0.5]];portConstraint=eastwest;whiteSpace=wrap;html=1;" parent="KSp4SFGzi_MSVjwqNxPU-86" vertex="1">
          <mxGeometry y="60" width="160" height="26" as="geometry" />
        </mxCell>
        <mxCell id="KSp4SFGzi_MSVjwqNxPU-90" value="productionModel" style="swimlane;fontStyle=1;align=center;verticalAlign=top;childLayout=stackLayout;horizontal=1;startSize=26;horizontalStack=0;resizeParent=1;resizeParentMax=0;resizeLast=0;collapsible=1;marginBottom=0;whiteSpace=wrap;html=1;" parent="1" vertex="1">
          <mxGeometry x="1927" y="839.5" width="160" height="134" as="geometry" />
        </mxCell>
        <mxCell id="KSp4SFGzi_MSVjwqNxPU-91" value="&lt;div&gt;+name:char&lt;div&gt;+stepNames:char&lt;br&gt;&lt;/div&gt;&lt;div&gt;+transitionMatrix:bool&lt;/div&gt;&lt;br&gt;&lt;/div&gt;&lt;div&gt;&lt;/div&gt;&lt;div&gt;&lt;br&gt;&lt;/div&gt;" style="text;strokeColor=none;fillColor=none;align=left;verticalAlign=top;spacingLeft=4;spacingRight=4;overflow=hidden;rotatable=0;points=[[0,0.5],[1,0.5]];portConstraint=eastwest;whiteSpace=wrap;html=1;" parent="KSp4SFGzi_MSVjwqNxPU-90" vertex="1">
          <mxGeometry y="26" width="160" height="74" as="geometry" />
        </mxCell>
        <mxCell id="KSp4SFGzi_MSVjwqNxPU-92" value="" style="line;strokeWidth=1;fillColor=none;align=left;verticalAlign=middle;spacingTop=-1;spacingLeft=3;spacingRight=3;rotatable=0;labelPosition=right;points=[];portConstraint=eastwest;strokeColor=inherit;" parent="KSp4SFGzi_MSVjwqNxPU-90" vertex="1">
          <mxGeometry y="100" width="160" height="8" as="geometry" />
        </mxCell>
        <mxCell id="KSp4SFGzi_MSVjwqNxPU-93" value="+ method(type): type" style="text;strokeColor=none;fillColor=none;align=left;verticalAlign=top;spacingLeft=4;spacingRight=4;overflow=hidden;rotatable=0;points=[[0,0.5],[1,0.5]];portConstraint=eastwest;whiteSpace=wrap;html=1;" parent="KSp4SFGzi_MSVjwqNxPU-90" vertex="1">
          <mxGeometry y="108" width="160" height="26" as="geometry" />
        </mxCell>
        <mxCell id="KSp4SFGzi_MSVjwqNxPU-95" value="Associated cyce" style="swimlane;fontStyle=1;align=center;verticalAlign=top;childLayout=stackLayout;horizontal=1;startSize=26;horizontalStack=0;resizeParent=1;resizeParentMax=0;resizeLast=0;collapsible=1;marginBottom=0;whiteSpace=wrap;html=1;" parent="1" vertex="1">
          <mxGeometry x="1712" y="839.5" width="160" height="134" as="geometry" />
        </mxCell>
        <mxCell id="KSp4SFGzi_MSVjwqNxPU-96" value="&lt;div&gt;+ Mod&lt;/div&gt;&lt;div&gt;+ Variety&lt;/div&gt;&lt;div&gt;&lt;div&gt;+ pdcto&lt;/div&gt;&lt;div&gt;+ uso&lt;/div&gt;&lt;div&gt;&lt;br&gt;&lt;br&gt;&lt;/div&gt;&lt;div&gt;+ Variety&lt;/div&gt;&lt;div&gt;&lt;br&gt;&lt;br&gt;&lt;/div&gt;&lt;/div&gt;&lt;div&gt;&lt;br&gt;&lt;/div&gt;" style="text;strokeColor=none;fillColor=none;align=left;verticalAlign=top;spacingLeft=4;spacingRight=4;overflow=hidden;rotatable=0;points=[[0,0.5],[1,0.5]];portConstraint=eastwest;whiteSpace=wrap;html=1;" parent="KSp4SFGzi_MSVjwqNxPU-95" vertex="1">
          <mxGeometry y="26" width="160" height="74" as="geometry" />
        </mxCell>
        <mxCell id="KSp4SFGzi_MSVjwqNxPU-97" value="" style="line;strokeWidth=1;fillColor=none;align=left;verticalAlign=middle;spacingTop=-1;spacingLeft=3;spacingRight=3;rotatable=0;labelPosition=right;points=[];portConstraint=eastwest;strokeColor=inherit;" parent="KSp4SFGzi_MSVjwqNxPU-95" vertex="1">
          <mxGeometry y="100" width="160" height="8" as="geometry" />
        </mxCell>
        <mxCell id="KSp4SFGzi_MSVjwqNxPU-98" value="+ method(type): type" style="text;strokeColor=none;fillColor=none;align=left;verticalAlign=top;spacingLeft=4;spacingRight=4;overflow=hidden;rotatable=0;points=[[0,0.5],[1,0.5]];portConstraint=eastwest;whiteSpace=wrap;html=1;" parent="KSp4SFGzi_MSVjwqNxPU-95" vertex="1">
          <mxGeometry y="108" width="160" height="26" as="geometry" />
        </mxCell>
        <mxCell id="KSp4SFGzi_MSVjwqNxPU-99" value="" style="endArrow=open;endFill=1;endSize=12;html=1;rounded=0;exitX=1;exitY=0.5;exitDx=0;exitDy=0;" parent="1" source="KSp4SFGzi_MSVjwqNxPU-96" target="KSp4SFGzi_MSVjwqNxPU-91" edge="1">
          <mxGeometry width="160" relative="1" as="geometry">
            <mxPoint x="1347" y="493.5" as="sourcePoint" />
            <mxPoint x="1507" y="493.5" as="targetPoint" />
          </mxGeometry>
        </mxCell>
        <mxCell id="KSp4SFGzi_MSVjwqNxPU-100" value="Step 2" style="swimlane;fontStyle=1;align=center;verticalAlign=top;childLayout=stackLayout;horizontal=1;startSize=26;horizontalStack=0;resizeParent=1;resizeParentMax=0;resizeLast=0;collapsible=1;marginBottom=0;whiteSpace=wrap;html=1;" parent="1" vertex="1">
          <mxGeometry x="1927" y="1009.5" width="160" height="134" as="geometry" />
        </mxCell>
        <mxCell id="KSp4SFGzi_MSVjwqNxPU-101" value="&lt;div&gt;+ Name:char&lt;/div&gt;&lt;div&gt;+ Start:Date&lt;/div&gt;&lt;div&gt;&lt;div&gt;+ End:Date&lt;br&gt;&lt;br&gt;&lt;/div&gt;&lt;/div&gt;&lt;div&gt;&lt;br&gt;&lt;/div&gt;" style="text;strokeColor=none;fillColor=none;align=left;verticalAlign=top;spacingLeft=4;spacingRight=4;overflow=hidden;rotatable=0;points=[[0,0.5],[1,0.5]];portConstraint=eastwest;whiteSpace=wrap;html=1;" parent="KSp4SFGzi_MSVjwqNxPU-100" vertex="1">
          <mxGeometry y="26" width="160" height="74" as="geometry" />
        </mxCell>
        <mxCell id="KSp4SFGzi_MSVjwqNxPU-102" value="" style="line;strokeWidth=1;fillColor=none;align=left;verticalAlign=middle;spacingTop=-1;spacingLeft=3;spacingRight=3;rotatable=0;labelPosition=right;points=[];portConstraint=eastwest;strokeColor=inherit;" parent="KSp4SFGzi_MSVjwqNxPU-100" vertex="1">
          <mxGeometry y="100" width="160" height="8" as="geometry" />
        </mxCell>
        <mxCell id="KSp4SFGzi_MSVjwqNxPU-103" value="+ method(type): type" style="text;strokeColor=none;fillColor=none;align=left;verticalAlign=top;spacingLeft=4;spacingRight=4;overflow=hidden;rotatable=0;points=[[0,0.5],[1,0.5]];portConstraint=eastwest;whiteSpace=wrap;html=1;" parent="KSp4SFGzi_MSVjwqNxPU-100" vertex="1">
          <mxGeometry y="108" width="160" height="26" as="geometry" />
        </mxCell>
        <mxCell id="KSp4SFGzi_MSVjwqNxPU-107" value="Extends" style="endArrow=block;endSize=16;endFill=0;html=1;rounded=0;entryX=0.498;entryY=1.048;entryDx=0;entryDy=0;entryPerimeter=0;exitX=0.5;exitY=0;exitDx=0;exitDy=0;" parent="1" source="KSp4SFGzi_MSVjwqNxPU-90" target="KSp4SFGzi_MSVjwqNxPU-4" edge="1">
          <mxGeometry width="160" relative="1" as="geometry">
            <mxPoint x="1347" y="743.5" as="sourcePoint" />
            <mxPoint x="1907" y="783.5" as="targetPoint" />
          </mxGeometry>
        </mxCell>
        <mxCell id="KSp4SFGzi_MSVjwqNxPU-109" value="Step 1" style="swimlane;fontStyle=1;align=center;verticalAlign=top;childLayout=stackLayout;horizontal=1;startSize=26;horizontalStack=0;resizeParent=1;resizeParentMax=0;resizeLast=0;collapsible=1;marginBottom=0;whiteSpace=wrap;html=1;" parent="1" vertex="1">
          <mxGeometry x="1712" y="1009.5" width="160" height="134" as="geometry" />
        </mxCell>
        <mxCell id="KSp4SFGzi_MSVjwqNxPU-110" value="&lt;div&gt;+ Name:char&lt;/div&gt;&lt;div&gt;+ Start:Date&lt;/div&gt;&lt;div&gt;&lt;div&gt;+ End:Date&lt;br&gt;&lt;br&gt;&lt;/div&gt;&lt;/div&gt;&lt;div&gt;&lt;br&gt;&lt;br&gt;&lt;/div&gt;" style="text;strokeColor=none;fillColor=none;align=left;verticalAlign=top;spacingLeft=4;spacingRight=4;overflow=hidden;rotatable=0;points=[[0,0.5],[1,0.5]];portConstraint=eastwest;whiteSpace=wrap;html=1;" parent="KSp4SFGzi_MSVjwqNxPU-109" vertex="1">
          <mxGeometry y="26" width="160" height="74" as="geometry" />
        </mxCell>
        <mxCell id="KSp4SFGzi_MSVjwqNxPU-111" value="" style="line;strokeWidth=1;fillColor=none;align=left;verticalAlign=middle;spacingTop=-1;spacingLeft=3;spacingRight=3;rotatable=0;labelPosition=right;points=[];portConstraint=eastwest;strokeColor=inherit;" parent="KSp4SFGzi_MSVjwqNxPU-109" vertex="1">
          <mxGeometry y="100" width="160" height="8" as="geometry" />
        </mxCell>
        <mxCell id="KSp4SFGzi_MSVjwqNxPU-112" value="+ method(type): type" style="text;strokeColor=none;fillColor=none;align=left;verticalAlign=top;spacingLeft=4;spacingRight=4;overflow=hidden;rotatable=0;points=[[0,0.5],[1,0.5]];portConstraint=eastwest;whiteSpace=wrap;html=1;" parent="KSp4SFGzi_MSVjwqNxPU-109" vertex="1">
          <mxGeometry y="108" width="160" height="26" as="geometry" />
        </mxCell>
        <mxCell id="KSp4SFGzi_MSVjwqNxPU-123" value="" style="endArrow=open;endFill=1;endSize=12;html=1;rounded=0;entryX=0;entryY=0.5;entryDx=0;entryDy=0;exitX=1;exitY=0.5;exitDx=0;exitDy=0;" parent="1" source="KSp4SFGzi_MSVjwqNxPU-110" target="KSp4SFGzi_MSVjwqNxPU-101" edge="1">
          <mxGeometry width="160" relative="1" as="geometry">
            <mxPoint x="1647" y="899.5" as="sourcePoint" />
            <mxPoint x="1807" y="899.5" as="targetPoint" />
          </mxGeometry>
        </mxCell>
        <mxCell id="KSp4SFGzi_MSVjwqNxPU-124" value="Extends" style="endArrow=block;endSize=16;endFill=0;html=1;rounded=0;" parent="1" target="KSp4SFGzi_MSVjwqNxPU-69" edge="1">
          <mxGeometry width="160" relative="1" as="geometry">
            <mxPoint x="2007" y="643.5" as="sourcePoint" />
            <mxPoint x="2018" y="792.5" as="targetPoint" />
          </mxGeometry>
        </mxCell>
        <mxCell id="KSp4SFGzi_MSVjwqNxPU-125" value="Extends" style="endArrow=block;endSize=16;endFill=0;html=1;rounded=0;exitX=0.5;exitY=0;exitDx=0;exitDy=0;" parent="1" source="KSp4SFGzi_MSVjwqNxPU-66" target="KSp4SFGzi_MSVjwqNxPU-73" edge="1">
          <mxGeometry x="-0.0044" width="160" relative="1" as="geometry">
            <mxPoint x="2017" y="653.5" as="sourcePoint" />
            <mxPoint x="2017" y="619.5" as="targetPoint" />
            <mxPoint as="offset" />
          </mxGeometry>
        </mxCell>
        <mxCell id="bnmCyNIr4KmW2nt2IgBb-1" value="Products" style="swimlane;fontStyle=1;align=center;verticalAlign=top;childLayout=stackLayout;horizontal=1;startSize=26;horizontalStack=0;resizeParent=1;resizeParentMax=0;resizeLast=0;collapsible=1;marginBottom=0;whiteSpace=wrap;html=1;" parent="1" vertex="1">
          <mxGeometry x="1380" y="489.5" width="160" height="130" as="geometry" />
        </mxCell>
        <mxCell id="bnmCyNIr4KmW2nt2IgBb-2" value="&lt;div&gt;+Name:char&lt;/div&gt;&lt;div&gt;+type:productType&lt;/div&gt;&lt;div&gt;+Name:char&lt;/div&gt;" style="text;strokeColor=none;fillColor=none;align=left;verticalAlign=top;spacingLeft=4;spacingRight=4;overflow=hidden;rotatable=0;points=[[0,0.5],[1,0.5]];portConstraint=eastwest;whiteSpace=wrap;html=1;" parent="bnmCyNIr4KmW2nt2IgBb-1" vertex="1">
          <mxGeometry y="26" width="160" height="54" as="geometry" />
        </mxCell>
        <mxCell id="bnmCyNIr4KmW2nt2IgBb-3" value="" style="line;strokeWidth=1;fillColor=none;align=left;verticalAlign=middle;spacingTop=-1;spacingLeft=3;spacingRight=3;rotatable=0;labelPosition=right;points=[];portConstraint=eastwest;strokeColor=inherit;" parent="bnmCyNIr4KmW2nt2IgBb-1" vertex="1">
          <mxGeometry y="80" width="160" height="8" as="geometry" />
        </mxCell>
        <mxCell id="bnmCyNIr4KmW2nt2IgBb-4" value="+ aÃ±adirProducto(char):&amp;nbsp; products" style="text;strokeColor=none;fillColor=none;align=left;verticalAlign=top;spacingLeft=4;spacingRight=4;overflow=hidden;rotatable=0;points=[[0,0.5],[1,0.5]];portConstraint=eastwest;whiteSpace=wrap;html=1;" parent="bnmCyNIr4KmW2nt2IgBb-1" vertex="1">
          <mxGeometry y="88" width="160" height="42" as="geometry" />
        </mxCell>
        <mxCell id="bnmCyNIr4KmW2nt2IgBb-8" value="Variable" style="swimlane;fontStyle=1;align=center;verticalAlign=top;childLayout=stackLayout;horizontal=1;startSize=26;horizontalStack=0;resizeParent=1;resizeParentMax=0;resizeLast=0;collapsible=1;marginBottom=0;whiteSpace=wrap;html=1;" parent="1" vertex="1">
          <mxGeometry x="1872" y="1172.5" width="240" height="160" as="geometry" />
        </mxCell>
        <mxCell id="bnmCyNIr4KmW2nt2IgBb-9" value="&lt;div&gt;+ Name:char&lt;/div&gt;&lt;div&gt;+ Unit: units&lt;br&gt;&lt;/div&gt;&lt;div&gt;+ ValueObserved:variableValueAndType&lt;div&gt;&lt;div&gt;+ ValueCalculated:variableValueAndType&lt;/div&gt;+ ValueAnticipated:variableValueAndType&lt;/div&gt;&lt;/div&gt;+ Variety&lt;div&gt;&lt;div&gt;&lt;br&gt;&lt;br&gt;&lt;/div&gt;&lt;/div&gt;&lt;div&gt;&lt;br&gt;&lt;/div&gt;" style="text;strokeColor=none;fillColor=none;align=left;verticalAlign=top;spacingLeft=4;spacingRight=4;overflow=hidden;rotatable=0;points=[[0,0.5],[1,0.5]];portConstraint=eastwest;whiteSpace=wrap;html=1;" parent="bnmCyNIr4KmW2nt2IgBb-8" vertex="1">
          <mxGeometry y="26" width="240" height="94" as="geometry" />
        </mxCell>
        <mxCell id="bnmCyNIr4KmW2nt2IgBb-10" value="" style="line;strokeWidth=1;fillColor=none;align=left;verticalAlign=middle;spacingTop=-1;spacingLeft=3;spacingRight=3;rotatable=0;labelPosition=right;points=[];portConstraint=eastwest;strokeColor=inherit;" parent="bnmCyNIr4KmW2nt2IgBb-8" vertex="1">
          <mxGeometry y="120" width="240" height="8" as="geometry" />
        </mxCell>
        <mxCell id="bnmCyNIr4KmW2nt2IgBb-11" value="+ method(type): type" style="text;strokeColor=none;fillColor=none;align=left;verticalAlign=top;spacingLeft=4;spacingRight=4;overflow=hidden;rotatable=0;points=[[0,0.5],[1,0.5]];portConstraint=eastwest;whiteSpace=wrap;html=1;" parent="bnmCyNIr4KmW2nt2IgBb-8" vertex="1">
          <mxGeometry y="128" width="240" height="32" as="geometry" />
        </mxCell>
        <mxCell id="bnmCyNIr4KmW2nt2IgBb-12" value="" style="endArrow=block;endSize=16;endFill=0;html=1;rounded=0;entryX=0.499;entryY=1.054;entryDx=0;entryDy=0;entryPerimeter=0;exitX=0.5;exitY=0;exitDx=0;exitDy=0;" parent="1" source="KSp4SFGzi_MSVjwqNxPU-100" target="KSp4SFGzi_MSVjwqNxPU-93" edge="1">
          <mxGeometry x="-1" y="173" width="160" relative="1" as="geometry">
            <mxPoint x="2007" y="1009.5" as="sourcePoint" />
            <mxPoint x="2017" y="969.5" as="targetPoint" />
            <mxPoint x="163" y="179" as="offset" />
          </mxGeometry>
        </mxCell>
        <mxCell id="bnmCyNIr4KmW2nt2IgBb-13" value="VariableValueAndType" style="swimlane;fontStyle=1;align=center;verticalAlign=top;childLayout=stackLayout;horizontal=1;startSize=26;horizontalStack=0;resizeParent=1;resizeParentMax=0;resizeLast=0;collapsible=1;marginBottom=0;whiteSpace=wrap;html=1;" parent="1" vertex="1">
          <mxGeometry x="1682" y="1172.5" width="160" height="100" as="geometry" />
        </mxCell>
        <mxCell id="bnmCyNIr4KmW2nt2IgBb-14" value="&lt;div&gt;+ Date:date&lt;/div&gt;&lt;div&gt;+ Bool:bool&lt;br&gt;+ Int:int&lt;/div&gt;&lt;div&gt;+ Bool:Bool&lt;/div&gt;&lt;div&gt;&lt;br&gt;&lt;br&gt;&lt;/div&gt;" style="text;strokeColor=none;fillColor=none;align=left;verticalAlign=top;spacingLeft=4;spacingRight=4;overflow=hidden;rotatable=0;points=[[0,0.5],[1,0.5]];portConstraint=eastwest;whiteSpace=wrap;html=1;" parent="bnmCyNIr4KmW2nt2IgBb-13" vertex="1">
          <mxGeometry y="26" width="160" height="74" as="geometry" />
        </mxCell>
        <mxCell id="bnmCyNIr4KmW2nt2IgBb-22" value="" style="endArrow=block;endSize=16;endFill=0;html=1;rounded=0;exitX=0.5;exitY=0;exitDx=0;exitDy=0;" parent="1" target="KSp4SFGzi_MSVjwqNxPU-103" edge="1">
          <mxGeometry x="-1" y="173" width="160" relative="1" as="geometry">
            <mxPoint x="2006.9999999999995" y="1172.5" as="sourcePoint" />
            <mxPoint x="2007" y="1132.5" as="targetPoint" />
            <mxPoint x="163" y="179" as="offset" />
          </mxGeometry>
        </mxCell>
        <mxCell id="bnmCyNIr4KmW2nt2IgBb-23" value="variableCalculationModel" style="swimlane;fontStyle=1;align=center;verticalAlign=top;childLayout=stackLayout;horizontal=1;startSize=26;horizontalStack=0;resizeParent=1;resizeParentMax=0;resizeLast=0;collapsible=1;marginBottom=0;whiteSpace=wrap;html=1;" parent="1" vertex="1">
          <mxGeometry x="1907" y="1372" width="200" height="150" as="geometry" />
        </mxCell>
        <mxCell id="bnmCyNIr4KmW2nt2IgBb-24" value="&lt;div&gt;+ indepVariables:Variable&lt;/div&gt;&lt;div&gt;+ parametersPrior:priorDistribution &lt;br&gt;&lt;/div&gt;&lt;div&gt;+ parameters:float &lt;/div&gt;&lt;div&gt;+ formulae:form&lt;/div&gt;&lt;div&gt;&lt;br&gt;&lt;div&gt;&lt;br&gt;&lt;/div&gt;&lt;/div&gt;&lt;div&gt;&lt;div&gt;&lt;br&gt;&lt;br&gt;&lt;/div&gt;&lt;/div&gt;&lt;div&gt;&lt;br&gt;&lt;/div&gt;" style="text;strokeColor=none;fillColor=none;align=left;verticalAlign=top;spacingLeft=4;spacingRight=4;overflow=hidden;rotatable=0;points=[[0,0.5],[1,0.5]];portConstraint=eastwest;whiteSpace=wrap;html=1;" parent="bnmCyNIr4KmW2nt2IgBb-23" vertex="1">
          <mxGeometry y="26" width="200" height="74" as="geometry" />
        </mxCell>
        <mxCell id="bnmCyNIr4KmW2nt2IgBb-25" value="" style="line;strokeWidth=1;fillColor=none;align=left;verticalAlign=middle;spacingTop=-1;spacingLeft=3;spacingRight=3;rotatable=0;labelPosition=right;points=[];portConstraint=eastwest;strokeColor=inherit;" parent="bnmCyNIr4KmW2nt2IgBb-23" vertex="1">
          <mxGeometry y="100" width="200" height="8" as="geometry" />
        </mxCell>
        <mxCell id="bnmCyNIr4KmW2nt2IgBb-26" value="&lt;div&gt;+ priorCalculation(): variableType&lt;/div&gt;&lt;div&gt;+ varCalculation(): variableType&lt;/div&gt;" style="text;strokeColor=none;fillColor=none;align=left;verticalAlign=top;spacingLeft=4;spacingRight=4;overflow=hidden;rotatable=0;points=[[0,0.5],[1,0.5]];portConstraint=eastwest;whiteSpace=wrap;html=1;" parent="bnmCyNIr4KmW2nt2IgBb-23" vertex="1">
          <mxGeometry y="108" width="200" height="42" as="geometry" />
        </mxCell>
        <mxCell id="bnmCyNIr4KmW2nt2IgBb-27" value="" style="endArrow=block;endSize=16;endFill=0;html=1;rounded=0;exitX=0.5;exitY=0;exitDx=0;exitDy=0;" parent="1" source="bnmCyNIr4KmW2nt2IgBb-23" edge="1">
          <mxGeometry x="-1" y="173" width="160" relative="1" as="geometry">
            <mxPoint x="2017" y="1182.5" as="sourcePoint" />
            <mxPoint x="2006.9999999999995" y="1332.5" as="targetPoint" />
            <mxPoint x="163" y="179" as="offset" />
          </mxGeometry>
        </mxCell>
        <mxCell id="bnmCyNIr4KmW2nt2IgBb-28" value="priorDistribution" style="swimlane;fontStyle=1;align=center;verticalAlign=top;childLayout=stackLayout;horizontal=1;startSize=26;horizontalStack=0;resizeParent=1;resizeParentMax=0;resizeLast=0;collapsible=1;marginBottom=0;whiteSpace=wrap;html=1;" parent="1" vertex="1">
          <mxGeometry x="1652" y="1372" width="190" height="120" as="geometry" />
        </mxCell>
        <mxCell id="bnmCyNIr4KmW2nt2IgBb-29" value="&lt;div&gt;+ type:typeOfPrior&lt;/div&gt;&lt;div&gt;+ parameters:float&lt;/div&gt;&lt;div&gt;+ value:float &lt;br&gt;&lt;/div&gt;&lt;div&gt;&lt;div&gt;&lt;br&gt;&lt;br&gt;&lt;/div&gt;&lt;/div&gt;&lt;div&gt;&lt;br&gt;&lt;/div&gt;" style="text;strokeColor=none;fillColor=none;align=left;verticalAlign=top;spacingLeft=4;spacingRight=4;overflow=hidden;rotatable=0;points=[[0,0.5],[1,0.5]];portConstraint=eastwest;whiteSpace=wrap;html=1;" parent="bnmCyNIr4KmW2nt2IgBb-28" vertex="1">
          <mxGeometry y="26" width="190" height="54" as="geometry" />
        </mxCell>
        <mxCell id="bnmCyNIr4KmW2nt2IgBb-30" value="" style="line;strokeWidth=1;fillColor=none;align=left;verticalAlign=middle;spacingTop=-1;spacingLeft=3;spacingRight=3;rotatable=0;labelPosition=right;points=[];portConstraint=eastwest;strokeColor=inherit;" parent="bnmCyNIr4KmW2nt2IgBb-28" vertex="1">
          <mxGeometry y="80" width="190" height="8" as="geometry" />
        </mxCell>
        <mxCell id="bnmCyNIr4KmW2nt2IgBb-31" value="+ priorCalculation(): variableType" style="text;strokeColor=none;fillColor=none;align=left;verticalAlign=top;spacingLeft=4;spacingRight=4;overflow=hidden;rotatable=0;points=[[0,0.5],[1,0.5]];portConstraint=eastwest;whiteSpace=wrap;html=1;" parent="bnmCyNIr4KmW2nt2IgBb-28" vertex="1">
          <mxGeometry y="88" width="190" height="32" as="geometry" />
        </mxCell>
        <mxCell id="bnmCyNIr4KmW2nt2IgBb-32" value="typeOfPrior" style="swimlane;fontStyle=1;align=center;verticalAlign=top;childLayout=stackLayout;horizontal=1;startSize=26;horizontalStack=0;resizeParent=1;resizeParentMax=0;resizeLast=0;collapsible=1;marginBottom=0;whiteSpace=wrap;html=1;" parent="1" vertex="1">
          <mxGeometry x="1412" y="1372" width="190" height="100" as="geometry" />
        </mxCell>
        <mxCell id="bnmCyNIr4KmW2nt2IgBb-33" value="&lt;div&gt;+ uniform&lt;/div&gt;&lt;div&gt;+ loguniform&lt;/div&gt;&lt;div&gt;+ normal&lt;/div&gt;&lt;div&gt;+ lognormal&lt;br&gt;&lt;/div&gt;&lt;div&gt;&lt;div&gt;&lt;br&gt;&lt;br&gt;&lt;/div&gt;&lt;/div&gt;&lt;div&gt;&lt;br&gt;&lt;/div&gt;" style="text;strokeColor=none;fillColor=none;align=left;verticalAlign=top;spacingLeft=4;spacingRight=4;overflow=hidden;rotatable=0;points=[[0,0.5],[1,0.5]];portConstraint=eastwest;whiteSpace=wrap;html=1;" parent="bnmCyNIr4KmW2nt2IgBb-32" vertex="1">
          <mxGeometry y="26" width="190" height="74" as="geometry" />
        </mxCell>
        <mxCell id="bnmCyNIr4KmW2nt2IgBb-36" value="AnimalSpecies" style="swimlane;fontStyle=1;align=center;verticalAlign=top;childLayout=stackLayout;horizontal=1;startSize=26;horizontalStack=0;resizeParent=1;resizeParentMax=0;resizeLast=0;collapsible=1;marginBottom=0;whiteSpace=wrap;html=1;" parent="1" vertex="1">
          <mxGeometry x="1370" y="239" width="140" height="200" as="geometry" />
        </mxCell>
        <mxCell id="bnmCyNIr4KmW2nt2IgBb-37" value="&lt;div&gt;+animalOK:bool&lt;br&gt;&lt;/div&gt;" style="text;strokeColor=none;fillColor=none;align=left;verticalAlign=top;spacingLeft=4;spacingRight=4;overflow=hidden;rotatable=0;points=[[0,0.5],[1,0.5]];portConstraint=eastwest;whiteSpace=wrap;html=1;" parent="bnmCyNIr4KmW2nt2IgBb-36" vertex="1">
          <mxGeometry y="26" width="140" height="34" as="geometry" />
        </mxCell>
        <mxCell id="bnmCyNIr4KmW2nt2IgBb-38" value="" style="line;strokeWidth=1;fillColor=none;align=left;verticalAlign=middle;spacingTop=-1;spacingLeft=3;spacingRight=3;rotatable=0;labelPosition=right;points=[];portConstraint=eastwest;strokeColor=inherit;" parent="bnmCyNIr4KmW2nt2IgBb-36" vertex="1">
          <mxGeometry y="60" width="140" height="8" as="geometry" />
        </mxCell>
        <mxCell id="bnmCyNIr4KmW2nt2IgBb-39" value="+checkAnimal(char):animalOK&lt;br&gt;listOfOkAnimals[Bovinos&lt;br&gt;Puercos&lt;br&gt;Caprinos&lt;br&gt;Ovinos&lt;br&gt;Equinos&lt;br&gt;Cuyes&lt;br&gt;Gallinas ponedoras&lt;br&gt;Gallinas carne&lt;br&gt;Gallinas doble proposito&lt;br&gt;Abejas&lt;br&gt;Avestruces&lt;br&gt;Patos&lt;br&gt;Pavos&lt;br&gt;Pintadas&lt;br&gt;Cordonices&lt;br&gt;Canarios&lt;br&gt;Insectos&lt;br&gt;Conejos&lt;br&gt;Bufalos&lt;br&gt;Abejas]&lt;br&gt;&lt;br&gt;&lt;div&gt;&lt;/div&gt;&lt;br&gt;" style="text;strokeColor=none;fillColor=none;align=left;verticalAlign=top;spacingLeft=4;spacingRight=4;overflow=hidden;rotatable=0;points=[[0,0.5],[1,0.5]];portConstraint=eastwest;whiteSpace=wrap;html=1;" parent="bnmCyNIr4KmW2nt2IgBb-36" vertex="1">
          <mxGeometry y="68" width="140" height="132" as="geometry" />
        </mxCell>
        <mxCell id="bnmCyNIr4KmW2nt2IgBb-41" value="Peces" style="swimlane;fontStyle=1;align=center;verticalAlign=top;childLayout=stackLayout;horizontal=1;startSize=26;horizontalStack=0;resizeParent=1;resizeParentMax=0;resizeLast=0;collapsible=1;marginBottom=0;whiteSpace=wrap;html=1;" parent="1" vertex="1">
          <mxGeometry x="1220" y="239" width="120" height="200" as="geometry" />
        </mxCell>
        <mxCell id="jO_6KhbkxEUZzAkIXSuS-63" value="+fishOK:bool" style="text;strokeColor=none;fillColor=none;align=left;verticalAlign=top;spacingLeft=4;spacingRight=4;overflow=hidden;rotatable=0;points=[[0,0.5],[1,0.5]];portConstraint=eastwest;whiteSpace=wrap;html=1;" parent="bnmCyNIr4KmW2nt2IgBb-41" vertex="1">
          <mxGeometry y="26" width="120" height="26" as="geometry" />
        </mxCell>
        <mxCell id="bnmCyNIr4KmW2nt2IgBb-43" value="" style="line;strokeWidth=1;fillColor=none;align=left;verticalAlign=middle;spacingTop=-1;spacingLeft=3;spacingRight=3;rotatable=0;labelPosition=right;points=[];portConstraint=eastwest;strokeColor=inherit;" parent="bnmCyNIr4KmW2nt2IgBb-41" vertex="1">
          <mxGeometry y="52" width="120" height="8" as="geometry" />
        </mxCell>
        <mxCell id="bnmCyNIr4KmW2nt2IgBb-44" value="+ checkPez(char): pezOK &lt;br&gt;&lt;table style=&quot;table-layout:fixed;font-size:10pt;font-family:Arial;width:0px;border-collapse:collapse;border:none&quot; dir=&quot;ltr&quot; cellspacing=&quot;0&quot; cellpadding=&quot;0&quot; border=&quot;1&quot;&gt;&lt;colgroup&gt;&lt;col width=&quot;215&quot;&gt;&lt;/colgroup&gt;&lt;tbody&gt;&lt;tr style=&quot;height:20px;&quot;&gt;&lt;td data-sheets-value=&quot;{&amp;quot;1&amp;quot;:2,&amp;quot;2&amp;quot;:&amp;quot;CARCHARHINIDAE Carcharhinus leucas&amp;quot;}&quot; style=&quot;overflow:hidden;padding:0px 3px 0px 3px;vertical-align:bottom;&quot;&gt;list of okFish[CARCHARHINIDAE Carcharhinus leucas&lt;/td&gt;&lt;/tr&gt;&lt;tr style=&quot;height:20px;&quot;&gt;&lt;td data-sheets-value=&quot;{&amp;quot;1&amp;quot;:2,&amp;quot;2&amp;quot;:&amp;quot;DASYATIDAE Dasyatis guttata&amp;quot;}&quot; style=&quot;overflow:hidden;padding:0px 3px 0px 3px;vertical-align:bottom;&quot;&gt;DASYATIDAE Dasyatis guttata&lt;/td&gt;&lt;/tr&gt;&lt;tr style=&quot;height:20px;&quot;&gt;&lt;td data-sheets-value=&quot;{&amp;quot;1&amp;quot;:2,&amp;quot;2&amp;quot;:&amp;quot;DASYATIDAE Himantura schmardae&amp;quot;}&quot; style=&quot;overflow:hidden;padding:0px 3px 0px 3px;vertical-align:bottom;font-size:9pt;&quot;&gt;DASYATIDAE Himantura schmardae&lt;/td&gt;&lt;/tr&gt;&lt;tr style=&quot;height:20px;&quot;&gt;&lt;td data-sheets-value=&quot;{&amp;quot;1&amp;quot;:2,&amp;quot;2&amp;quot;:&amp;quot;PRISTIDAE Pristis pristis&amp;quot;}&quot; style=&quot;overflow:hidden;padding:0px 3px 0px 3px;vertical-align:bottom;&quot;&gt;PRISTIDAE Pristis pristis&lt;/td&gt;&lt;/tr&gt;&lt;tr style=&quot;height:20px;&quot;&gt;&lt;td data-sheets-value=&quot;{&amp;quot;1&amp;quot;:2,&amp;quot;2&amp;quot;:&amp;quot;PRISTIDAE Pristis pectinata&amp;quot;}&quot; style=&quot;overflow:hidden;padding:0px 3px 0px 3px;vertical-align:bottom;&quot;&gt;PRISTIDAE Pristis pectinata&lt;/td&gt;&lt;/tr&gt;&lt;tr style=&quot;height:20px;&quot;&gt;&lt;td data-sheets-value=&quot;{&amp;quot;1&amp;quot;:2,&amp;quot;2&amp;quot;:&amp;quot;POTAMOTRYGONIDAE Potamotrygon magdalenae&amp;quot;}&quot; style=&quot;overflow:hidden;padding:0px 3px 0px 3px;vertical-align:bottom;&quot;&gt;POTAMOTRYGONIDAE Potamotrygon magdalenae&lt;/td&gt;&lt;/tr&gt;&lt;tr style=&quot;height:20px;&quot;&gt;&lt;td data-sheets-value=&quot;{&amp;quot;1&amp;quot;:2,&amp;quot;2&amp;quot;:&amp;quot;OSTEOGLOSSIDAE Osteoglossum bicirrhosum&amp;quot;}&quot; style=&quot;overflow:hidden;padding:0px 3px 0px 3px;vertical-align:bottom;&quot;&gt;OSTEOGLOSSIDAE Osteoglossum bicirrhosum&lt;/td&gt;&lt;/tr&gt;&lt;tr style=&quot;height:20px;&quot;&gt;&lt;td data-sheets-value=&quot;{&amp;quot;1&amp;quot;:2,&amp;quot;2&amp;quot;:&amp;quot;ARAPAIMIDAE Arapaima gigas&amp;quot;}&quot; style=&quot;overflow:hidden;padding:0px 3px 0px 3px;vertical-align:bottom;&quot;&gt;ARAPAIMIDAE Arapaima gigas&lt;/td&gt;&lt;/tr&gt;&lt;tr style=&quot;height:20px;&quot;&gt;&lt;td data-sheets-value=&quot;{&amp;quot;1&amp;quot;:2,&amp;quot;2&amp;quot;:&amp;quot;PRISTIGASTERIDAE Pellona castelnaeana&amp;quot;}&quot; style=&quot;overflow:hidden;padding:0px 3px 0px 3px;vertical-align:bottom;&quot;&gt;PRISTIGASTERIDAE Pellona castelnaeana&lt;/td&gt;&lt;/tr&gt;&lt;tr style=&quot;height:20px;&quot;&gt;&lt;td data-sheets-value=&quot;{&amp;quot;1&amp;quot;:2,&amp;quot;2&amp;quot;:&amp;quot;PRISTIGASTERIDAE Pellona flavipinnis&amp;quot;}&quot; style=&quot;overflow:hidden;padding:0px 3px 0px 3px;vertical-align:bottom;&quot;&gt;PRISTIGASTERIDAE Pellona flavipinnis&lt;/td&gt;&lt;/tr&gt;&lt;tr style=&quot;height:20px;&quot;&gt;&lt;td data-sheets-value=&quot;{&amp;quot;1&amp;quot;:2,&amp;quot;2&amp;quot;:&amp;quot;MEGALOPIDAE Megalops atlanticus&amp;quot;}&quot; style=&quot;overflow:hidden;padding:0px 3px 0px 3px;vertical-align:bottom;&quot;&gt;MEGALOPIDAE Megalops atlanticus&lt;/td&gt;&lt;/tr&gt;&lt;tr style=&quot;height:20px;&quot;&gt;&lt;td data-sheets-value=&quot;{&amp;quot;1&amp;quot;:2,&amp;quot;2&amp;quot;:&amp;quot;ANOSTOMIDAE Leporinus fasciatus&amp;quot;}&quot; style=&quot;overflow:hidden;padding:0px 3px 0px 3px;vertical-align:bottom;&quot;&gt;ANOSTOMIDAE Leporinus fasciatus&lt;/td&gt;&lt;/tr&gt;&lt;tr style=&quot;height:20px;&quot;&gt;&lt;td data-sheets-value=&quot;{&amp;quot;1&amp;quot;:2,&amp;quot;2&amp;quot;:&amp;quot;ANOSTOMIDAE Leporinus agassizii&amp;quot;}&quot; style=&quot;overflow:hidden;padding:0px 3px 0px 3px;vertical-align:bottom;&quot;&gt;ANOSTOMIDAE Leporinus agassizii&lt;/td&gt;&lt;/tr&gt;&lt;tr style=&quot;height:20px;&quot;&gt;&lt;td data-sheets-value=&quot;{&amp;quot;1&amp;quot;:2,&amp;quot;2&amp;quot;:&amp;quot;ANOSTOMIDAE Leporinus friderici&amp;quot;}&quot; style=&quot;overflow:hidden;padding:0px 3px 0px 3px;vertical-align:bottom;&quot;&gt;ANOSTOMIDAE Leporinus friderici&lt;/td&gt;&lt;/tr&gt;&lt;tr style=&quot;height:20px;&quot;&gt;&lt;td data-sheets-value=&quot;{&amp;quot;1&amp;quot;:2,&amp;quot;2&amp;quot;:&amp;quot;ANOSTOMIDAE Leporinus muyscorum&amp;quot;}&quot; style=&quot;overflow:hidden;padding:0px 3px 0px 3px;vertical-align:bottom;&quot;&gt;ANOSTOMIDAE Leporinus muyscorum&lt;/td&gt;&lt;/tr&gt;&lt;tr style=&quot;height:20px;&quot;&gt;&lt;td data-sheets-value=&quot;{&amp;quot;1&amp;quot;:2,&amp;quot;2&amp;quot;:&amp;quot;ANOSTOMIDAE Leporinus striatus&amp;quot;}&quot; style=&quot;overflow:hidden;padding:0px 3px 0px 3px;vertical-align:bottom;&quot;&gt;ANOSTOMIDAE Leporinus striatus&lt;/td&gt;&lt;/tr&gt;&lt;tr style=&quot;height:20px;&quot;&gt;&lt;td data-sheets-value=&quot;{&amp;quot;1&amp;quot;:2,&amp;quot;2&amp;quot;:&amp;quot;ANOSTOMIDAE Schizodon corti&amp;quot;}&quot; style=&quot;overflow:hidden;padding:0px 3px 0px 3px;vertical-align:bottom;&quot;&gt;ANOSTOMIDAE Schizodon corti&lt;/td&gt;&lt;/tr&gt;&lt;tr style=&quot;height:20px;&quot;&gt;&lt;td data-sheets-value=&quot;{&amp;quot;1&amp;quot;:2,&amp;quot;2&amp;quot;:&amp;quot;ANOSTOMIDAE, Schizodon fasciatum&amp;quot;}&quot; style=&quot;overflow:hidden;padding:0px 3px 0px 3px;vertical-align:bottom;&quot;&gt;ANOSTOMIDAE, Schizodon fasciatum&lt;/td&gt;&lt;/tr&gt;&lt;tr style=&quot;height:20px;&quot;&gt;&lt;td data-sheets-value=&quot;{&amp;quot;1&amp;quot;:2,&amp;quot;2&amp;quot;:&amp;quot;ANOSTOMIDAE Schizodon scotorhabdotus&amp;quot;}&quot; style=&quot;overflow:hidden;padding:0px 3px 0px 3px;vertical-align:bottom;&quot;&gt;ANOSTOMIDAE Schizodon scotorhabdotus&lt;/td&gt;&lt;/tr&gt;&lt;tr style=&quot;height:20px;&quot;&gt;&lt;td data-sheets-value=&quot;{&amp;quot;1&amp;quot;:2,&amp;quot;2&amp;quot;:&amp;quot;ANOSTOMIDAE Astyanax fasciatus&amp;quot;}&quot; style=&quot;overflow:hidden;padding:0px 3px 0px 3px;vertical-align:bottom;&quot;&gt;ANOSTOMIDAE Astyanax fasciatus&lt;/td&gt;&lt;/tr&gt;&lt;tr style=&quot;height:20px;&quot;&gt;&lt;td data-sheets-value=&quot;{&amp;quot;1&amp;quot;:2,&amp;quot;2&amp;quot;:&amp;quot;CHARACIDAE Brycon argenteus&amp;quot;}&quot; style=&quot;overflow:hidden;padding:0px 3px 0px 3px;vertical-align:bottom;&quot;&gt;CHARACIDAE Brycon argenteus&lt;/td&gt;&lt;/tr&gt;&lt;tr style=&quot;height:20px;&quot;&gt;&lt;td data-sheets-value=&quot;{&amp;quot;1&amp;quot;:2,&amp;quot;2&amp;quot;:&amp;quot;CHARACIDAE Brycon amazonicus&amp;quot;}&quot; style=&quot;overflow:hidden;padding:0px 3px 0px 3px;vertical-align:bottom;&quot;&gt;CHARACIDAE Brycon amazonicus&lt;/td&gt;&lt;/tr&gt;&lt;tr style=&quot;height:20px;&quot;&gt;&lt;td data-sheets-value=&quot;{&amp;quot;1&amp;quot;:2,&amp;quot;2&amp;quot;:&amp;quot;CHARACIDAE Brycon cephalus&amp;quot;}&quot; style=&quot;overflow:hidden;padding:0px 3px 0px 3px;vertical-align:bottom;&quot;&gt;CHARACIDAE Brycon cephalus&lt;/td&gt;&lt;/tr&gt;&lt;tr style=&quot;height:20px;&quot;&gt;&lt;td data-sheets-value=&quot;{&amp;quot;1&amp;quot;:2,&amp;quot;2&amp;quot;:&amp;quot;CHARACIDAE Brycon falcatus&amp;quot;}&quot; style=&quot;overflow:hidden;padding:0px 3px 0px 3px;vertical-align:bottom;&quot;&gt;CHARACIDAE Brycon falcatus&lt;/td&gt;&lt;/tr&gt;&lt;tr style=&quot;height:20px;&quot;&gt;&lt;td data-sheets-value=&quot;{&amp;quot;1&amp;quot;:2,&amp;quot;2&amp;quot;:&amp;quot;CHARACIDAE Brycon henni&amp;quot;}&quot; style=&quot;overflow:hidden;padding:0px 3px 0px 3px;vertical-align:bottom;&quot;&gt;CHARACIDAE Brycon henni&lt;/td&gt;&lt;/tr&gt;&lt;tr style=&quot;height:20px;&quot;&gt;&lt;td data-sheets-value=&quot;{&amp;quot;1&amp;quot;:2,&amp;quot;2&amp;quot;:&amp;quot;CHARACIDAE Brycon meeki&amp;quot;}&quot; style=&quot;overflow:hidden;padding:0px 3px 0px 3px;vertical-align:bottom;&quot;&gt;CHARACIDAE Brycon meeki&lt;/td&gt;&lt;/tr&gt;&lt;tr style=&quot;height:20px;&quot;&gt;&lt;td data-sheets-value=&quot;{&amp;quot;1&amp;quot;:2,&amp;quot;2&amp;quot;:&amp;quot;CHARACIDAE Brycon melanopterus&amp;quot;}&quot; style=&quot;overflow:hidden;padding:0px 3px 0px 3px;vertical-align:bottom;&quot;&gt;CHARACIDAE Brycon melanopterus&lt;/td&gt;&lt;/tr&gt;&lt;tr style=&quot;height:20px;&quot;&gt;&lt;td data-sheets-value=&quot;{&amp;quot;1&amp;quot;:2,&amp;quot;2&amp;quot;:&amp;quot;CHARACIDAE Brycon moorei&amp;quot;}&quot; style=&quot;overflow:hidden;padding:0px 3px 0px 3px;vertical-align:bottom;&quot;&gt;CHARACIDAE Brycon moorei&lt;/td&gt;&lt;/tr&gt;&lt;tr style=&quot;height:20px;&quot;&gt;&lt;td data-sheets-value=&quot;{&amp;quot;1&amp;quot;:2,&amp;quot;2&amp;quot;:&amp;quot;CHARACIDAE Brycon oligolepis&amp;quot;}&quot; style=&quot;overflow:hidden;padding:0px 3px 0px 3px;vertical-align:bottom;&quot;&gt;CHARACIDAE Brycon oligolepis&lt;/td&gt;&lt;/tr&gt;&lt;tr style=&quot;height:20px;&quot;&gt;&lt;td data-sheets-value=&quot;{&amp;quot;1&amp;quot;:2,&amp;quot;2&amp;quot;:&amp;quot;CHARACIDAE Brycon sinuensis&amp;quot;}&quot; style=&quot;overflow:hidden;padding:0px 3px 0px 3px;vertical-align:bottom;&quot;&gt;CHARACIDAE Brycon sinuensis&lt;/td&gt;&lt;/tr&gt;&lt;tr style=&quot;height:20px;&quot;&gt;&lt;td data-sheets-value=&quot;{&amp;quot;1&amp;quot;:2,&amp;quot;2&amp;quot;:&amp;quot;CHARACIDAE Colossoma macropomum&amp;quot;}&quot; style=&quot;overflow:hidden;padding:0px 3px 0px 3px;vertical-align:bottom;&quot;&gt;CHARACIDAE Colossoma macropomum&lt;/td&gt;&lt;/tr&gt;&lt;tr style=&quot;height:20px;&quot;&gt;&lt;td data-sheets-value=&quot;{&amp;quot;1&amp;quot;:2,&amp;quot;2&amp;quot;:&amp;quot;CHARACIDAE Cynopotamus atratoensis&amp;quot;}&quot; style=&quot;overflow:hidden;padding:0px 3px 0px 3px;vertical-align:bottom;&quot;&gt;CHARACIDAE Cynopotamus atratoensis&lt;/td&gt;&lt;/tr&gt;&lt;tr style=&quot;height:20px;&quot;&gt;&lt;td data-sheets-value=&quot;{&amp;quot;1&amp;quot;:2,&amp;quot;2&amp;quot;:&amp;quot;CHARACIDAE Cynopotamus magdalenae&amp;quot;}&quot; style=&quot;overflow:hidden;padding:0px 3px 0px 3px;vertical-align:bottom;&quot;&gt;CHARACIDAE Cynopotamus magdalenae&lt;/td&gt;&lt;/tr&gt;&lt;tr style=&quot;height:20px;&quot;&gt;&lt;td data-sheets-value=&quot;{&amp;quot;1&amp;quot;:2,&amp;quot;2&amp;quot;:&amp;quot;CHARACIDAE Myloplus rubripinnis&amp;quot;}&quot; style=&quot;overflow:hidden;padding:0px 3px 0px 3px;vertical-align:bottom;&quot;&gt;CHARACIDAE Myloplus rubripinnis&lt;/td&gt;&lt;/tr&gt;&lt;tr style=&quot;height:20px;&quot;&gt;&lt;td data-sheets-value=&quot;{&amp;quot;1&amp;quot;:2,&amp;quot;2&amp;quot;:&amp;quot;CHARACIDAE Mylossoma duriventre&amp;quot;}&quot; style=&quot;overflow:hidden;padding:0px 3px 0px 3px;vertical-align:bottom;&quot;&gt;CHARACIDAE Mylossoma duriventre&lt;/td&gt;&lt;/tr&gt;&lt;tr style=&quot;height:20px;&quot;&gt;&lt;td data-sheets-value=&quot;{&amp;quot;1&amp;quot;:2,&amp;quot;2&amp;quot;:&amp;quot;CHARACIDAE Piaractus brachypomum&amp;quot;}&quot; style=&quot;overflow:hidden;padding:0px 3px 0px 3px;vertical-align:bottom;&quot;&gt;CHARACIDAE Piaractus brachypomum&lt;/td&gt;&lt;/tr&gt;&lt;tr style=&quot;height:20px;&quot;&gt;&lt;td data-sheets-value=&quot;{&amp;quot;1&amp;quot;:2,&amp;quot;2&amp;quot;:&amp;quot;CHARACIDAE Pygocentrus cariba&amp;quot;}&quot; style=&quot;overflow:hidden;padding:0px 3px 0px 3px;vertical-align:bottom;&quot;&gt;CHARACIDAE Pygocentrus cariba&lt;/td&gt;&lt;/tr&gt;&lt;tr style=&quot;height:20px;&quot;&gt;&lt;td data-sheets-value=&quot;{&amp;quot;1&amp;quot;:2,&amp;quot;2&amp;quot;:&amp;quot;CHARACIDAE Pygocentrus nattereri&amp;quot;}&quot; style=&quot;overflow:hidden;padding:0px 3px 0px 3px;vertical-align:bottom;&quot;&gt;CHARACIDAE Pygocentrus nattereri&lt;/td&gt;&lt;/tr&gt;&lt;tr style=&quot;height:20px;&quot;&gt;&lt;td data-sheets-value=&quot;{&amp;quot;1&amp;quot;:2,&amp;quot;2&amp;quot;:&amp;quot;CHARACIDAE Salminus affinis&amp;quot;}&quot; style=&quot;overflow:hidden;padding:0px 3px 0px 3px;vertical-align:bottom;&quot;&gt;CHARACIDAE Salminus affinis&lt;/td&gt;&lt;/tr&gt;&lt;tr style=&quot;height:20px;&quot;&gt;&lt;td data-sheets-value=&quot;{&amp;quot;1&amp;quot;:2,&amp;quot;2&amp;quot;:&amp;quot;CHARACIDAE Salminus hilarii&amp;quot;}&quot; style=&quot;overflow:hidden;padding:0px 3px 0px 3px;vertical-align:bottom;&quot;&gt;CHARACIDAE Salminus hilarii&lt;/td&gt;&lt;/tr&gt;&lt;tr style=&quot;height:20px;&quot;&gt;&lt;td data-sheets-value=&quot;{&amp;quot;1&amp;quot;:2,&amp;quot;2&amp;quot;:&amp;quot;CHARACIDAE Serrasalmus rhombeus&amp;quot;}&quot; style=&quot;overflow:hidden;padding:0px 3px 0px 3px;vertical-align:bottom;&quot;&gt;CHARACIDAE Serrasalmus rhombeus&lt;/td&gt;&lt;/tr&gt;&lt;tr style=&quot;height:20px;&quot;&gt;&lt;td data-sheets-value=&quot;{&amp;quot;1&amp;quot;:2,&amp;quot;2&amp;quot;:&amp;quot;CHARACIDAE Triportheus angulatus&amp;quot;}&quot; style=&quot;overflow:hidden;padding:0px 3px 0px 3px;vertical-align:bottom;&quot;&gt;CHARACIDAE Triportheus angulatus&lt;/td&gt;&lt;/tr&gt;&lt;tr style=&quot;height:20px;&quot;&gt;&lt;td data-sheets-value=&quot;{&amp;quot;1&amp;quot;:2,&amp;quot;2&amp;quot;:&amp;quot;CHARACIDAE Triportheus magdalenae&amp;quot;}&quot; style=&quot;overflow:hidden;padding:0px 3px 0px 3px;vertical-align:bottom;&quot;&gt;CHARACIDAE Triportheus magdalenae&lt;/td&gt;&lt;/tr&gt;&lt;tr style=&quot;height:20px;&quot;&gt;&lt;td data-sheets-value=&quot;{&amp;quot;1&amp;quot;:2,&amp;quot;2&amp;quot;:&amp;quot;CHARACIDAE Curimata mivartii&amp;quot;}&quot; style=&quot;overflow:hidden;padding:0px 3px 0px 3px;vertical-align:bottom;font-size:11pt;&quot;&gt;CHARACIDAE Curimata mivartii&lt;/td&gt;&lt;/tr&gt;&lt;tr style=&quot;height:20px;&quot;&gt;&lt;td data-sheets-value=&quot;{&amp;quot;1&amp;quot;:2,&amp;quot;2&amp;quot;:&amp;quot;CURIMATIDAE Curimata vittata&amp;quot;}&quot; style=&quot;overflow:hidden;padding:0px 3px 0px 3px;vertical-align:bottom;&quot;&gt;CURIMATIDAE Curimata vittata&lt;/td&gt;&lt;/tr&gt;&lt;tr style=&quot;height:20px;&quot;&gt;&lt;td data-sheets-value=&quot;{&amp;quot;1&amp;quot;:2,&amp;quot;2&amp;quot;:&amp;quot;CURIMATIDAE Cyphocharax magdalenae&amp;quot;}&quot; style=&quot;overflow:hidden;padding:0px 3px 0px 3px;vertical-align:bottom;&quot;&gt;CURIMATIDAE Cyphocharax magdalenae&lt;/td&gt;&lt;/tr&gt;&lt;tr style=&quot;height:20px;&quot;&gt;&lt;td data-sheets-value=&quot;{&amp;quot;1&amp;quot;:2,&amp;quot;2&amp;quot;:&amp;quot;CURIMATIDAE Potamorhina altamazonica&amp;quot;}&quot; style=&quot;overflow:hidden;padding:0px 3px 0px 3px;vertical-align:bottom;&quot;&gt;CURIMATIDAE Potamorhina altamazonica&lt;/td&gt;&lt;/tr&gt;&lt;tr style=&quot;height:20px;&quot;&gt;&lt;td data-sheets-value=&quot;{&amp;quot;1&amp;quot;:2,&amp;quot;2&amp;quot;:&amp;quot;CURIMATIDAE Potamorhina latior&amp;quot;}&quot; style=&quot;overflow:hidden;padding:0px 3px 0px 3px;vertical-align:bottom;&quot;&gt;CURIMATIDAE Potamorhina latior&lt;/td&gt;&lt;/tr&gt;&lt;tr style=&quot;height:20px;&quot;&gt;&lt;td data-sheets-value=&quot;{&amp;quot;1&amp;quot;:2,&amp;quot;2&amp;quot;:&amp;quot;CURIMATIDAE Pseudocurimata lineopunctata&amp;quot;}&quot; style=&quot;overflow:hidden;padding:0px 3px 0px 3px;vertical-align:bottom;&quot;&gt;CURIMATIDAE Pseudocurimata lineopunctata&lt;/td&gt;&lt;/tr&gt;&lt;tr style=&quot;height:20px;&quot;&gt;&lt;td data-sheets-value=&quot;{&amp;quot;1&amp;quot;:2,&amp;quot;2&amp;quot;:&amp;quot;CYNODONTIDAE Cynodon gibbus&amp;quot;}&quot; style=&quot;overflow:hidden;padding:0px 3px 0px 3px;vertical-align:bottom;&quot;&gt;CYNODONTIDAE Cynodon gibbus&lt;/td&gt;&lt;/tr&gt;&lt;tr style=&quot;height:20px;&quot;&gt;&lt;td data-sheets-value=&quot;{&amp;quot;1&amp;quot;:2,&amp;quot;2&amp;quot;:&amp;quot;CYNODONTIDAE Hydrolycus armatus&amp;quot;}&quot; style=&quot;overflow:hidden;padding:0px 3px 0px 3px;vertical-align:bottom;&quot;&gt;CYNODONTIDAE Hydrolycus armatus&lt;/td&gt;&lt;/tr&gt;&lt;tr style=&quot;height:20px;&quot;&gt;&lt;td data-sheets-value=&quot;{&amp;quot;1&amp;quot;:2,&amp;quot;2&amp;quot;:&amp;quot;CYNODONTIDAE Hydrolycus scomberoides&amp;quot;}&quot; style=&quot;overflow:hidden;padding:0px 3px 0px 3px;vertical-align:bottom;&quot;&gt;CYNODONTIDAE Hydrolycus scomberoides&lt;/td&gt;&lt;/tr&gt;&lt;tr style=&quot;height:20px;&quot;&gt;&lt;td data-sheets-value=&quot;{&amp;quot;1&amp;quot;:2,&amp;quot;2&amp;quot;:&amp;quot;CYNODONTIDAE Rhaphiodon vulpinus&amp;quot;}&quot; style=&quot;overflow:hidden;padding:0px 3px 0px 3px;vertical-align:bottom;&quot;&gt;CYNODONTIDAE Rhaphiodon vulpinus&lt;/td&gt;&lt;/tr&gt;&lt;tr style=&quot;height:20px;&quot;&gt;&lt;td data-sheets-value=&quot;{&amp;quot;1&amp;quot;:2,&amp;quot;2&amp;quot;:&amp;quot;CYNODONTIDAE Hoplerythrinus unitaeniatus&amp;quot;}&quot; style=&quot;overflow:hidden;padding:0px 3px 0px 3px;vertical-align:bottom;&quot;&gt;CYNODONTIDAE Hoplerythrinus unitaeniatus&lt;/td&gt;&lt;/tr&gt;&lt;tr style=&quot;height:20px;&quot;&gt;&lt;td data-sheets-value=&quot;{&amp;quot;1&amp;quot;:2,&amp;quot;2&amp;quot;:&amp;quot;ERYTHRINIDAE Hoplias malabaricus&amp;quot;}&quot; style=&quot;overflow:hidden;padding:0px 3px 0px 3px;vertical-align:bottom;&quot;&gt;ERYTHRINIDAE Hoplias malabaricus&lt;/td&gt;&lt;/tr&gt;&lt;tr style=&quot;height:20px;&quot;&gt;&lt;td data-sheets-value=&quot;{&amp;quot;1&amp;quot;:2,&amp;quot;2&amp;quot;:&amp;quot;PROCHILODONTIDAE  Ichthyoelephas\nlongirostris&amp;quot;}&quot; style=&quot;overflow:hidden;padding:0px 3px 0px 3px;vertical-align:bottom;&quot;&gt;PROCHILODONTIDAE  Ichthyoelephas&lt;br&gt;longirostris&lt;/td&gt;&lt;/tr&gt;&lt;tr style=&quot;height:20px;&quot;&gt;&lt;td data-sheets-value=&quot;{&amp;quot;1&amp;quot;:2,&amp;quot;2&amp;quot;:&amp;quot;PROCHILODONTIDAE Prochilodus magdalenae&amp;quot;}&quot; style=&quot;overflow:hidden;padding:0px 3px 0px 3px;vertical-align:bottom;&quot;&gt;PROCHILODONTIDAE Prochilodus magdalenae&lt;/td&gt;&lt;/tr&gt;&lt;tr style=&quot;height:20px;&quot;&gt;&lt;td data-sheets-value=&quot;{&amp;quot;1&amp;quot;:2,&amp;quot;2&amp;quot;:&amp;quot;PROCHILODONTIDAE Prochilodus mariae&amp;quot;}&quot; style=&quot;overflow:hidden;padding:0px 3px 0px 3px;vertical-align:bottom;&quot;&gt;PROCHILODONTIDAE Prochilodus mariae&lt;/td&gt;&lt;/tr&gt;&lt;tr style=&quot;height:20px;&quot;&gt;&lt;td data-sheets-value=&quot;{&amp;quot;1&amp;quot;:2,&amp;quot;2&amp;quot;:&amp;quot;PROCHILODONTIDAE Prochilodus nigricans&amp;quot;}&quot; style=&quot;overflow:hidden;padding:0px 3px 0px 3px;vertical-align:bottom;&quot;&gt;PROCHILODONTIDAE Prochilodus nigricans&lt;/td&gt;&lt;/tr&gt;&lt;tr style=&quot;height:20px;&quot;&gt;&lt;td data-sheets-value=&quot;{&amp;quot;1&amp;quot;:2,&amp;quot;2&amp;quot;:&amp;quot;PROCHILODONTIDAE Prochilodus reticulatus&amp;quot;}&quot; style=&quot;overflow:hidden;padding:0px 3px 0px 3px;vertical-align:bottom;&quot;&gt;PROCHILODONTIDAE Prochilodus reticulatus&lt;/td&gt;&lt;/tr&gt;&lt;tr style=&quot;height:20px;&quot;&gt;&lt;td data-sheets-value=&quot;{&amp;quot;1&amp;quot;:2,&amp;quot;2&amp;quot;:&amp;quot;PROCHILODONTIDAE Semaprochilodus kneri&amp;quot;}&quot; style=&quot;overflow:hidden;padding:0px 3px 0px 3px;vertical-align:bottom;&quot;&gt;PROCHILODONTIDAE Semaprochilodus kneri&lt;/td&gt;&lt;/tr&gt;&lt;tr style=&quot;height:20px;&quot;&gt;&lt;td data-sheets-value=&quot;{&amp;quot;1&amp;quot;:2,&amp;quot;2&amp;quot;:&amp;quot;PROCHILODONTIDAE Semaprochilodus laticeps&amp;quot;}&quot; style=&quot;overflow:hidden;padding:0px 3px 0px 3px;vertical-align:bottom;&quot;&gt;PROCHILODONTIDAE Semaprochilodus laticeps&lt;/td&gt;&lt;/tr&gt;&lt;tr style=&quot;height:20px;&quot;&gt;&lt;td data-sheets-value=&quot;{&amp;quot;1&amp;quot;:2,&amp;quot;2&amp;quot;:&amp;quot;ARIIDAE Ariopsis seemanni&amp;quot;}&quot; style=&quot;overflow:hidden;padding:0px 3px 0px 3px;vertical-align:bottom;&quot;&gt;ARIIDAE Ariopsis seemanni&lt;/td&gt;&lt;/tr&gt;&lt;tr style=&quot;height:20px;&quot;&gt;&lt;td data-sheets-value=&quot;{&amp;quot;1&amp;quot;:2,&amp;quot;2&amp;quot;:&amp;quot;ARIIDAE Cathorops mapale&amp;quot;}&quot; style=&quot;overflow:hidden;padding:0px 3px 0px 3px;vertical-align:bottom;&quot;&gt;ARIIDAE Cathorops mapale&lt;/td&gt;&lt;/tr&gt;&lt;tr style=&quot;height:20px;&quot;&gt;&lt;td data-sheets-value=&quot;{&amp;quot;1&amp;quot;:2,&amp;quot;2&amp;quot;:&amp;quot;ARIIDAE Notarius bonillai&amp;quot;}&quot; style=&quot;overflow:hidden;padding:0px 3px 0px 3px;vertical-align:bottom;&quot;&gt;ARIIDAE Notarius bonillai&lt;/td&gt;&lt;/tr&gt;&lt;tr style=&quot;height:20px;&quot;&gt;&lt;td data-sheets-value=&quot;{&amp;quot;1&amp;quot;:2,&amp;quot;2&amp;quot;:&amp;quot;AUCHENIPTERIDAE Ageneiosus inermis&amp;quot;}&quot; style=&quot;overflow:hidden;padding:0px 3px 0px 3px;vertical-align:bottom;&quot;&gt;AUCHENIPTERIDAE Ageneiosus inermis&lt;/td&gt;&lt;/tr&gt;&lt;tr style=&quot;height:20px;&quot;&gt;&lt;td data-sheets-value=&quot;{&amp;quot;1&amp;quot;:2,&amp;quot;2&amp;quot;:&amp;quot;AUCHENIPTERIDAE Ageneiosus pardalis&amp;quot;}&quot; style=&quot;overflow:hidden;padding:0px 3px 0px 3px;vertical-align:bottom;&quot;&gt;AUCHENIPTERIDAE Ageneiosus pardalis&lt;/td&gt;&lt;/tr&gt;&lt;tr style=&quot;height:20px;&quot;&gt;&lt;td data-sheets-value=&quot;{&amp;quot;1&amp;quot;:2,&amp;quot;2&amp;quot;:&amp;quot;AUCHENIPTERIDAE Trachelyopterus galeatus&amp;quot;}&quot; style=&quot;overflow:hidden;padding:0px 3px 0px 3px;vertical-align:bottom;&quot;&gt;AUCHENIPTERIDAE Trachelyopterus galeatus&lt;/td&gt;&lt;/tr&gt;&lt;tr style=&quot;height:20px;&quot;&gt;&lt;td data-sheets-value=&quot;{&amp;quot;1&amp;quot;:2,&amp;quot;2&amp;quot;:&amp;quot;CALLICHTHYDAE Hoplosternum littorale&amp;quot;}&quot; style=&quot;overflow:hidden;padding:0px 3px 0px 3px;vertical-align:bottom;&quot;&gt;CALLICHTHYDAE Hoplosternum littorale&lt;/td&gt;&lt;/tr&gt;&lt;tr style=&quot;height:20px;&quot;&gt;&lt;td data-sheets-value=&quot;{&amp;quot;1&amp;quot;:2,&amp;quot;2&amp;quot;:&amp;quot;DORADIDAE Megalodoras uranoscopus&amp;quot;}&quot; style=&quot;overflow:hidden;padding:0px 3px 0px 3px;vertical-align:bottom;&quot;&gt;DORADIDAE Megalodoras uranoscopus&lt;/td&gt;&lt;/tr&gt;&lt;tr style=&quot;height:20px;&quot;&gt;&lt;td data-sheets-value=&quot;{&amp;quot;1&amp;quot;:2,&amp;quot;2&amp;quot;:&amp;quot;DORADIDAE Oxydoras niger&amp;quot;}&quot; style=&quot;overflow:hidden;padding:0px 3px 0px 3px;vertical-align:bottom;&quot;&gt;DORADIDAE Oxydoras niger&lt;/td&gt;&lt;/tr&gt;&lt;tr style=&quot;height:20px;&quot;&gt;&lt;td data-sheets-value=&quot;{&amp;quot;1&amp;quot;:2,&amp;quot;2&amp;quot;:&amp;quot;DORADIDAE Pterodoras granulosus&amp;quot;}&quot; style=&quot;overflow:hidden;padding:0px 3px 0px 3px;vertical-align:bottom;&quot;&gt;DORADIDAE Pterodoras granulosus&lt;/td&gt;&lt;/tr&gt;&lt;tr style=&quot;height:20px;&quot;&gt;&lt;td data-sheets-value=&quot;{&amp;quot;1&amp;quot;:2,&amp;quot;2&amp;quot;:&amp;quot;DORADIDAE Pterodoras rivasi&amp;quot;}&quot; style=&quot;overflow:hidden;padding:0px 3px 0px 3px;vertical-align:bottom;&quot;&gt;DORADIDAE Pterodoras rivasi&lt;/td&gt;&lt;/tr&gt;&lt;tr style=&quot;height:20px;&quot;&gt;&lt;td data-sheets-value=&quot;{&amp;quot;1&amp;quot;:2,&amp;quot;2&amp;quot;:&amp;quot;HEPTATERIDAE Rhamdia spp&amp;quot;}&quot; style=&quot;overflow:hidden;padding:0px 3px 0px 3px;vertical-align:bottom;&quot;&gt;HEPTATERIDAE Rhamdia spp&lt;/td&gt;&lt;/tr&gt;&lt;tr style=&quot;height:20px;&quot;&gt;&lt;td data-sheets-value=&quot;{&amp;quot;1&amp;quot;:2,&amp;quot;2&amp;quot;:&amp;quot;LORICARIIDAE Chaetostoma spp (C. fischeri, C. marginatum, C. milesi, C. niveum, C. patiae)\nChaetostoma thomsoni&amp;quot;}&quot; style=&quot;overflow:hidden;padding:0px 3px 0px 3px;vertical-align:bottom;&quot;&gt;LORICARIIDAE Chaetostoma spp (C. fischeri, C. marginatum, C. milesi, C. niveum, C. patiae)&lt;br&gt;Chaetostoma thomsoni&lt;/td&gt;&lt;/tr&gt;&lt;tr style=&quot;height:20px;&quot;&gt;&lt;td data-sheets-value=&quot;{&amp;quot;1&amp;quot;:2,&amp;quot;2&amp;quot;:&amp;quot;LORICARIIDAE Hypostomus spp. (H. plecostomoides, H. plecostomus, H. pyrineusi, H. sculpodon, H. watwata)\nChaetostoma thomsoni&amp;quot;}&quot; style=&quot;overflow:hidden;padding:0px 3px 0px 3px;vertical-align:bottom;&quot;&gt;LORICARIIDAE Hypostomus spp. (H. plecostomoides, H. plecostomus, H. pyrineusi, H. sculpodon, H. watwata)&lt;br&gt;Chaetostoma thomsoni&lt;/td&gt;&lt;/tr&gt;&lt;tr style=&quot;height:20px;&quot;&gt;&lt;td data-sheets-value=&quot;{&amp;quot;1&amp;quot;:2,&amp;quot;2&amp;quot;:&amp;quot;LORICARIIDAE Pterygoplichthys undecimalis&amp;quot;}&quot; style=&quot;overflow:hidden;padding:0px 3px 0px 3px;vertical-align:bottom;&quot;&gt;LORICARIIDAE Pterygoplichthys undecimalis&lt;/td&gt;&lt;/tr&gt;&lt;tr style=&quot;height:20px;&quot;&gt;&lt;td data-sheets-value=&quot;{&amp;quot;1&amp;quot;:2,&amp;quot;2&amp;quot;:&amp;quot;LORICARIIDAE Brachyplatystoma filamentosum&amp;quot;}&quot; style=&quot;overflow:hidden;padding:0px 3px 0px 3px;vertical-align:bottom;&quot;&gt;LORICARIIDAE Brachyplatystoma filamentosum&lt;/td&gt;&lt;/tr&gt;&lt;tr style=&quot;height:20px;&quot;&gt;&lt;td data-sheets-value=&quot;{&amp;quot;1&amp;quot;:2,&amp;quot;2&amp;quot;:&amp;quot;PIMELODIDAE Brachyplatystoma platynemum&amp;quot;}&quot; style=&quot;overflow:hidden;padding:0px 3px 0px 3px;vertical-align:bottom;&quot;&gt;PIMELODIDAE Brachyplatystoma platynemum&lt;/td&gt;&lt;/tr&gt;&lt;tr style=&quot;height:20px;&quot;&gt;&lt;td data-sheets-value=&quot;{&amp;quot;1&amp;quot;:2,&amp;quot;2&amp;quot;:&amp;quot;PIMELODIDAE Brachyplatystoma juruense&amp;quot;}&quot; style=&quot;overflow:hidden;padding:0px 3px 0px 3px;vertical-align:bottom;&quot;&gt;PIMELODIDAE Brachyplatystoma juruense&lt;/td&gt;&lt;/tr&gt;&lt;tr style=&quot;height:20px;&quot;&gt;&lt;td data-sheets-value=&quot;{&amp;quot;1&amp;quot;:2,&amp;quot;2&amp;quot;:&amp;quot;PIMELODIDAE Brachyplatystoma rousseauxi&amp;quot;}&quot; style=&quot;overflow:hidden;padding:0px 3px 0px 3px;vertical-align:bottom;&quot;&gt;PIMELODIDAE Brachyplatystoma rousseauxi&lt;/td&gt;&lt;/tr&gt;&lt;tr style=&quot;height:20px;&quot;&gt;&lt;td data-sheets-value=&quot;{&amp;quot;1&amp;quot;:2,&amp;quot;2&amp;quot;:&amp;quot;PIMELODIDAE Brachyplatystoma tigrinum Camiseto cebra, cebra, siete lÃ­neas (Amazonas, Putumayo, CaquetÃ¡); Brasil: dourada zebra, pimelodela tigre, pimelodela, zebra, gato tigre, gato rayado, bagre tigre&amp;quot;}&quot; style=&quot;border-right:1px solid transparent;overflow:visible;padding:0px 3px 0px 3px;vertical-align:bottom;&quot;&gt;&lt;div style=&quot;overflow: hidden; position: relative; width: 311px; left: 3px;&quot;&gt;&lt;div style=&quot;float:left;&quot;&gt;PIMELODIDAE&lt;br&gt; Brachyplatystoma tigrinum Camiseto cebra, cebra, siete lÃ­neas &lt;br&gt;(Amazonas, Putumayo, CaquetÃ¡); Brasil: dourada zebra, pimelodela tigre, &lt;br&gt;pimelodela, zebra, gato tigre, gato rayado, bagre tigre&lt;/div&gt;&lt;/div&gt;&lt;/td&gt;&lt;/tr&gt;&lt;tr style=&quot;height:20px;&quot;&gt;&lt;td data-sheets-value=&quot;{&amp;quot;1&amp;quot;:2,&amp;quot;2&amp;quot;:&amp;quot;PIMELODIDAE Brachyplatystoma vaillantii&amp;quot;}&quot; style=&quot;overflow:hidden;padding:0px 3px 0px 3px;vertical-align:bottom;&quot;&gt;PIMELODIDAE Brachyplatystoma vaillantii&lt;/td&gt;&lt;/tr&gt;&lt;tr style=&quot;height:20px;&quot;&gt;&lt;td data-sheets-value=&quot;{&amp;quot;1&amp;quot;:2,&amp;quot;2&amp;quot;:&amp;quot;PIMELODIDAE Calophysus macropterus&amp;quot;}&quot; style=&quot;overflow:hidden;padding:0px 3px 0px 3px;vertical-align:bottom;&quot;&gt;PIMELODIDAE Calophysus macropterus&lt;/td&gt;&lt;/tr&gt;&lt;tr style=&quot;height:20px;&quot;&gt;&lt;td data-sheets-value=&quot;{&amp;quot;1&amp;quot;:2,&amp;quot;2&amp;quot;:&amp;quot;PIMELODIDAE Hemisorubim platyrhynchos&amp;quot;}&quot; style=&quot;overflow:hidden;padding:0px 3px 0px 3px;vertical-align:bottom;&quot;&gt;PIMELODIDAE Hemisorubim platyrhynchos&lt;/td&gt;&lt;/tr&gt;&lt;tr style=&quot;height:20px;&quot;&gt;&lt;td data-sheets-value=&quot;{&amp;quot;1&amp;quot;:2,&amp;quot;2&amp;quot;:&amp;quot;PIMELODIDAE Hypophthalmus edentatus&amp;quot;}&quot; style=&quot;overflow:hidden;padding:0px 3px 0px 3px;vertical-align:bottom;&quot;&gt;PIMELODIDAE Hypophthalmus edentatus&lt;/td&gt;&lt;/tr&gt;&lt;tr style=&quot;height:20px;&quot;&gt;&lt;td data-sheets-value=&quot;{&amp;quot;1&amp;quot;:2,&amp;quot;2&amp;quot;:&amp;quot;PIMELODIDAE Leiarius marmoratus&amp;quot;}&quot; style=&quot;overflow:hidden;padding:0px 3px 0px 3px;vertical-align:bottom;&quot;&gt;PIMELODIDAE Leiarius marmoratus&lt;/td&gt;&lt;/tr&gt;&lt;tr style=&quot;height:20px;&quot;&gt;&lt;td data-sheets-value=&quot;{&amp;quot;1&amp;quot;:2,&amp;quot;2&amp;quot;:&amp;quot;PIMELODIDAE Phractocephalus hemiliopterus&amp;quot;}&quot; style=&quot;overflow:hidden;padding:0px 3px 0px 3px;vertical-align:bottom;&quot;&gt;PIMELODIDAE Phractocephalus hemiliopterus&lt;/td&gt;&lt;/tr&gt;&lt;tr style=&quot;height:20px;&quot;&gt;&lt;td data-sheets-value=&quot;{&amp;quot;1&amp;quot;:2,&amp;quot;2&amp;quot;:&amp;quot;PIMELODIDAE Pimelodus blochii (Caribe-)Ãagdalena&amp;quot;}&quot; style=&quot;overflow:hidden;padding:0px 3px 0px 3px;vertical-align:bottom;&quot;&gt;PIMELODIDAE Pimelodus blochii (Caribe-)Ãagdalena&lt;/td&gt;&lt;/tr&gt;&lt;tr style=&quot;height:20px;&quot;&gt;&lt;td data-sheets-value=&quot;{&amp;quot;1&amp;quot;:2,&amp;quot;2&amp;quot;:&amp;quot;PIMELODIDAE Pimelodus blochii (Amazonas)&amp;quot;}&quot; style=&quot;overflow:hidden;padding:0px 3px 0px 3px;vertical-align:bottom;&quot;&gt;PIMELODIDAE Pimelodus blochii (Amazonas)&lt;/td&gt;&lt;/tr&gt;&lt;tr style=&quot;height:20px;&quot;&gt;&lt;td data-sheets-value=&quot;{&amp;quot;1&amp;quot;:2,&amp;quot;2&amp;quot;:&amp;quot;PIMELODIDAE Pimelodus grosskopfii&amp;quot;}&quot; style=&quot;overflow:hidden;padding:0px 3px 0px 3px;vertical-align:bottom;&quot;&gt;PIMELODIDAE Pimelodus grosskopfii&lt;/td&gt;&lt;/tr&gt;&lt;tr style=&quot;height:20px;&quot;&gt;&lt;td data-sheets-value=&quot;{&amp;quot;1&amp;quot;:2,&amp;quot;2&amp;quot;:&amp;quot;PIMELODIDAE Pinirampus pirinampu&amp;quot;}&quot; style=&quot;overflow:hidden;padding:0px 3px 0px 3px;vertical-align:bottom;&quot;&gt;PIMELODIDAE Pinirampus pirinampu&lt;/td&gt;&lt;/tr&gt;&lt;tr style=&quot;height:20px;&quot;&gt;&lt;td data-sheets-value=&quot;{&amp;quot;1&amp;quot;:2,&amp;quot;2&amp;quot;:&amp;quot;PIMELODIDAE Platynematichthys notatus&amp;quot;}&quot; style=&quot;overflow:hidden;padding:0px 3px 0px 3px;vertical-align:bottom;font-weight:bold;&quot;&gt;PIMELODIDAE Platynematichthys notatus&lt;/td&gt;&lt;/tr&gt;&lt;tr style=&quot;height:20px;&quot;&gt;&lt;td data-sheets-value=&quot;{&amp;quot;1&amp;quot;:2,&amp;quot;2&amp;quot;:&amp;quot;PIMELODIDAE Platysilurus mucosus&amp;quot;}&quot; style=&quot;overflow:hidden;padding:0px 3px 0px 3px;vertical-align:bottom;&quot;&gt;PIMELODIDAE Platysilurus mucosus&lt;/td&gt;&lt;/tr&gt;&lt;tr style=&quot;height:20px;&quot;&gt;&lt;td data-sheets-value=&quot;{&amp;quot;1&amp;quot;:2,&amp;quot;2&amp;quot;:&amp;quot;PIMELODIDAE Platystomatichthys sturio&amp;quot;}&quot; style=&quot;overflow:hidden;padding:0px 3px 0px 3px;vertical-align:bottom;&quot;&gt;PIMELODIDAE Platystomatichthys sturio&lt;/td&gt;&lt;/tr&gt;&lt;tr style=&quot;height:20px;&quot;&gt;&lt;td data-sheets-value=&quot;{&amp;quot;1&amp;quot;:2,&amp;quot;2&amp;quot;:&amp;quot;PIMELODIDAE Pseudoplatystoma magdaleniatum&amp;quot;}&quot; style=&quot;overflow:hidden;padding:0px 3px 0px 3px;vertical-align:bottom;&quot;&gt;PIMELODIDAE Pseudoplatystoma magdaleniatum&lt;/td&gt;&lt;/tr&gt;&lt;tr style=&quot;height:20px;&quot;&gt;&lt;td data-sheets-value=&quot;{&amp;quot;1&amp;quot;:2,&amp;quot;2&amp;quot;:&amp;quot;PIMELODIDAE Pseudoplatystoma metaense&amp;quot;}&quot; style=&quot;overflow:hidden;padding:0px 3px 0px 3px;vertical-align:bottom;&quot;&gt;PIMELODIDAE Pseudoplatystoma metaense&lt;/td&gt;&lt;/tr&gt;&lt;tr style=&quot;height:20px;&quot;&gt;&lt;td data-sheets-value=&quot;{&amp;quot;1&amp;quot;:2,&amp;quot;2&amp;quot;:&amp;quot;PIMELODIDAE Pseudoplatystoma orinocoense&amp;quot;}&quot; style=&quot;overflow:hidden;padding:0px 3px 0px 3px;vertical-align:bottom;&quot;&gt;PIMELODIDAE Pseudoplatystoma orinocoense&lt;/td&gt;&lt;/tr&gt;&lt;tr style=&quot;height:20px;&quot;&gt;&lt;td data-sheets-value=&quot;{&amp;quot;1&amp;quot;:2,&amp;quot;2&amp;quot;:&amp;quot;PIMELODIDAE Pseudoplatystoma punctifer&amp;quot;}&quot; style=&quot;overflow:hidden;padding:0px 3px 0px 3px;vertical-align:bottom;&quot;&gt;PIMELODIDAE Pseudoplatystoma punctifer&lt;/td&gt;&lt;/tr&gt;&lt;tr style=&quot;height:20px;&quot;&gt;&lt;td data-sheets-value=&quot;{&amp;quot;1&amp;quot;:2,&amp;quot;2&amp;quot;:&amp;quot;PIMELODIDAE Pseudoplatystoma tigrinum&amp;quot;}&quot; style=&quot;overflow:hidden;padding:0px 3px 0px 3px;vertical-align:bottom;&quot;&gt;PIMELODIDAE Pseudoplatystoma tigrinum&lt;/td&gt;&lt;/tr&gt;&lt;tr style=&quot;height:20px;&quot;&gt;&lt;td data-sheets-value=&quot;{&amp;quot;1&amp;quot;:2,&amp;quot;2&amp;quot;:&amp;quot;PIMELODIDAE Sorubim cuspicaudus&amp;quot;}&quot; style=&quot;overflow:hidden;padding:0px 3px 0px 3px;vertical-align:bottom;&quot;&gt;PIMELODIDAE Sorubim cuspicaudus&lt;/td&gt;&lt;/tr&gt;&lt;tr style=&quot;height:20px;&quot;&gt;&lt;td data-sheets-value=&quot;{&amp;quot;1&amp;quot;:2,&amp;quot;2&amp;quot;:&amp;quot;PIMELODIDAE Sorubim lima&amp;quot;}&quot; style=&quot;overflow:hidden;padding:0px 3px 0px 3px;vertical-align:bottom;&quot;&gt;PIMELODIDAE Sorubim lima&lt;/td&gt;&lt;/tr&gt;&lt;tr style=&quot;height:20px;&quot;&gt;&lt;td data-sheets-value=&quot;{&amp;quot;1&amp;quot;:2,&amp;quot;2&amp;quot;:&amp;quot;PIMELODIDAE Sorubimichthys planiceps&amp;quot;}&quot; style=&quot;overflow:hidden;padding:0px 3px 0px 3px;vertical-align:bottom;&quot;&gt;PIMELODIDAE Sorubimichthys planiceps&lt;/td&gt;&lt;/tr&gt;&lt;tr style=&quot;height:20px;&quot;&gt;&lt;td data-sheets-value=&quot;{&amp;quot;1&amp;quot;:2,&amp;quot;2&amp;quot;:&amp;quot;PIMELODIDAE Zungaro zungaro&amp;quot;}&quot; style=&quot;overflow:hidden;padding:0px 3px 0px 3px;vertical-align:bottom;&quot;&gt;PIMELODIDAE Zungaro zungaro&lt;/td&gt;&lt;/tr&gt;&lt;tr style=&quot;height:20px;&quot;&gt;&lt;td data-sheets-value=&quot;{&amp;quot;1&amp;quot;:2,&amp;quot;2&amp;quot;:&amp;quot;PSEUDOPIMELODIDAE Batrochoglanis transmontanus&amp;quot;}&quot; style=&quot;overflow:hidden;padding:0px 3px 0px 3px;vertical-align:bottom;&quot;&gt;PSEUDOPIMELODIDAE Batrochoglanis transmontanus&lt;/td&gt;&lt;/tr&gt;&lt;tr style=&quot;height:20px;&quot;&gt;&lt;td data-sheets-value=&quot;{&amp;quot;1&amp;quot;:2,&amp;quot;2&amp;quot;:&amp;quot;PSEUDOPIMELODIDAE Pseudopimelodus cf. bufonius&amp;quot;}&quot; style=&quot;overflow:hidden;padding:0px 3px 0px 3px;vertical-align:bottom;&quot;&gt;PSEUDOPIMELODIDAE Pseudopimelodus cf. bufonius&lt;/td&gt;&lt;/tr&gt;&lt;tr style=&quot;height:20px;&quot;&gt;&lt;td data-sheets-value=&quot;{&amp;quot;1&amp;quot;:2,&amp;quot;2&amp;quot;:&amp;quot;PSEUDOPIMELODIDAE Pseudopimelodus schultzi&amp;quot;}&quot; style=&quot;overflow:hidden;padding:0px 3px 0px 3px;vertical-align:bottom;&quot;&gt;PSEUDOPIMELODIDAE Pseudopimelodus schultzi&lt;/td&gt;&lt;/tr&gt;&lt;tr style=&quot;height:20px;&quot;&gt;&lt;td data-sheets-value=&quot;{&amp;quot;1&amp;quot;:2,&amp;quot;2&amp;quot;:&amp;quot;TRICHOMYCTERIDAE Eremophilus mutisii CapitÃ¡n, capitÃ¡n de la sabana, chimbe&amp;quot;}&quot; style=&quot;border-right:1px solid transparent;overflow:visible;padding:0px 3px 0px 3px;vertical-align:bottom;&quot;&gt;&lt;div style=&quot;overflow: hidden; position: relative; width: 311px; left: 3px;&quot;&gt;&lt;div style=&quot;float:left;&quot;&gt;TRICHOMYCTERIDAE Eremophilus mutisii CapitÃ¡n, capitÃ¡n de la sabana, chimbe&lt;/div&gt;&lt;/div&gt;&lt;/td&gt;&lt;/tr&gt;&lt;tr style=&quot;height:20px;&quot;&gt;&lt;td data-sheets-value=&quot;{&amp;quot;1&amp;quot;:2,&amp;quot;2&amp;quot;:&amp;quot;GYMNOTIDAE Gymnotus henni&amp;quot;}&quot; style=&quot;overflow:hidden;padding:0px 3px 0px 3px;vertical-align:bottom;&quot;&gt;GYMNOTIDAE Gymnotus henni&lt;/td&gt;&lt;/tr&gt;&lt;tr style=&quot;height:20px;&quot;&gt;&lt;td data-sheets-value=&quot;{&amp;quot;1&amp;quot;:2,&amp;quot;2&amp;quot;:&amp;quot;STERNOPYGIDAE Sternopygus aequilabiatus&amp;quot;}&quot; style=&quot;overflow:hidden;padding:0px 3px 0px 3px;vertical-align:bottom;&quot;&gt;STERNOPYGIDAE Sternopygus aequilabiatus&lt;/td&gt;&lt;/tr&gt;&lt;tr style=&quot;height:20px;&quot;&gt;&lt;td data-sheets-value=&quot;{&amp;quot;1&amp;quot;:2,&amp;quot;2&amp;quot;:&amp;quot;STERNOPYGIDAE Sternopygus aequilabiatus&amp;quot;}&quot; style=&quot;overflow:hidden;padding:0px 3px 0px 3px;vertical-align:bottom;&quot;&gt;STERNOPYGIDAE Sternopygus aequilabiatus&lt;/td&gt;&lt;/tr&gt;&lt;tr style=&quot;height:20px;&quot;&gt;&lt;td data-sheets-value=&quot;{&amp;quot;1&amp;quot;:2,&amp;quot;2&amp;quot;:&amp;quot;MUGILIDAE Agonostomus monticola&amp;quot;}&quot; style=&quot;overflow:hidden;padding:0px 3px 0px 3px;vertical-align:bottom;&quot;&gt;MUGILIDAE Agonostomus monticola&lt;/td&gt;&lt;/tr&gt;&lt;tr style=&quot;height:20px;&quot;&gt;&lt;td data-sheets-value=&quot;{&amp;quot;1&amp;quot;:2,&amp;quot;2&amp;quot;:&amp;quot;MUGILIDAE Joturus pichardi&amp;quot;}&quot; style=&quot;overflow:hidden;padding:0px 3px 0px 3px;vertical-align:bottom;&quot;&gt;MUGILIDAE Joturus pichardi&lt;/td&gt;&lt;/tr&gt;&lt;tr style=&quot;height:20px;&quot;&gt;&lt;td data-sheets-value=&quot;{&amp;quot;1&amp;quot;:2,&amp;quot;2&amp;quot;:&amp;quot;MUGILIDAE Mugil cephalus&amp;quot;}&quot; style=&quot;overflow:hidden;padding:0px 3px 0px 3px;vertical-align:bottom;&quot;&gt;MUGILIDAE Mugil cephalus&lt;/td&gt;&lt;/tr&gt;&lt;tr style=&quot;height:20px;&quot;&gt;&lt;td data-sheets-value=&quot;{&amp;quot;1&amp;quot;:2,&amp;quot;2&amp;quot;:&amp;quot;MUGILIDAE Mugil curema&amp;quot;}&quot; style=&quot;overflow:hidden;padding:0px 3px 0px 3px;vertical-align:bottom;&quot;&gt;MUGILIDAE Mugil curema&lt;/td&gt;&lt;/tr&gt;&lt;tr style=&quot;height:20px;&quot;&gt;&lt;td data-sheets-value=&quot;{&amp;quot;1&amp;quot;:2,&amp;quot;2&amp;quot;:&amp;quot;MUGILIDAE Mugil incilis&amp;quot;}&quot; style=&quot;overflow:hidden;padding:0px 3px 0px 3px;vertical-align:bottom;&quot;&gt;MUGILIDAE Mugil incilis&lt;/td&gt;&lt;/tr&gt;&lt;tr style=&quot;height:20px;&quot;&gt;&lt;td data-sheets-value=&quot;{&amp;quot;1&amp;quot;:2,&amp;quot;2&amp;quot;:&amp;quot;CENTROPOMIDAE Centropomus armatus&amp;quot;}&quot; style=&quot;overflow:hidden;padding:0px 3px 0px 3px;vertical-align:bottom;&quot;&gt;CENTROPOMIDAE Centropomus armatus&lt;/td&gt;&lt;/tr&gt;&lt;tr style=&quot;height:20px;&quot;&gt;&lt;td data-sheets-value=&quot;{&amp;quot;1&amp;quot;:2,&amp;quot;2&amp;quot;:&amp;quot;CENTROPOMIDAE Centropomus nigrescens&amp;quot;}&quot; style=&quot;overflow:hidden;padding:0px 3px 0px 3px;vertical-align:bottom;&quot;&gt;CENTROPOMIDAE Centropomus nigrescens&lt;/td&gt;&lt;/tr&gt;&lt;tr style=&quot;height:20px;&quot;&gt;&lt;td data-sheets-value=&quot;{&amp;quot;1&amp;quot;:2,&amp;quot;2&amp;quot;:&amp;quot;CENTROPOMIDAE Centropomus undecimalis&amp;quot;}&quot; style=&quot;overflow:hidden;padding:0px 3px 0px 3px;vertical-align:bottom;&quot;&gt;CENTROPOMIDAE Centropomus undecimalis&lt;/td&gt;&lt;/tr&gt;&lt;tr style=&quot;height:20px;&quot;&gt;&lt;td data-sheets-value=&quot;{&amp;quot;1&amp;quot;:2,&amp;quot;2&amp;quot;:&amp;quot;CENTROPOMIDAE Centropomus unionensis&amp;quot;}&quot; style=&quot;overflow:hidden;padding:0px 3px 0px 3px;vertical-align:bottom;&quot;&gt;CENTROPOMIDAE Centropomus unionensis&lt;/td&gt;&lt;/tr&gt;&lt;tr style=&quot;height:20px;&quot;&gt;&lt;td data-sheets-value=&quot;{&amp;quot;1&amp;quot;:2,&amp;quot;2&amp;quot;:&amp;quot;CENTROPOMIDAE Centropomus viridis&amp;quot;}&quot; style=&quot;overflow:hidden;padding:0px 3px 0px 3px;vertical-align:bottom;&quot;&gt;CENTROPOMIDAE Centropomus viridis&lt;/td&gt;&lt;/tr&gt;&lt;tr style=&quot;height:20px;&quot;&gt;&lt;td data-sheets-value=&quot;{&amp;quot;1&amp;quot;:2,&amp;quot;2&amp;quot;:&amp;quot;CICHLIDAE Aequidens metae&amp;quot;}&quot; style=&quot;overflow:hidden;padding:0px 3px 0px 3px;vertical-align:bottom;&quot;&gt;CICHLIDAE Aequidens metae&lt;/td&gt;&lt;/tr&gt;&lt;tr style=&quot;height:20px;&quot;&gt;&lt;td data-sheets-value=&quot;{&amp;quot;1&amp;quot;:2,&amp;quot;2&amp;quot;:&amp;quot;CICHLIDAE Astronotus spp&amp;quot;}&quot; style=&quot;overflow:hidden;padding:0px 3px 0px 3px;vertical-align:bottom;&quot;&gt;CICHLIDAE Astronotus spp&lt;/td&gt;&lt;/tr&gt;&lt;tr style=&quot;height:20px;&quot;&gt;&lt;td data-sheets-value=&quot;{&amp;quot;1&amp;quot;:2,&amp;quot;2&amp;quot;:&amp;quot;CICHLIDAE Biotodoma spp (Biotodoma cupido, Biotodoma wavrini)&amp;quot;}&quot; style=&quot;overflow:hidden;padding:0px 3px 0px 3px;vertical-align:bottom;&quot;&gt;CICHLIDAE Biotodoma spp (Biotodoma cupido, Biotodoma wavrini)&lt;/td&gt;&lt;/tr&gt;&lt;tr style=&quot;height:20px;&quot;&gt;&lt;td data-sheets-value=&quot;{&amp;quot;1&amp;quot;:2,&amp;quot;2&amp;quot;:&amp;quot;CICHLIDAE Bujurquina mariae&amp;quot;}&quot; style=&quot;overflow:hidden;padding:0px 3px 0px 3px;vertical-align:bottom;&quot;&gt;CICHLIDAE Bujurquina mariae&lt;/td&gt;&lt;/tr&gt;&lt;tr style=&quot;height:20px;&quot;&gt;&lt;td data-sheets-value=&quot;{&amp;quot;1&amp;quot;:2,&amp;quot;2&amp;quot;:&amp;quot;CICHLIDAE Caquetaia kraussii&amp;quot;}&quot; style=&quot;overflow:hidden;padding:0px 3px 0px 3px;vertical-align:bottom;&quot;&gt;CICHLIDAE Caquetaia kraussii&lt;/td&gt;&lt;/tr&gt;&lt;tr style=&quot;height:20px;&quot;&gt;&lt;td data-sheets-value=&quot;{&amp;quot;1&amp;quot;:2,&amp;quot;2&amp;quot;:&amp;quot;CICHLIDAE Caquetaia umbrifera&amp;quot;}&quot; style=&quot;overflow:hidden;padding:0px 3px 0px 3px;vertical-align:bottom;&quot;&gt;CICHLIDAE Caquetaia umbrifera&lt;/td&gt;&lt;/tr&gt;&lt;tr style=&quot;height:20px;&quot;&gt;&lt;td data-sheets-value=&quot;{&amp;quot;1&amp;quot;:2,&amp;quot;2&amp;quot;:&amp;quot;CICHLIDAE Cochla monoculus&amp;quot;}&quot; style=&quot;overflow:hidden;padding:0px 3px 0px 3px;vertical-align:bottom;&quot;&gt;CICHLIDAE Cochla monoculus&lt;/td&gt;&lt;/tr&gt;&lt;tr style=&quot;height:20px;&quot;&gt;&lt;td data-sheets-value=&quot;{&amp;quot;1&amp;quot;:2,&amp;quot;2&amp;quot;:&amp;quot;CICHLIDAE Cichla orinocensis&amp;quot;}&quot; style=&quot;overflow:hidden;padding:0px 3px 0px 3px;vertical-align:bottom;&quot;&gt;CICHLIDAE Cichla orinocensis&lt;/td&gt;&lt;/tr&gt;&lt;tr style=&quot;height:20px;&quot;&gt;&lt;td data-sheets-value=&quot;{&amp;quot;1&amp;quot;:2,&amp;quot;2&amp;quot;:&amp;quot;CICHLIDAE Cichla temensis&amp;quot;}&quot; style=&quot;overflow:hidden;padding:0px 3px 0px 3px;vertical-align:bottom;&quot;&gt;CICHLIDAE Cichla temensis&lt;/td&gt;&lt;/tr&gt;&lt;tr style=&quot;height:20px;&quot;&gt;&lt;td data-sheets-value=&quot;{&amp;quot;1&amp;quot;:2,&amp;quot;2&amp;quot;:&amp;quot;CICHLIDAE Cichlasoma atromaculatum&amp;quot;}&quot; style=&quot;overflow:hidden;padding:0px 3px 0px 3px;vertical-align:bottom;&quot;&gt;CICHLIDAE Cichlasoma atromaculatum&lt;/td&gt;&lt;/tr&gt;&lt;tr style=&quot;height:20px;&quot;&gt;&lt;td data-sheets-value=&quot;{&amp;quot;1&amp;quot;:2,&amp;quot;2&amp;quot;:&amp;quot;CICHLIDAE Cichlasoma ornatum&amp;quot;}&quot; style=&quot;overflow:hidden;padding:0px 3px 0px 3px;vertical-align:bottom;&quot;&gt;CICHLIDAE Cichlasoma ornatum&lt;/td&gt;&lt;/tr&gt;&lt;tr style=&quot;height:20px;&quot;&gt;&lt;td data-sheets-value=&quot;{&amp;quot;1&amp;quot;:2,&amp;quot;2&amp;quot;:&amp;quot;CICHLIDAE Crenicichla anthurus, Crenicichla lenticulata, Crenicichla lenticulata&amp;quot;}&quot; style=&quot;overflow:hidden;padding:0px 3px 0px 3px;vertical-align:bottom;&quot;&gt;CICHLIDAE Crenicichla anthurus, Crenicichla lenticulata, Crenicichla lenticulata&lt;/td&gt;&lt;/tr&gt;&lt;tr style=&quot;height:20px;&quot;&gt;&lt;td data-sheets-value=&quot;{&amp;quot;1&amp;quot;:2,&amp;quot;2&amp;quot;:&amp;quot;CICHLIDAE Satanoperca spp (S. daemon, S. jurupari)&amp;quot;}&quot; style=&quot;overflow:hidden;padding:0px 3px 0px 3px;vertical-align:bottom;&quot;&gt;CICHLIDAE Satanoperca spp (S. daemon, S. jurupari)&lt;/td&gt;&lt;/tr&gt;&lt;tr style=&quot;height:20px;&quot;&gt;&lt;td data-sheets-value=&quot;{&amp;quot;1&amp;quot;:2,&amp;quot;2&amp;quot;:&amp;quot;ELEOTRIDAE Gobiomorus maculatus&amp;quot;}&quot; style=&quot;overflow:hidden;padding:0px 3px 0px 3px;vertical-align:bottom;&quot;&gt;ELEOTRIDAE Gobiomorus maculatus&lt;/td&gt;&lt;/tr&gt;&lt;tr style=&quot;height:20px;&quot;&gt;&lt;td data-sheets-value=&quot;{&amp;quot;1&amp;quot;:2,&amp;quot;2&amp;quot;:&amp;quot;GERREIDAE Eugerres plumieri&amp;quot;}&quot; style=&quot;overflow:hidden;padding:0px 3px 0px 3px;vertical-align:bottom;&quot;&gt;GERREIDAE Eugerres plumieri&lt;/td&gt;&lt;/tr&gt;&lt;tr style=&quot;height:20px;&quot;&gt;&lt;td data-sheets-value=&quot;{&amp;quot;1&amp;quot;:2,&amp;quot;2&amp;quot;:&amp;quot;GOBIIDAE Awaous banana&amp;quot;}&quot; style=&quot;overflow:hidden;padding:0px 3px 0px 3px;vertical-align:bottom;&quot;&gt;GOBIIDAE Awaous banana&lt;/td&gt;&lt;/tr&gt;&lt;tr style=&quot;height:20px;&quot;&gt;&lt;td data-sheets-value=&quot;{&amp;quot;1&amp;quot;:2,&amp;quot;2&amp;quot;:&amp;quot;GOBIIDAE Sicydium hildebrandi&amp;quot;}&quot; style=&quot;overflow:hidden;padding:0px 3px 0px 3px;vertical-align:bottom;&quot;&gt;GOBIIDAE Sicydium hildebrandi&lt;/td&gt;&lt;/tr&gt;&lt;tr style=&quot;height:20px;&quot;&gt;&lt;td data-sheets-value=&quot;{&amp;quot;1&amp;quot;:2,&amp;quot;2&amp;quot;:&amp;quot;GOBIIDAE Sycidium plumieri&amp;quot;}&quot; style=&quot;overflow:hidden;padding:0px 3px 0px 3px;vertical-align:bottom;&quot;&gt;GOBIIDAE Sycidium plumieri&lt;/td&gt;&lt;/tr&gt;&lt;tr style=&quot;height:20px;&quot;&gt;&lt;td data-sheets-value=&quot;{&amp;quot;1&amp;quot;:2,&amp;quot;2&amp;quot;:&amp;quot;GOBIIDAE Sicydium salvini&amp;quot;}&quot; style=&quot;overflow:hidden;padding:0px 3px 0px 3px;vertical-align:bottom;&quot;&gt;GOBIIDAE Sicydium salvini&lt;/td&gt;&lt;/tr&gt;&lt;tr style=&quot;height:20px;&quot;&gt;&lt;td data-sheets-value=&quot;{&amp;quot;1&amp;quot;:2,&amp;quot;2&amp;quot;:&amp;quot;HAEMULIDAE Pomadasys bayanus&amp;quot;}&quot; style=&quot;overflow:hidden;padding:0px 3px 0px 3px;vertical-align:bottom;&quot;&gt;HAEMULIDAE Pomadasys bayanus&lt;/td&gt;&lt;/tr&gt;&lt;tr style=&quot;height:20px;&quot;&gt;&lt;td data-sheets-value=&quot;{&amp;quot;1&amp;quot;:2,&amp;quot;2&amp;quot;:&amp;quot;HAEMULIDAE Pomadasys crocro&amp;quot;}&quot; style=&quot;overflow:hidden;padding:0px 3px 0px 3px;vertical-align:bottom;&quot;&gt;HAEMULIDAE Pomadasys crocro&lt;/td&gt;&lt;/tr&gt;&lt;tr style=&quot;height:20px;&quot;&gt;&lt;td data-sheets-value=&quot;{&amp;quot;1&amp;quot;:2,&amp;quot;2&amp;quot;:&amp;quot;LUTJANIDAE Lutjanus argentiventris&amp;quot;}&quot; style=&quot;overflow:hidden;padding:0px 3px 0px 3px;vertical-align:bottom;&quot;&gt;LUTJANIDAE Lutjanus argentiventris&lt;/td&gt;&lt;/tr&gt;&lt;tr style=&quot;height:20px;&quot;&gt;&lt;td data-sheets-value=&quot;{&amp;quot;1&amp;quot;:2,&amp;quot;2&amp;quot;:&amp;quot;LUTJANIDAE Lutjanus griseus&amp;quot;}&quot; style=&quot;overflow:hidden;padding:0px 3px 0px 3px;vertical-align:bottom;&quot;&gt;LUTJANIDAE Lutjanus griseus&lt;/td&gt;&lt;/tr&gt;&lt;tr style=&quot;height:20px;&quot;&gt;&lt;td data-sheets-value=&quot;{&amp;quot;1&amp;quot;:2,&amp;quot;2&amp;quot;:&amp;quot;SCIAENIDAE Plagioscion magdalenae&amp;quot;}&quot; style=&quot;overflow:hidden;padding:0px 3px 0px 3px;vertical-align:bottom;&quot;&gt;SCIAENIDAE Plagioscion magdalenae&lt;/td&gt;&lt;/tr&gt;&lt;tr style=&quot;height:20px;&quot;&gt;&lt;td data-sheets-value=&quot;{&amp;quot;1&amp;quot;:2,&amp;quot;2&amp;quot;:&amp;quot;SCIAENIDAE Plagioscion squamosissimus&amp;quot;}&quot; style=&quot;overflow:hidden;padding:0px 3px 0px 3px;vertical-align:bottom;&quot;&gt;SCIAENIDAE Plagioscion squamosissimus&lt;/td&gt;&lt;/tr&gt;&lt;/tbody&gt;&lt;/table&gt;" style="text;strokeColor=none;fillColor=none;align=left;verticalAlign=top;spacingLeft=4;spacingRight=4;overflow=hidden;rotatable=0;points=[[0,0.5],[1,0.5]];portConstraint=eastwest;whiteSpace=wrap;html=1;" parent="bnmCyNIr4KmW2nt2IgBb-41" vertex="1">
          <mxGeometry y="60" width="120" height="140" as="geometry" />
        </mxCell>
        <mxCell id="bnmCyNIr4KmW2nt2IgBb-45" value="CultivatedSpecies" style="swimlane;fontStyle=1;align=center;verticalAlign=top;childLayout=stackLayout;horizontal=1;startSize=26;horizontalStack=0;resizeParent=1;resizeParentMax=0;resizeLast=0;collapsible=1;marginBottom=0;whiteSpace=wrap;html=1;" parent="1" vertex="1">
          <mxGeometry x="1540" y="239" width="120" height="200" as="geometry" />
        </mxCell>
        <mxCell id="bnmCyNIr4KmW2nt2IgBb-46" value="+cultivatedOK:bool" style="text;strokeColor=none;fillColor=none;align=left;verticalAlign=top;spacingLeft=4;spacingRight=4;overflow=hidden;rotatable=0;points=[[0,0.5],[1,0.5]];portConstraint=eastwest;whiteSpace=wrap;html=1;" parent="bnmCyNIr4KmW2nt2IgBb-45" vertex="1">
          <mxGeometry y="26" width="120" height="34" as="geometry" />
        </mxCell>
        <mxCell id="bnmCyNIr4KmW2nt2IgBb-47" value="" style="line;strokeWidth=1;fillColor=none;align=left;verticalAlign=middle;spacingTop=-1;spacingLeft=3;spacingRight=3;rotatable=0;labelPosition=right;points=[];portConstraint=eastwest;strokeColor=inherit;" parent="bnmCyNIr4KmW2nt2IgBb-45" vertex="1">
          <mxGeometry y="60" width="120" height="8" as="geometry" />
        </mxCell>
        <mxCell id="bnmCyNIr4KmW2nt2IgBb-48" value="&lt;div&gt;+checkCultivated(char): comoNames[Acelga&lt;br&gt;AchicorÃ­a comÃºn&lt;br&gt;Papa china &lt;br&gt;UrucÃº&lt;br&gt;Agraz&lt;br&gt;Aguacate&lt;br&gt;Aguaje&lt;br&gt;Auyama&lt;br&gt;Aji&lt;br&gt;Aji dulce&lt;br&gt;Aji tabasco&lt;br&gt;Ajo&lt;br&gt;Ajonjoli&lt;br&gt;Albahaca&lt;br&gt;Alcachofa&lt;br&gt;Algarrobo&lt;br&gt;Algodon&lt;br&gt;Amaranto&lt;br&gt;AnÃ­s verde&lt;br&gt;AnÃ³n&lt;br&gt;Anturio&lt;br&gt;Apio&lt;br&gt;Arandano azÃºl&lt;br&gt;ArazÃ¡&lt;br&gt;Arracacha&lt;br&gt;Arroz riego ciclo corto&lt;br&gt;Arroz riego ciclo mediano&lt;br&gt;Arroz riego ciclo largo&lt;br&gt;Arroz secano&lt;br&gt;Arveja (Santa Isabel)&lt;br&gt;Asai&lt;br&gt;Asparragos&lt;br&gt;Alstromeria&lt;br&gt;Avena&lt;br&gt;Bacuri&lt;br&gt;Badea&lt;br&gt;Banano &lt;br&gt;Banano &lt;br&gt;&lt;br&gt;Banano &lt;br&gt;Banano &lt;br&gt;Batata&lt;br&gt;Berenjena&lt;br&gt;Bore&lt;br&gt;Borojo&lt;br&gt;Borraja&lt;br&gt;Brevo&lt;br&gt;Brocoli&lt;br&gt;Cacao&lt;br&gt;Cachaco (platano)&lt;br&gt;Cafe&lt;br&gt;Cafe&lt;br&gt;Cafe&lt;br&gt;Cafe&lt;br&gt;Caimo&lt;br&gt;Calabacin&lt;br&gt;Calabaza&lt;br&gt;Calendula&lt;br&gt;CaÃ±a azucarera&lt;br&gt;CaÃ±a Flecha&lt;br&gt;Canyarana&lt;br&gt;Cardamono&lt;br&gt;Carucho-astromelia&lt;br&gt;Caucho&lt;br&gt;Cebada&lt;br&gt;Cebolla de bulbo&lt;br&gt;Cebolla de rama&lt;br&gt;Cebollin&lt;br&gt;Centeno&lt;br&gt;Chachafruto&lt;br&gt;Chalota&lt;br&gt;Chamba&lt;br&gt;ChampiÃ±on&lt;br&gt;ChÃ­a&lt;br&gt;ChirivÃ­a&lt;br&gt;Chillangua&lt;br&gt;Chiraran&lt;br&gt;Chirimoya&lt;br&gt;Chiro&lt;br&gt;Cholupa&lt;br&gt;Chonque&lt;br&gt;Chontaduro&lt;br&gt;Cilantro&lt;br&gt;Cimarron&lt;br&gt;Ciruela&lt;br&gt;Clavel&lt;br&gt;Cocculus&lt;br&gt;Coco&lt;br&gt;Cocona&lt;br&gt;Col de Brusela&lt;br&gt;Col de milan&lt;br&gt;Col forrajera&lt;br&gt;Col lombarda&lt;br&gt;Col repollo&lt;br&gt;Col romanesco&lt;br&gt;Col silvestre&lt;br&gt;Col verde china&lt;br&gt;Coliflor&lt;br&gt;ColirrÃ¡bano&lt;br&gt;Colinabo&lt;br&gt;Copoazu&lt;br&gt;Cordeline &lt;br&gt;Corozo&lt;br&gt;Curcuma&lt;br&gt;Curuba&lt;br&gt;Datil&lt;br&gt;Diente de leon&lt;br&gt;Durazno&lt;br&gt;Endivia&lt;br&gt;Eneldo&lt;br&gt;Esparrago&lt;br&gt;Esparto&lt;br&gt;Espinaca&lt;br&gt;Estropajo&lt;br&gt;Luffa acutangula&lt;br&gt;Eucalipto plateado&lt;br&gt;Feijoa&lt;br&gt;Fique andine&lt;br&gt;Kohuhu o kohukohu&lt;br&gt;Flor de jamaica&lt;br&gt;Flor de safari&lt;br&gt;Frambuesa reflorescente&lt;br&gt;Frambuesa no reflorescente&lt;br&gt;Fresa&lt;br&gt;frijol&lt;br&gt;frijol ancho&lt;br&gt;acoyote&lt;br&gt;frijol teparÃ­&lt;br&gt;Garbanzo&lt;br&gt;Girasol&lt;br&gt;Gladiolo&lt;br&gt;Granadilla&lt;br&gt;Guama&lt;br&gt;Guanabana&lt;br&gt;Guandul&lt;br&gt;Guatila&lt;br&gt;Guayaba&lt;br&gt;Guayaba mansana&lt;br&gt;Guayaba pera&lt;br&gt;Gulupa&lt;br&gt;Haba&lt;br&gt;Habichuela&lt;br&gt;Helecho Costilla de vaca&lt;br&gt;Helecho Ampe&lt;br&gt;Helecho cuero&lt;br&gt;Heliconia&lt;br&gt;Hierbabuena&lt;br&gt;Higo&lt;br&gt;Higuerilla&lt;br&gt;Hortensia&lt;br&gt;Iraca&lt;br&gt;Jatropha&lt;br&gt;Jatropha&lt;br&gt;Jatropha&lt;br&gt;Jatropha&lt;br&gt;jengibre&lt;br&gt;Laurel&lt;br&gt;Lechuga&lt;br&gt;Lenteja&lt;br&gt;Lima Ã cida&lt;br&gt;Lima Tahiti&lt;br&gt;Limon&lt;br&gt;Limonaria&lt;br&gt;Limonium&lt;br&gt;Lulo&lt;br&gt;Macadamia&lt;br&gt;Macadamia&lt;br&gt;Maiz &lt;br&gt;Maiz &lt;br&gt;Maiz &lt;br&gt;Maiz &lt;br&gt;Maiz &lt;br&gt;Maiz &lt;br&gt;Maiz &lt;br&gt;Malanga&lt;br&gt;Mamey&lt;br&gt;Mamoncillo&lt;br&gt;Mandarina&lt;br&gt;Mandarina clementina&lt;br&gt;Mandarina oneco&lt;br&gt;Mango&lt;br&gt;Mangostino&lt;br&gt;Mani&lt;br&gt;Manzana&lt;br&gt;Manzanilla&lt;br&gt;Maracuya&lt;br&gt;MaraÃ±on&lt;br&gt;Melon&lt;br&gt;Menta&lt;br&gt;Mijo perla&lt;br&gt;Mimbre&lt;br&gt;Mora&lt;br&gt;Morera&lt;br&gt;Moringa&lt;br&gt;Murrapo&lt;br&gt;Nabo&lt;br&gt;Ãame comÃºn&lt;br&gt;Ãame diamante&lt;br&gt;Ãame blanco&lt;br&gt;Naranja dulce&lt;br&gt;Naranja pÃ©rsica&lt;br&gt;&lt;div&gt;Naranja de ombligo o &lt;br&gt;&lt;/div&gt;&lt;div&gt;Navel&lt;/div&gt;Nispero&lt;br&gt;Noni&lt;br&gt;Oregano&lt;br&gt;Orellana&lt;br&gt;Orquidea&lt;br&gt;Palma amarga&lt;br&gt;Palma de aceite&lt;br&gt;palmarobelina&lt;br&gt;Palmito&lt;br&gt;Papa&lt;br&gt;Papa&lt;br&gt;Papa&lt;br&gt;Papa &lt;br&gt;Papa china&lt;br&gt;Papaya&lt;br&gt;Papaya &lt;br&gt;Papayuela&lt;br&gt;Pasto Brachiaria comÃºn&lt;br&gt;Pasto Brachiaria basilik&lt;br&gt;Pasto BrachiarÃ­a humidicola&lt;br&gt;Pasto Angleton&lt;br&gt;Pasto climacuna&lt;br&gt;Pasto Kikuyo&lt;br&gt;Pasto estrella&lt;br&gt;Pasto de guinea&lt;br&gt;Pasto parÃ¡&lt;br&gt;Pasto raygrass&lt;br&gt;Patilla&lt;br&gt;Pepa de pan&lt;br&gt;Pepino cohombro&lt;br&gt;Pepino guiso&lt;br&gt;Pera&lt;br&gt;Perejil&lt;br&gt;Pimenton&lt;br&gt;Pimienta&lt;br&gt;PiÃ±a&lt;br&gt;Pitahaya&lt;br&gt;Platano&lt;br&gt;Platano exportaciÃ³n&lt;br&gt;Poleo&lt;br&gt;Pomarrosa&lt;br&gt;Pomelo&lt;br&gt;Pompon y cristaneo&lt;br&gt;Puerro&lt;br&gt;Quinua&lt;br&gt;Rabano&lt;br&gt;Rambutan&lt;br&gt;Remolacha&lt;br&gt;Repollo&lt;br&gt;Romero&lt;br&gt;Rosa&lt;br&gt;Ruba&lt;br&gt;Ruda&lt;br&gt;Ruscus&lt;br&gt;Sabila&lt;br&gt;Sacha Inchi&lt;br&gt;Sagu&lt;br&gt;Sorgo&lt;br&gt;Soya&lt;br&gt;Statica&lt;br&gt;Stevia&lt;br&gt;tobaco negro&lt;br&gt;Tobaco rubio&lt;br&gt;Tamarindo&lt;br&gt;Tandarana&lt;br&gt;Tangelo&lt;br&gt;Tangelo mineola&lt;br&gt;Tangelo orlando&lt;br&gt;Te&lt;br&gt;Tomate&lt;br&gt;Tomate de arbol&lt;br&gt;tomae invernadero&lt;br&gt;Tomillo&lt;br&gt;Toronja&lt;br&gt;Tree fern&lt;br&gt;Trigo&lt;br&gt;Uhuva&lt;br&gt;Ulluco&lt;br&gt;Umari&lt;br&gt;Uva&lt;br&gt;uva caimarona&lt;br&gt;Vainilla&lt;br&gt;Yacon&lt;br&gt;Yota&lt;br&gt;Yuca&lt;br&gt;yuca industrial&lt;br&gt;Zanahoria&lt;br&gt;Canola, B napus &lt;br&gt;Canola B. rapa&lt;br&gt;Mostaza (B. juncea)&lt;br&gt;Mostaza (S. alba) &lt;br&gt;Linaza &lt;br&gt;Guadua&lt;br&gt;Achapo&lt;br&gt;Algarrobo&lt;br&gt;Arenillo&lt;br&gt;Bilibil&lt;br&gt;CaracolÃ­&lt;br&gt;Chaquiro&lt;br&gt;ChingalÃ©&lt;br&gt;Cedro Negro&lt;br&gt;Cedro rosado&lt;br&gt;Dinde&lt;br&gt;Flor morado&lt;br&gt;Granadillo&lt;br&gt;Guamo&lt;br&gt;Guarango&lt;br&gt;Bilibil&lt;br&gt;CaracolÃ­&lt;br&gt;Chaquiro&lt;br&gt;ChingalÃ©&lt;br&gt;Cedro Negro&lt;br&gt;Cedro rosado&lt;br&gt;Dinde&lt;br&gt;Flor morado&lt;br&gt;Granadillo&lt;br&gt;Guamo&lt;br&gt;GuarangoBovinos&lt;br&gt;Puercos&lt;br&gt;Caprinos&lt;br&gt;Ovinos&lt;br&gt;Equinos&lt;br&gt;Cuyes&lt;br&gt;Gallinas ponedoras&lt;br&gt;Gallinas carne&lt;br&gt;Gallinas doble proposito&lt;br&gt;Abejas&lt;br&gt;Avestruces&lt;br&gt;Patos&lt;br&gt;Pavos&lt;br&gt;Pintadas&lt;br&gt;Cordonices&lt;br&gt;Canarios&lt;br&gt;Insectos&lt;br&gt;Conejos&lt;br&gt;Bufalos&lt;br&gt;Abejas]&lt;/div&gt;" style="text;strokeColor=none;fillColor=none;align=left;verticalAlign=top;spacingLeft=4;spacingRight=4;overflow=hidden;rotatable=0;points=[[0,0.5],[1,0.5]];portConstraint=eastwest;whiteSpace=wrap;html=1;" parent="bnmCyNIr4KmW2nt2IgBb-45" vertex="1">
          <mxGeometry y="68" width="120" height="132" as="geometry" />
        </mxCell>
        <mxCell id="bnmCyNIr4KmW2nt2IgBb-53" value="Extends" style="endArrow=block;endSize=16;endFill=0;html=1;rounded=0;exitX=0.5;exitY=0;exitDx=0;exitDy=0;" parent="1" source="bnmCyNIr4KmW2nt2IgBb-36" target="jO_6KhbkxEUZzAkIXSuS-25" edge="1">
          <mxGeometry x="-0.0022" width="160" relative="1" as="geometry">
            <mxPoint x="2225" y="153" as="sourcePoint" />
            <mxPoint x="1490" y="54" as="targetPoint" />
            <mxPoint as="offset" />
          </mxGeometry>
        </mxCell>
        <mxCell id="bnmCyNIr4KmW2nt2IgBb-54" value="Extends" style="endArrow=block;endSize=16;endFill=0;html=1;rounded=0;exitX=0.5;exitY=0;exitDx=0;exitDy=0;" parent="1" source="bnmCyNIr4KmW2nt2IgBb-45" target="jO_6KhbkxEUZzAkIXSuS-25" edge="1">
          <mxGeometry x="-0.0022" width="160" relative="1" as="geometry">
            <mxPoint x="1500" y="249" as="sourcePoint" />
            <mxPoint x="1530" y="54" as="targetPoint" />
            <mxPoint as="offset" />
            <Array as="points" />
          </mxGeometry>
        </mxCell>
        <mxCell id="bnmCyNIr4KmW2nt2IgBb-55" value="Extends" style="endArrow=block;endSize=16;endFill=0;html=1;rounded=0;exitX=0.5;exitY=0;exitDx=0;exitDy=0;" parent="1" source="bnmCyNIr4KmW2nt2IgBb-41" target="jO_6KhbkxEUZzAkIXSuS-25" edge="1">
          <mxGeometry x="-0.0022" width="160" relative="1" as="geometry">
            <mxPoint x="1700" y="249" as="sourcePoint" />
            <mxPoint x="1450" y="54" as="targetPoint" />
            <mxPoint as="offset" />
          </mxGeometry>
        </mxCell>
        <mxCell id="jO_6KhbkxEUZzAkIXSuS-3" value="1" style="endArrow=open;html=1;endSize=12;startArrow=diamondThin;startSize=14;startFill=1;edgeStyle=orthogonalEdgeStyle;align=left;verticalAlign=bottom;rounded=0;exitX=0;exitY=0.5;exitDx=0;exitDy=0;" parent="1" source="bnmCyNIr4KmW2nt2IgBb-29" target="bnmCyNIr4KmW2nt2IgBb-33" edge="1">
          <mxGeometry x="-1" y="3" relative="1" as="geometry">
            <mxPoint x="1920" y="1452" as="sourcePoint" />
            <mxPoint x="1822" y="1451" as="targetPoint" />
          </mxGeometry>
        </mxCell>
        <mxCell id="jO_6KhbkxEUZzAkIXSuS-6" value="Extends" style="endArrow=block;endSize=16;endFill=0;html=1;rounded=0;entryX=0.5;entryY=1;entryDx=0;entryDy=0;" parent="1" source="KSp4SFGzi_MSVjwqNxPU-70" target="KSp4SFGzi_MSVjwqNxPU-74" edge="1">
          <mxGeometry x="0.2188" y="-25" width="160" relative="1" as="geometry">
            <mxPoint x="2027" y="527" as="sourcePoint" />
            <mxPoint x="2000" y="340" as="targetPoint" />
            <mxPoint as="offset" />
          </mxGeometry>
        </mxCell>
        <mxCell id="jO_6KhbkxEUZzAkIXSuS-7" value="Extends" style="endArrow=block;endSize=16;endFill=0;html=1;rounded=0;" parent="1" source="KSp4SFGzi_MSVjwqNxPU-78" target="KSp4SFGzi_MSVjwqNxPU-89" edge="1">
          <mxGeometry x="-0.6598" width="160" relative="1" as="geometry">
            <mxPoint x="2037" y="523" as="sourcePoint" />
            <mxPoint x="2037" y="478" as="targetPoint" />
            <mxPoint as="offset" />
          </mxGeometry>
        </mxCell>
        <mxCell id="jO_6KhbkxEUZzAkIXSuS-8" value="clientData" style="swimlane;fontStyle=1;align=center;verticalAlign=top;childLayout=stackLayout;horizontal=1;startSize=26;horizontalStack=0;resizeParent=1;resizeParentMax=0;resizeLast=0;collapsible=1;marginBottom=0;whiteSpace=wrap;html=1;" parent="1" vertex="1">
          <mxGeometry x="1712" y="393" width="160" height="86" as="geometry" />
        </mxCell>
        <mxCell id="jO_6KhbkxEUZzAkIXSuS-9" value="+ field: type" style="text;strokeColor=none;fillColor=none;align=left;verticalAlign=top;spacingLeft=4;spacingRight=4;overflow=hidden;rotatable=0;points=[[0,0.5],[1,0.5]];portConstraint=eastwest;whiteSpace=wrap;html=1;" parent="jO_6KhbkxEUZzAkIXSuS-8" vertex="1">
          <mxGeometry y="26" width="160" height="26" as="geometry" />
        </mxCell>
        <mxCell id="jO_6KhbkxEUZzAkIXSuS-10" value="" style="line;strokeWidth=1;fillColor=none;align=left;verticalAlign=middle;spacingTop=-1;spacingLeft=3;spacingRight=3;rotatable=0;labelPosition=right;points=[];portConstraint=eastwest;strokeColor=inherit;" parent="jO_6KhbkxEUZzAkIXSuS-8" vertex="1">
          <mxGeometry y="52" width="160" height="8" as="geometry" />
        </mxCell>
        <mxCell id="jO_6KhbkxEUZzAkIXSuS-11" value="+ method(type): type" style="text;strokeColor=none;fillColor=none;align=left;verticalAlign=top;spacingLeft=4;spacingRight=4;overflow=hidden;rotatable=0;points=[[0,0.5],[1,0.5]];portConstraint=eastwest;whiteSpace=wrap;html=1;" parent="jO_6KhbkxEUZzAkIXSuS-8" vertex="1">
          <mxGeometry y="60" width="160" height="26" as="geometry" />
        </mxCell>
        <mxCell id="jO_6KhbkxEUZzAkIXSuS-12" value="coopAdministrator" style="swimlane;fontStyle=1;align=center;verticalAlign=top;childLayout=stackLayout;horizontal=1;startSize=26;horizontalStack=0;resizeParent=1;resizeParentMax=0;resizeLast=0;collapsible=1;marginBottom=0;whiteSpace=wrap;html=1;" parent="1" vertex="1">
          <mxGeometry x="1712" y="280" width="160" height="70" as="geometry" />
        </mxCell>
        <mxCell id="jO_6KhbkxEUZzAkIXSuS-14" value="" style="line;strokeWidth=1;fillColor=none;align=left;verticalAlign=middle;spacingTop=-1;spacingLeft=3;spacingRight=3;rotatable=0;labelPosition=right;points=[];portConstraint=eastwest;strokeColor=inherit;" parent="jO_6KhbkxEUZzAkIXSuS-12" vertex="1">
          <mxGeometry y="26" width="160" height="8" as="geometry" />
        </mxCell>
        <mxCell id="bboikSEtlDNSUxXmhBnC-101" value="+modifyEocnomicModel(points)" style="text;strokeColor=none;fillColor=none;align=left;verticalAlign=top;spacingLeft=4;spacingRight=4;overflow=hidden;rotatable=0;points=[[0,0.5],[1,0.5]];portConstraint=eastwest;whiteSpace=wrap;html=1;" vertex="1" parent="jO_6KhbkxEUZzAkIXSuS-12">
          <mxGeometry y="34" width="160" height="36" as="geometry" />
        </mxCell>
        <mxCell id="jO_6KhbkxEUZzAkIXSuS-18" value="1" style="endArrow=open;html=1;endSize=12;startArrow=diamondThin;startSize=14;startFill=0;edgeStyle=orthogonalEdgeStyle;align=left;verticalAlign=bottom;rounded=0;entryX=1;entryY=0.5;entryDx=0;entryDy=0;exitX=0;exitY=0.5;exitDx=0;exitDy=0;" parent="1" source="bnmCyNIr4KmW2nt2IgBb-9" target="bnmCyNIr4KmW2nt2IgBb-14" edge="1">
          <mxGeometry x="-1" y="3" relative="1" as="geometry">
            <mxPoint x="1692" y="860" as="sourcePoint" />
            <mxPoint x="1852" y="860" as="targetPoint" />
          </mxGeometry>
        </mxCell>
        <mxCell id="jO_6KhbkxEUZzAkIXSuS-20" value="1" style="endArrow=open;html=1;endSize=12;startArrow=diamondThin;startSize=14;startFill=0;edgeStyle=orthogonalEdgeStyle;align=left;verticalAlign=bottom;rounded=0;exitX=0;exitY=0.5;exitDx=0;exitDy=0;" parent="1" source="bnmCyNIr4KmW2nt2IgBb-24" target="bnmCyNIr4KmW2nt2IgBb-29" edge="1">
          <mxGeometry x="-1" y="3" relative="1" as="geometry">
            <mxPoint x="1882" y="1255" as="sourcePoint" />
            <mxPoint x="1852" y="1245" as="targetPoint" />
          </mxGeometry>
        </mxCell>
        <mxCell id="jO_6KhbkxEUZzAkIXSuS-22" value="Species" style="swimlane;fontStyle=1;align=center;verticalAlign=top;childLayout=stackLayout;horizontal=1;startSize=26;horizontalStack=0;resizeParent=1;resizeParentMax=0;resizeLast=0;collapsible=1;marginBottom=0;whiteSpace=wrap;html=1;" parent="1" vertex="1">
          <mxGeometry x="1320" y="20" width="240" height="128" as="geometry" />
        </mxCell>
        <mxCell id="jO_6KhbkxEUZzAkIXSuS-23" value="&lt;div&gt;+ comonNames: char&lt;/div&gt;&lt;div&gt;+ latinNames: char&lt;/div&gt;" style="text;strokeColor=none;fillColor=none;align=left;verticalAlign=top;spacingLeft=4;spacingRight=4;overflow=hidden;rotatable=0;points=[[0,0.5],[1,0.5]];portConstraint=eastwest;whiteSpace=wrap;html=1;" parent="jO_6KhbkxEUZzAkIXSuS-22" vertex="1">
          <mxGeometry y="26" width="240" height="44" as="geometry" />
        </mxCell>
        <mxCell id="jO_6KhbkxEUZzAkIXSuS-24" value="" style="line;strokeWidth=1;fillColor=none;align=left;verticalAlign=middle;spacingTop=-1;spacingLeft=3;spacingRight=3;rotatable=0;labelPosition=right;points=[];portConstraint=eastwest;strokeColor=inherit;" parent="jO_6KhbkxEUZzAkIXSuS-22" vertex="1">
          <mxGeometry y="70" width="240" height="8" as="geometry" />
        </mxCell>
        <mxCell id="jO_6KhbkxEUZzAkIXSuS-25" value="&lt;div&gt;+ addComonName(char):commonName&lt;/div&gt;&lt;div&gt;+ addSpecies(char):latinName&lt;/div&gt;" style="text;strokeColor=none;fillColor=none;align=left;verticalAlign=top;spacingLeft=4;spacingRight=4;overflow=hidden;rotatable=0;points=[[0,0.5],[1,0.5]];portConstraint=eastwest;whiteSpace=wrap;html=1;" parent="jO_6KhbkxEUZzAkIXSuS-22" vertex="1">
          <mxGeometry y="78" width="240" height="50" as="geometry" />
        </mxCell>
        <mxCell id="jO_6KhbkxEUZzAkIXSuS-26" value="Cycle" style="swimlane;fontStyle=1;align=center;verticalAlign=top;childLayout=stackLayout;horizontal=1;startSize=26;horizontalStack=0;resizeParent=1;resizeParentMax=0;resizeLast=0;collapsible=1;marginBottom=0;whiteSpace=wrap;html=1;" parent="1" vertex="1">
          <mxGeometry x="1712" y="650" width="160" height="154" as="geometry" />
        </mxCell>
        <mxCell id="jO_6KhbkxEUZzAkIXSuS-27" value="&lt;div&gt;+ Species:Species&lt;/div&gt;&lt;div&gt;+ Variety:varieties(species)&lt;/div&gt;&lt;div&gt;&lt;div&gt;+ producto:productos&lt;/div&gt;&lt;div&gt;+ uso: usos&lt;br&gt;&lt;/div&gt;&lt;div&gt;+ demand:Dates&lt;/div&gt;&lt;div&gt;&lt;br&gt;&lt;br&gt;&lt;/div&gt;&lt;div&gt;+ Variety&lt;/div&gt;&lt;div&gt;&lt;br&gt;&lt;br&gt;&lt;/div&gt;&lt;/div&gt;&lt;div&gt;&lt;br&gt;&lt;/div&gt;" style="text;strokeColor=none;fillColor=none;align=left;verticalAlign=top;spacingLeft=4;spacingRight=4;overflow=hidden;rotatable=0;points=[[0,0.5],[1,0.5]];portConstraint=eastwest;whiteSpace=wrap;html=1;" parent="jO_6KhbkxEUZzAkIXSuS-26" vertex="1">
          <mxGeometry y="26" width="160" height="94" as="geometry" />
        </mxCell>
        <mxCell id="jO_6KhbkxEUZzAkIXSuS-28" value="" style="line;strokeWidth=1;fillColor=none;align=left;verticalAlign=middle;spacingTop=-1;spacingLeft=3;spacingRight=3;rotatable=0;labelPosition=right;points=[];portConstraint=eastwest;strokeColor=inherit;" parent="jO_6KhbkxEUZzAkIXSuS-26" vertex="1">
          <mxGeometry y="120" width="160" height="8" as="geometry" />
        </mxCell>
        <mxCell id="jO_6KhbkxEUZzAkIXSuS-29" value="+ method(type): type" style="text;strokeColor=none;fillColor=none;align=left;verticalAlign=top;spacingLeft=4;spacingRight=4;overflow=hidden;rotatable=0;points=[[0,0.5],[1,0.5]];portConstraint=eastwest;whiteSpace=wrap;html=1;" parent="jO_6KhbkxEUZzAkIXSuS-26" vertex="1">
          <mxGeometry y="128" width="160" height="26" as="geometry" />
        </mxCell>
        <mxCell id="jO_6KhbkxEUZzAkIXSuS-30" value="UFData" style="swimlane;fontStyle=1;align=center;verticalAlign=top;childLayout=stackLayout;horizontal=1;startSize=26;horizontalStack=0;resizeParent=1;resizeParentMax=0;resizeLast=0;collapsible=1;marginBottom=0;whiteSpace=wrap;html=1;" parent="1" vertex="1">
          <mxGeometry x="1712" y="523" width="160" height="94" as="geometry" />
        </mxCell>
        <mxCell id="jO_6KhbkxEUZzAkIXSuS-31" value="&lt;div&gt;+ telephon: type&lt;/div&gt;&lt;div&gt;+ telephon: type&lt;/div&gt;" style="text;strokeColor=none;fillColor=none;align=left;verticalAlign=top;spacingLeft=4;spacingRight=4;overflow=hidden;rotatable=0;points=[[0,0.5],[1,0.5]];portConstraint=eastwest;whiteSpace=wrap;html=1;" parent="jO_6KhbkxEUZzAkIXSuS-30" vertex="1">
          <mxGeometry y="26" width="160" height="34" as="geometry" />
        </mxCell>
        <mxCell id="jO_6KhbkxEUZzAkIXSuS-32" value="" style="line;strokeWidth=1;fillColor=none;align=left;verticalAlign=middle;spacingTop=-1;spacingLeft=3;spacingRight=3;rotatable=0;labelPosition=right;points=[];portConstraint=eastwest;strokeColor=inherit;" parent="jO_6KhbkxEUZzAkIXSuS-30" vertex="1">
          <mxGeometry y="60" width="160" height="8" as="geometry" />
        </mxCell>
        <mxCell id="jO_6KhbkxEUZzAkIXSuS-33" value="+ method(type): type" style="text;strokeColor=none;fillColor=none;align=left;verticalAlign=top;spacingLeft=4;spacingRight=4;overflow=hidden;rotatable=0;points=[[0,0.5],[1,0.5]];portConstraint=eastwest;whiteSpace=wrap;html=1;" parent="jO_6KhbkxEUZzAkIXSuS-30" vertex="1">
          <mxGeometry y="68" width="160" height="26" as="geometry" />
        </mxCell>
        <mxCell id="jO_6KhbkxEUZzAkIXSuS-34" value="Extends" style="endArrow=block;endSize=16;endFill=0;html=1;rounded=0;" parent="1" target="jO_6KhbkxEUZzAkIXSuS-33" edge="1">
          <mxGeometry width="160" relative="1" as="geometry">
            <mxPoint x="1792" y="643" as="sourcePoint" />
            <mxPoint x="1803" y="792" as="targetPoint" />
          </mxGeometry>
        </mxCell>
        <mxCell id="jO_6KhbkxEUZzAkIXSuS-35" value="Extends" style="endArrow=block;endSize=16;endFill=0;html=1;rounded=0;exitX=0.5;exitY=0;exitDx=0;exitDy=0;" parent="1" source="jO_6KhbkxEUZzAkIXSuS-30" edge="1">
          <mxGeometry x="-0.0044" width="160" relative="1" as="geometry">
            <mxPoint x="1802" y="653" as="sourcePoint" />
            <mxPoint x="1792" y="478.5" as="targetPoint" />
            <mxPoint as="offset" />
          </mxGeometry>
        </mxCell>
        <mxCell id="jO_6KhbkxEUZzAkIXSuS-37" value="" style="endArrow=block;startArrow=block;endFill=1;startFill=1;html=1;rounded=0;entryX=0;entryY=0.5;entryDx=0;entryDy=0;exitX=1;exitY=0.5;exitDx=0;exitDy=0;" parent="1" source="jO_6KhbkxEUZzAkIXSuS-27" target="KSp4SFGzi_MSVjwqNxPU-2" edge="1">
          <mxGeometry width="160" relative="1" as="geometry">
            <mxPoint x="1802" y="671" as="sourcePoint" />
            <mxPoint x="1962" y="671" as="targetPoint" />
          </mxGeometry>
        </mxCell>
        <mxCell id="jO_6KhbkxEUZzAkIXSuS-40" value="transportData" style="swimlane;fontStyle=1;align=center;verticalAlign=top;childLayout=stackLayout;horizontal=1;startSize=26;horizontalStack=0;resizeParent=1;resizeParentMax=0;resizeLast=0;collapsible=1;marginBottom=0;whiteSpace=wrap;html=1;" parent="1" vertex="1">
          <mxGeometry x="2130" y="393" width="160" height="86" as="geometry" />
        </mxCell>
        <mxCell id="jO_6KhbkxEUZzAkIXSuS-41" value="+ field: type" style="text;strokeColor=none;fillColor=none;align=left;verticalAlign=top;spacingLeft=4;spacingRight=4;overflow=hidden;rotatable=0;points=[[0,0.5],[1,0.5]];portConstraint=eastwest;whiteSpace=wrap;html=1;" parent="jO_6KhbkxEUZzAkIXSuS-40" vertex="1">
          <mxGeometry y="26" width="160" height="26" as="geometry" />
        </mxCell>
        <mxCell id="jO_6KhbkxEUZzAkIXSuS-42" value="" style="line;strokeWidth=1;fillColor=none;align=left;verticalAlign=middle;spacingTop=-1;spacingLeft=3;spacingRight=3;rotatable=0;labelPosition=right;points=[];portConstraint=eastwest;strokeColor=inherit;" parent="jO_6KhbkxEUZzAkIXSuS-40" vertex="1">
          <mxGeometry y="52" width="160" height="8" as="geometry" />
        </mxCell>
        <mxCell id="jO_6KhbkxEUZzAkIXSuS-43" value="+ method(type): type" style="text;strokeColor=none;fillColor=none;align=left;verticalAlign=top;spacingLeft=4;spacingRight=4;overflow=hidden;rotatable=0;points=[[0,0.5],[1,0.5]];portConstraint=eastwest;whiteSpace=wrap;html=1;" parent="jO_6KhbkxEUZzAkIXSuS-40" vertex="1">
          <mxGeometry y="60" width="160" height="26" as="geometry" />
        </mxCell>
        <mxCell id="jO_6KhbkxEUZzAkIXSuS-44" value="Cycle" style="swimlane;fontStyle=1;align=center;verticalAlign=top;childLayout=stackLayout;horizontal=1;startSize=26;horizontalStack=0;resizeParent=1;resizeParentMax=0;resizeLast=0;collapsible=1;marginBottom=0;whiteSpace=wrap;html=1;" parent="1" vertex="1">
          <mxGeometry x="2130" y="650.5" width="160" height="154" as="geometry" />
        </mxCell>
        <mxCell id="jO_6KhbkxEUZzAkIXSuS-45" value="&lt;div&gt;+ Species:Species&lt;/div&gt;&lt;div&gt;+ Variety:varieties(species)&lt;/div&gt;&lt;div&gt;&lt;div&gt;+ producto:productos&lt;/div&gt;&lt;div&gt;+ uso: usos&lt;br&gt;&lt;/div&gt;&lt;div&gt;+ demand:Dates&lt;/div&gt;&lt;div&gt;&lt;br&gt;&lt;br&gt;&lt;/div&gt;&lt;div&gt;+ Variety&lt;/div&gt;&lt;div&gt;&lt;br&gt;&lt;br&gt;&lt;/div&gt;&lt;/div&gt;&lt;div&gt;&lt;br&gt;&lt;/div&gt;" style="text;strokeColor=none;fillColor=none;align=left;verticalAlign=top;spacingLeft=4;spacingRight=4;overflow=hidden;rotatable=0;points=[[0,0.5],[1,0.5]];portConstraint=eastwest;whiteSpace=wrap;html=1;" parent="jO_6KhbkxEUZzAkIXSuS-44" vertex="1">
          <mxGeometry y="26" width="160" height="94" as="geometry" />
        </mxCell>
        <mxCell id="jO_6KhbkxEUZzAkIXSuS-46" value="" style="line;strokeWidth=1;fillColor=none;align=left;verticalAlign=middle;spacingTop=-1;spacingLeft=3;spacingRight=3;rotatable=0;labelPosition=right;points=[];portConstraint=eastwest;strokeColor=inherit;" parent="jO_6KhbkxEUZzAkIXSuS-44" vertex="1">
          <mxGeometry y="120" width="160" height="8" as="geometry" />
        </mxCell>
        <mxCell id="jO_6KhbkxEUZzAkIXSuS-47" value="+ method(type): type" style="text;strokeColor=none;fillColor=none;align=left;verticalAlign=top;spacingLeft=4;spacingRight=4;overflow=hidden;rotatable=0;points=[[0,0.5],[1,0.5]];portConstraint=eastwest;whiteSpace=wrap;html=1;" parent="jO_6KhbkxEUZzAkIXSuS-44" vertex="1">
          <mxGeometry y="128" width="160" height="26" as="geometry" />
        </mxCell>
        <mxCell id="jO_6KhbkxEUZzAkIXSuS-48" value="UFData" style="swimlane;fontStyle=1;align=center;verticalAlign=top;childLayout=stackLayout;horizontal=1;startSize=26;horizontalStack=0;resizeParent=1;resizeParentMax=0;resizeLast=0;collapsible=1;marginBottom=0;whiteSpace=wrap;html=1;" parent="1" vertex="1">
          <mxGeometry x="2130" y="523.5" width="160" height="94" as="geometry" />
        </mxCell>
        <mxCell id="jO_6KhbkxEUZzAkIXSuS-49" value="&lt;div&gt;+ telephon: type&lt;/div&gt;&lt;div&gt;+ telephon: type&lt;/div&gt;" style="text;strokeColor=none;fillColor=none;align=left;verticalAlign=top;spacingLeft=4;spacingRight=4;overflow=hidden;rotatable=0;points=[[0,0.5],[1,0.5]];portConstraint=eastwest;whiteSpace=wrap;html=1;" parent="jO_6KhbkxEUZzAkIXSuS-48" vertex="1">
          <mxGeometry y="26" width="160" height="34" as="geometry" />
        </mxCell>
        <mxCell id="jO_6KhbkxEUZzAkIXSuS-50" value="" style="line;strokeWidth=1;fillColor=none;align=left;verticalAlign=middle;spacingTop=-1;spacingLeft=3;spacingRight=3;rotatable=0;labelPosition=right;points=[];portConstraint=eastwest;strokeColor=inherit;" parent="jO_6KhbkxEUZzAkIXSuS-48" vertex="1">
          <mxGeometry y="60" width="160" height="8" as="geometry" />
        </mxCell>
        <mxCell id="jO_6KhbkxEUZzAkIXSuS-51" value="+ method(type): type" style="text;strokeColor=none;fillColor=none;align=left;verticalAlign=top;spacingLeft=4;spacingRight=4;overflow=hidden;rotatable=0;points=[[0,0.5],[1,0.5]];portConstraint=eastwest;whiteSpace=wrap;html=1;" parent="jO_6KhbkxEUZzAkIXSuS-48" vertex="1">
          <mxGeometry y="68" width="160" height="26" as="geometry" />
        </mxCell>
        <mxCell id="jO_6KhbkxEUZzAkIXSuS-52" value="Extends" style="endArrow=block;endSize=16;endFill=0;html=1;rounded=0;exitX=0.5;exitY=0;exitDx=0;exitDy=0;entryX=0.494;entryY=1;entryDx=0;entryDy=0;entryPerimeter=0;" parent="1" source="jO_6KhbkxEUZzAkIXSuS-8" target="KSp4SFGzi_MSVjwqNxPU-76" edge="1">
          <mxGeometry x="0.2105" y="-25" width="160" relative="1" as="geometry">
            <mxPoint x="2017" y="386" as="sourcePoint" />
            <mxPoint x="1961.1803278688524" y="366" as="targetPoint" />
            <mxPoint as="offset" />
          </mxGeometry>
        </mxCell>
        <mxCell id="jO_6KhbkxEUZzAkIXSuS-53" value="Extends" style="endArrow=block;endSize=16;endFill=0;html=1;rounded=0;exitX=0.5;exitY=0;exitDx=0;exitDy=0;" parent="1" source="jO_6KhbkxEUZzAkIXSuS-40" edge="1">
          <mxGeometry x="-0.1298" y="-4" width="160" relative="1" as="geometry">
            <mxPoint x="2017" y="386" as="sourcePoint" />
            <mxPoint x="2072.975" y="366" as="targetPoint" />
            <mxPoint as="offset" />
          </mxGeometry>
        </mxCell>
        <mxCell id="jO_6KhbkxEUZzAkIXSuS-55" value="phone" style="swimlane;fontStyle=1;align=center;verticalAlign=top;childLayout=stackLayout;horizontal=1;startSize=26;horizontalStack=0;resizeParent=1;resizeParentMax=0;resizeLast=0;collapsible=1;marginBottom=0;whiteSpace=wrap;html=1;" parent="1" vertex="1">
          <mxGeometry x="1200" y="489.5" width="160" height="120" as="geometry" />
        </mxCell>
        <mxCell id="jO_6KhbkxEUZzAkIXSuS-56" value="&lt;div&gt;+number:int&lt;/div&gt;&lt;div&gt;+numberOK:bool&lt;/div&gt;" style="text;strokeColor=none;fillColor=none;align=left;verticalAlign=top;spacingLeft=4;spacingRight=4;overflow=hidden;rotatable=0;points=[[0,0.5],[1,0.5]];portConstraint=eastwest;whiteSpace=wrap;html=1;" parent="jO_6KhbkxEUZzAkIXSuS-55" vertex="1">
          <mxGeometry y="26" width="160" height="44" as="geometry" />
        </mxCell>
        <mxCell id="jO_6KhbkxEUZzAkIXSuS-57" value="" style="line;strokeWidth=1;fillColor=none;align=left;verticalAlign=middle;spacingTop=-1;spacingLeft=3;spacingRight=3;rotatable=0;labelPosition=right;points=[];portConstraint=eastwest;strokeColor=inherit;" parent="jO_6KhbkxEUZzAkIXSuS-55" vertex="1">
          <mxGeometry y="70" width="160" height="8" as="geometry" />
        </mxCell>
        <mxCell id="jO_6KhbkxEUZzAkIXSuS-58" value="+ checkNumber(): numberOK" style="text;strokeColor=none;fillColor=none;align=left;verticalAlign=top;spacingLeft=4;spacingRight=4;overflow=hidden;rotatable=0;points=[[0,0.5],[1,0.5]];portConstraint=eastwest;whiteSpace=wrap;html=1;" parent="jO_6KhbkxEUZzAkIXSuS-55" vertex="1">
          <mxGeometry y="78" width="160" height="42" as="geometry" />
        </mxCell>
        <mxCell id="jO_6KhbkxEUZzAkIXSuS-59" value="locality" style="swimlane;fontStyle=1;align=center;verticalAlign=top;childLayout=stackLayout;horizontal=1;startSize=26;horizontalStack=0;resizeParent=1;resizeParentMax=0;resizeLast=0;collapsible=1;marginBottom=0;whiteSpace=wrap;html=1;" parent="1" vertex="1">
          <mxGeometry x="1200" y="640" width="160" height="120" as="geometry" />
        </mxCell>
        <mxCell id="jO_6KhbkxEUZzAkIXSuS-60" value="&lt;div&gt;+name:char&lt;/div&gt;&lt;div&gt;+localityOK:bool&lt;/div&gt;" style="text;strokeColor=none;fillColor=none;align=left;verticalAlign=top;spacingLeft=4;spacingRight=4;overflow=hidden;rotatable=0;points=[[0,0.5],[1,0.5]];portConstraint=eastwest;whiteSpace=wrap;html=1;" parent="jO_6KhbkxEUZzAkIXSuS-59" vertex="1">
          <mxGeometry y="26" width="160" height="44" as="geometry" />
        </mxCell>
        <mxCell id="jO_6KhbkxEUZzAkIXSuS-61" value="" style="line;strokeWidth=1;fillColor=none;align=left;verticalAlign=middle;spacingTop=-1;spacingLeft=3;spacingRight=3;rotatable=0;labelPosition=right;points=[];portConstraint=eastwest;strokeColor=inherit;" parent="jO_6KhbkxEUZzAkIXSuS-59" vertex="1">
          <mxGeometry y="70" width="160" height="8" as="geometry" />
        </mxCell>
        <mxCell id="jO_6KhbkxEUZzAkIXSuS-62" value="+ checklocality(): numberOK" style="text;strokeColor=none;fillColor=none;align=left;verticalAlign=top;spacingLeft=4;spacingRight=4;overflow=hidden;rotatable=0;points=[[0,0.5],[1,0.5]];portConstraint=eastwest;whiteSpace=wrap;html=1;" parent="jO_6KhbkxEUZzAkIXSuS-59" vertex="1">
          <mxGeometry y="78" width="160" height="42" as="geometry" />
        </mxCell>
        <mxCell id="bboikSEtlDNSUxXmhBnC-1" value="Steps [ ]" style="text;html=1;strokeColor=none;fillColor=none;align=left;verticalAlign=middle;whiteSpace=wrap;rounded=0;fontSize=16;" vertex="1" parent="1">
          <mxGeometry x="2380" y="80" width="80" height="20" as="geometry" />
        </mxCell>
        <mxCell id="bboikSEtlDNSUxXmhBnC-2" value="StepTransitions [ ] [ ]" style="text;html=1;strokeColor=none;fillColor=none;align=left;verticalAlign=middle;whiteSpace=wrap;rounded=0;fontSize=16;" vertex="1" parent="1">
          <mxGeometry x="2380" y="219" width="180" height="20" as="geometry" />
        </mxCell>
        <mxCell id="bboikSEtlDNSUxXmhBnC-3" value="&lt;div&gt;Fixed variables&lt;/div&gt;&lt;div&gt;enumerations [] &lt;/div&gt;" style="text;html=1;strokeColor=none;fillColor=none;align=left;verticalAlign=middle;whiteSpace=wrap;rounded=0;fontSize=16;fontStyle=1" vertex="1" parent="1">
          <mxGeometry x="2380" y="569" width="200" height="40" as="geometry" />
        </mxCell>
        <mxCell id="bboikSEtlDNSUxXmhBnC-4" value="Generos (Male,Female, Hermafrodit, dioic, all)" style="text;html=1;strokeColor=none;fillColor=none;align=left;verticalAlign=middle;whiteSpace=wrap;rounded=0;fontSize=16;" vertex="1" parent="1">
          <mxGeometry x="2630" y="581" width="150" height="60" as="geometry" />
        </mxCell>
        <mxCell id="bboikSEtlDNSUxXmhBnC-5" value="Unidades (individos, Kg, l,... )" style="text;html=1;strokeColor=none;fillColor=none;align=left;verticalAlign=middle;whiteSpace=wrap;rounded=0;fontSize=16;" vertex="1" parent="1">
          <mxGeometry x="2780" y="570" width="230" height="20" as="geometry" />
        </mxCell>
        <mxCell id="bboikSEtlDNSUxXmhBnC-6" value="Cycle step variables levels " style="text;html=1;strokeColor=none;fillColor=none;align=left;verticalAlign=middle;whiteSpace=wrap;rounded=0;fontSize=16;fontStyle=1" vertex="1" parent="1">
          <mxGeometry x="2370" y="905" width="160" height="30" as="geometry" />
        </mxCell>
        <mxCell id="bboikSEtlDNSUxXmhBnC-7" value="" style="group" vertex="1" connectable="0" parent="1">
          <mxGeometry x="2640" y="180" width="480" height="320" as="geometry" />
        </mxCell>
        <mxCell id="bboikSEtlDNSUxXmhBnC-8" value="" style="shape=partialRectangle;html=1;whiteSpace=wrap;connectable=0;strokeColor=default;overflow=hidden;fillColor=none;top=0;left=0;bottom=0;right=0;pointerEvents=1;fontSize=16;strokeWidth=3;" vertex="1" parent="bboikSEtlDNSUxXmhBnC-7">
          <mxGeometry x="360" y="200" width="60" height="40" as="geometry">
            <mxRectangle width="60" height="40" as="alternateBounds" />
          </mxGeometry>
        </mxCell>
        <mxCell id="bboikSEtlDNSUxXmhBnC-9" value="&lt;font style=&quot;font-size: 16px;&quot;&gt;F&lt;/font&gt;" style="rounded=0;whiteSpace=wrap;html=1;" vertex="1" parent="bboikSEtlDNSUxXmhBnC-7">
          <mxGeometry x="360" width="60" height="40" as="geometry" />
        </mxCell>
        <mxCell id="bboikSEtlDNSUxXmhBnC-10" value="&lt;font style=&quot;font-size: 16px;&quot;&gt;1&lt;/font&gt;" style="rounded=0;whiteSpace=wrap;html=1;" vertex="1" parent="bboikSEtlDNSUxXmhBnC-7">
          <mxGeometry x="360" y="240" width="60" height="40" as="geometry" />
        </mxCell>
        <mxCell id="bboikSEtlDNSUxXmhBnC-11" value="&lt;font style=&quot;font-size: 16px;&quot;&gt;F&lt;/font&gt;" style="rounded=0;whiteSpace=wrap;html=1;" vertex="1" parent="bboikSEtlDNSUxXmhBnC-7">
          <mxGeometry y="240" width="60" height="40" as="geometry" />
        </mxCell>
        <mxCell id="bboikSEtlDNSUxXmhBnC-12" value="&lt;font style=&quot;font-size: 16px;&quot;&gt;G&lt;/font&gt;" style="rounded=0;whiteSpace=wrap;html=1;" vertex="1" parent="bboikSEtlDNSUxXmhBnC-7">
          <mxGeometry x="420" width="60" height="40" as="geometry" />
        </mxCell>
        <mxCell id="bboikSEtlDNSUxXmhBnC-13" value="&lt;font style=&quot;font-size: 16px;&quot;&gt;G&lt;/font&gt;" style="rounded=0;whiteSpace=wrap;html=1;" vertex="1" parent="bboikSEtlDNSUxXmhBnC-7">
          <mxGeometry y="280" width="60" height="40" as="geometry" />
        </mxCell>
        <mxCell id="bboikSEtlDNSUxXmhBnC-14" value="&lt;font style=&quot;font-size: 16px;&quot;&gt;1&lt;/font&gt;" style="rounded=0;whiteSpace=wrap;html=1;" vertex="1" parent="bboikSEtlDNSUxXmhBnC-7">
          <mxGeometry x="420" y="280" width="60" height="40" as="geometry" />
        </mxCell>
        <mxCell id="bboikSEtlDNSUxXmhBnC-15" value="&lt;font style=&quot;font-size: 16px;&quot;&gt;1&lt;/font&gt;" style="rounded=0;whiteSpace=wrap;html=1;" vertex="1" parent="bboikSEtlDNSUxXmhBnC-7">
          <mxGeometry x="420" y="200" width="60" height="40" as="geometry" />
        </mxCell>
        <mxCell id="bboikSEtlDNSUxXmhBnC-16" value="&lt;font style=&quot;font-size: 16px;&quot;&gt;D&lt;/font&gt;" style="rounded=0;whiteSpace=wrap;html=1;" vertex="1" parent="bboikSEtlDNSUxXmhBnC-7">
          <mxGeometry x="240" width="60" height="40" as="geometry" />
        </mxCell>
        <mxCell id="bboikSEtlDNSUxXmhBnC-17" value="&lt;font style=&quot;font-size: 16px;&quot;&gt;E&lt;/font&gt;" style="rounded=0;whiteSpace=wrap;html=1;" vertex="1" parent="bboikSEtlDNSUxXmhBnC-7">
          <mxGeometry x="300" width="60" height="40" as="geometry" />
        </mxCell>
        <mxCell id="bboikSEtlDNSUxXmhBnC-18" value="&lt;font style=&quot;font-size: 16px;&quot;&gt;C&lt;/font&gt;" style="rounded=0;whiteSpace=wrap;html=1;" vertex="1" parent="bboikSEtlDNSUxXmhBnC-7">
          <mxGeometry x="180" width="60" height="40" as="geometry" />
        </mxCell>
        <mxCell id="bboikSEtlDNSUxXmhBnC-19" value="&lt;font style=&quot;font-size: 15px;&quot;&gt;A&lt;/font&gt;" style="rounded=0;whiteSpace=wrap;html=1;" vertex="1" parent="bboikSEtlDNSUxXmhBnC-7">
          <mxGeometry x="60" width="60" height="40" as="geometry" />
        </mxCell>
        <mxCell id="bboikSEtlDNSUxXmhBnC-20" value="&lt;font style=&quot;font-size: 16px;&quot;&gt;B&lt;/font&gt;" style="rounded=0;whiteSpace=wrap;html=1;" vertex="1" parent="bboikSEtlDNSUxXmhBnC-7">
          <mxGeometry x="120" width="60" height="40" as="geometry" />
        </mxCell>
        <mxCell id="bboikSEtlDNSUxXmhBnC-21" value="&lt;font style=&quot;font-size: 16px;&quot;&gt;D&lt;/font&gt;" style="rounded=0;whiteSpace=wrap;html=1;" vertex="1" parent="bboikSEtlDNSUxXmhBnC-7">
          <mxGeometry y="160" width="60" height="40" as="geometry" />
        </mxCell>
        <mxCell id="bboikSEtlDNSUxXmhBnC-22" value="&lt;font style=&quot;font-size: 16px;&quot;&gt;E&lt;/font&gt;" style="rounded=0;whiteSpace=wrap;html=1;" vertex="1" parent="bboikSEtlDNSUxXmhBnC-7">
          <mxGeometry y="200" width="60" height="40" as="geometry" />
        </mxCell>
        <mxCell id="bboikSEtlDNSUxXmhBnC-23" value="&lt;font style=&quot;font-size: 16px;&quot;&gt;C&lt;/font&gt;" style="rounded=0;whiteSpace=wrap;html=1;" vertex="1" parent="bboikSEtlDNSUxXmhBnC-7">
          <mxGeometry y="120" width="60" height="40" as="geometry" />
        </mxCell>
        <mxCell id="bboikSEtlDNSUxXmhBnC-24" value="&lt;font style=&quot;font-size: 15px;&quot;&gt;A&lt;/font&gt;" style="rounded=0;whiteSpace=wrap;html=1;" vertex="1" parent="bboikSEtlDNSUxXmhBnC-7">
          <mxGeometry y="40" width="60" height="40" as="geometry" />
        </mxCell>
        <mxCell id="bboikSEtlDNSUxXmhBnC-25" value="&lt;font style=&quot;font-size: 16px;&quot;&gt;B&lt;/font&gt;" style="rounded=0;whiteSpace=wrap;html=1;" vertex="1" parent="bboikSEtlDNSUxXmhBnC-7">
          <mxGeometry y="80" width="60" height="40" as="geometry" />
        </mxCell>
        <mxCell id="bboikSEtlDNSUxXmhBnC-26" value="&lt;font style=&quot;font-size: 16px;&quot;&gt;1&lt;/font&gt;" style="rounded=0;whiteSpace=wrap;html=1;" vertex="1" parent="bboikSEtlDNSUxXmhBnC-7">
          <mxGeometry x="240" y="160" width="60" height="40" as="geometry" />
        </mxCell>
        <mxCell id="bboikSEtlDNSUxXmhBnC-27" value="&lt;font style=&quot;font-size: 16px;&quot;&gt;1&lt;/font&gt;" style="rounded=0;whiteSpace=wrap;html=1;" vertex="1" parent="bboikSEtlDNSUxXmhBnC-7">
          <mxGeometry x="300" y="200" width="60" height="40" as="geometry" />
        </mxCell>
        <mxCell id="bboikSEtlDNSUxXmhBnC-28" value="&lt;font style=&quot;font-size: 16px;&quot;&gt;1&lt;/font&gt;" style="rounded=0;whiteSpace=wrap;html=1;" vertex="1" parent="bboikSEtlDNSUxXmhBnC-7">
          <mxGeometry x="120" y="80" width="60" height="40" as="geometry" />
        </mxCell>
        <mxCell id="bboikSEtlDNSUxXmhBnC-29" value="&lt;font style=&quot;font-size: 16px;&quot;&gt;1&lt;/font&gt;" style="rounded=0;whiteSpace=wrap;html=1;" vertex="1" parent="bboikSEtlDNSUxXmhBnC-7">
          <mxGeometry x="180" y="120" width="60" height="40" as="geometry" />
        </mxCell>
        <mxCell id="bboikSEtlDNSUxXmhBnC-30" value="&lt;font style=&quot;font-size: 16px;&quot;&gt;1&lt;/font&gt;" style="rounded=0;whiteSpace=wrap;html=1;" vertex="1" parent="bboikSEtlDNSUxXmhBnC-7">
          <mxGeometry x="60" y="40" width="60" height="40" as="geometry" />
        </mxCell>
        <mxCell id="bboikSEtlDNSUxXmhBnC-31" value="&lt;font style=&quot;font-size: 16px;&quot;&gt;1&lt;/font&gt;" style="rounded=0;whiteSpace=wrap;html=1;" vertex="1" parent="bboikSEtlDNSUxXmhBnC-7">
          <mxGeometry x="300" y="40" width="60" height="40" as="geometry" />
        </mxCell>
        <mxCell id="bboikSEtlDNSUxXmhBnC-32" value="&lt;font style=&quot;font-size: 16px;&quot;&gt;1&lt;/font&gt;" style="rounded=0;whiteSpace=wrap;html=1;" vertex="1" parent="bboikSEtlDNSUxXmhBnC-7">
          <mxGeometry x="180" y="80" width="60" height="40" as="geometry" />
        </mxCell>
        <mxCell id="bboikSEtlDNSUxXmhBnC-33" value="&lt;font style=&quot;font-size: 16px;&quot;&gt;1&lt;/font&gt;" style="rounded=0;whiteSpace=wrap;html=1;" vertex="1" parent="bboikSEtlDNSUxXmhBnC-7">
          <mxGeometry x="120" y="40" width="60" height="40" as="geometry" />
        </mxCell>
        <mxCell id="bboikSEtlDNSUxXmhBnC-34" value="&lt;font style=&quot;font-size: 16px;&quot;&gt;1&lt;/font&gt;" style="rounded=0;whiteSpace=wrap;html=1;" vertex="1" parent="bboikSEtlDNSUxXmhBnC-7">
          <mxGeometry x="240" y="120" width="60" height="40" as="geometry" />
        </mxCell>
        <mxCell id="bboikSEtlDNSUxXmhBnC-35" value="&lt;font style=&quot;font-size: 16px;&quot;&gt;1&lt;/font&gt;" style="rounded=0;whiteSpace=wrap;html=1;" vertex="1" parent="bboikSEtlDNSUxXmhBnC-7">
          <mxGeometry x="180" y="160" width="60" height="40" as="geometry" />
        </mxCell>
        <mxCell id="bboikSEtlDNSUxXmhBnC-36" value="&lt;font style=&quot;font-size: 16px;&quot;&gt;1&lt;/font&gt;" style="rounded=0;whiteSpace=wrap;html=1;" vertex="1" parent="bboikSEtlDNSUxXmhBnC-7">
          <mxGeometry x="420" y="160" width="60" height="40" as="geometry" />
        </mxCell>
        <mxCell id="bboikSEtlDNSUxXmhBnC-37" value="" style="group" vertex="1" connectable="0" parent="1">
          <mxGeometry x="2640" y="70" width="781.6700000000001" height="40" as="geometry" />
        </mxCell>
        <mxCell id="bboikSEtlDNSUxXmhBnC-38" value="" style="group" vertex="1" connectable="0" parent="bboikSEtlDNSUxXmhBnC-37">
          <mxGeometry width="670" height="40" as="geometry" />
        </mxCell>
        <mxCell id="bboikSEtlDNSUxXmhBnC-39" value="&lt;font style=&quot;font-size: 16px;&quot;&gt;F&lt;/font&gt;: leche" style="rounded=0;whiteSpace=wrap;html=1;" vertex="1" parent="bboikSEtlDNSUxXmhBnC-38">
          <mxGeometry x="558.3333333333334" width="111.66666666666669" height="40" as="geometry" />
        </mxCell>
        <mxCell id="bboikSEtlDNSUxXmhBnC-40" value="&lt;font style=&quot;font-size: 16px;&quot;&gt;E&lt;/font&gt;: engordando" style="rounded=0;whiteSpace=wrap;html=1;" vertex="1" parent="bboikSEtlDNSUxXmhBnC-38">
          <mxGeometry x="446.66666666666674" width="111.66666666666669" height="40" as="geometry" />
        </mxCell>
        <mxCell id="bboikSEtlDNSUxXmhBnC-41" value="&lt;font style=&quot;font-size: 16px;&quot;&gt;D&lt;/font&gt;: Descansando" style="rounded=0;whiteSpace=wrap;html=1;" vertex="1" parent="bboikSEtlDNSUxXmhBnC-38">
          <mxGeometry x="335.00000000000006" width="111.66666666666669" height="40" as="geometry" />
        </mxCell>
        <mxCell id="bboikSEtlDNSUxXmhBnC-42" value="&lt;font style=&quot;font-size: 16px;&quot;&gt;C&lt;/font&gt;: Lactando" style="rounded=0;whiteSpace=wrap;html=1;" vertex="1" parent="bboikSEtlDNSUxXmhBnC-38">
          <mxGeometry x="223.33333333333337" width="111.66666666666669" height="40" as="geometry" />
        </mxCell>
        <mxCell id="bboikSEtlDNSUxXmhBnC-43" value="&lt;font style=&quot;font-size: 16px;&quot;&gt;B&lt;/font&gt;: Levantando" style="rounded=0;whiteSpace=wrap;html=1;" vertex="1" parent="bboikSEtlDNSUxXmhBnC-38">
          <mxGeometry x="111.66666666666669" width="111.66666666666669" height="40" as="geometry" />
        </mxCell>
        <mxCell id="bboikSEtlDNSUxXmhBnC-44" value="&lt;div style=&quot;&quot; align=&quot;left&quot;&gt;&lt;font style=&quot;font-size: 16px;&quot;&gt;A&lt;/font&gt;&lt;font style=&quot;font-size: 12px;&quot;&gt;: Amamantando&lt;br&gt;&lt;/font&gt;&lt;/div&gt;" style="rounded=0;whiteSpace=wrap;html=1;align=left;" vertex="1" parent="bboikSEtlDNSUxXmhBnC-38">
          <mxGeometry width="111.66666666666669" height="40" as="geometry" />
        </mxCell>
        <mxCell id="bboikSEtlDNSUxXmhBnC-45" value="&lt;font style=&quot;font-size: 16px;&quot;&gt;G&lt;/font&gt;: carne" style="rounded=0;whiteSpace=wrap;html=1;" vertex="1" parent="bboikSEtlDNSUxXmhBnC-37">
          <mxGeometry x="670.0033333333333" width="111.66666666666669" height="40" as="geometry" />
        </mxCell>
        <mxCell id="bboikSEtlDNSUxXmhBnC-46" value="TypeOfData&lt;br&gt;&lt;div&gt;.o&lt;/div&gt;&lt;div style=&quot;font-size: 16px;&quot;&gt;.c&lt;/div&gt;&lt;div style=&quot;font-size: 16px;&quot;&gt;.a&lt;br style=&quot;font-size: 16px;&quot;&gt;&lt;/div&gt;&lt;div&gt;&lt;br&gt;&lt;/div&gt;&lt;div&gt;&lt;div style=&quot;font-size: 16px;&quot;&gt;Observed&lt;/div&gt;&lt;div style=&quot;font-size: 16px;&quot;&gt;Calculated&lt;/div&gt;Anticipated&lt;/div&gt;" style="text;whiteSpace=wrap;html=1;fontSize=16;verticalAlign=top;" vertex="1" parent="1">
          <mxGeometry x="2863" y="1218.5" width="100" height="86" as="geometry" />
        </mxCell>
        <mxCell id="bboikSEtlDNSUxXmhBnC-47" value="&lt;div&gt;Step&lt;br&gt;&lt;/div&gt;&lt;div&gt;.stepName (gender)&lt;/div&gt;&lt;div&gt;&lt;div&gt;.starting&lt;/div&gt;.ending&lt;/div&gt;&lt;div&gt;&lt;br&gt;&lt;/div&gt;" style="text;whiteSpace=wrap;html=1;fontSize=16;verticalAlign=top;" vertex="1" parent="1">
          <mxGeometry x="2752" y="1016" width="77.16" height="104" as="geometry" />
        </mxCell>
        <mxCell id="bboikSEtlDNSUxXmhBnC-48" value="&lt;div&gt;.name&lt;br&gt;&lt;/div&gt;&lt;div&gt;.date&lt;/div&gt;&lt;div&gt;.value(s)&lt;/div&gt;&lt;div&gt;.unidad&lt;/div&gt;&lt;div&gt;.tipo&lt;br&gt;&lt;/div&gt;" style="text;whiteSpace=wrap;html=1;fontSize=16;verticalAlign=top;" vertex="1" parent="1">
          <mxGeometry x="2965" y="1018" width="100" height="112" as="geometry" />
        </mxCell>
        <mxCell id="bboikSEtlDNSUxXmhBnC-49" value="Cycle step variables tree" style="text;html=1;strokeColor=none;fillColor=none;align=left;verticalAlign=middle;whiteSpace=wrap;rounded=0;fontSize=16;" vertex="1" parent="1">
          <mxGeometry x="2370" y="1027" width="150" height="30" as="geometry" />
        </mxCell>
        <mxCell id="bboikSEtlDNSUxXmhBnC-50" value="&lt;div&gt;.(x&amp;gt;p)&lt;/div&gt;&lt;div&gt;.(x&amp;lt;p)&lt;/div&gt;&lt;div&gt;.(x==p)&lt;/div&gt;&lt;div&gt;.(f(x)*p))&lt;/div&gt;&lt;div&gt;.(p)&lt;/div&gt;" style="text;whiteSpace=wrap;html=1;fontSize=16;verticalAlign=top;" vertex="1" parent="1">
          <mxGeometry x="3380" y="1057" width="90" height="155.5" as="geometry" />
        </mxCell>
        <mxCell id="bboikSEtlDNSUxXmhBnC-51" value="Etapas.Especie" style="text;html=1;strokeColor=none;fillColor=none;align=left;verticalAlign=middle;whiteSpace=wrap;rounded=0;fontSize=16;" vertex="1" parent="1">
          <mxGeometry x="3020" y="570" width="120" height="20" as="geometry" />
        </mxCell>
        <mxCell id="bboikSEtlDNSUxXmhBnC-52" value="Peces" style="text;html=1;strokeColor=none;fillColor=none;align=left;verticalAlign=middle;whiteSpace=wrap;rounded=0;fontSize=16;" vertex="1" parent="1">
          <mxGeometry x="3150" y="570" width="60" height="20" as="geometry" />
        </mxCell>
        <mxCell id="bboikSEtlDNSUxXmhBnC-53" value="Razas" style="text;html=1;strokeColor=none;fillColor=none;align=left;verticalAlign=middle;whiteSpace=wrap;rounded=0;fontSize=16;" vertex="1" parent="1">
          <mxGeometry x="3230" y="570" width="100" height="20" as="geometry" />
        </mxCell>
        <mxCell id="bboikSEtlDNSUxXmhBnC-54" value="Productos" style="text;html=1;strokeColor=none;fillColor=none;align=left;verticalAlign=middle;whiteSpace=wrap;rounded=0;fontSize=16;" vertex="1" parent="1">
          <mxGeometry x="3290" y="570" width="100" height="20" as="geometry" />
        </mxCell>
        <mxCell id="bboikSEtlDNSUxXmhBnC-55" value="Usos" style="text;html=1;strokeColor=none;fillColor=none;align=left;verticalAlign=middle;whiteSpace=wrap;rounded=0;fontSize=16;" vertex="1" parent="1">
          <mxGeometry x="3380" y="570" width="70" height="20" as="geometry" />
        </mxCell>
        <mxCell id="bboikSEtlDNSUxXmhBnC-56" value="Funcional Unit state variables" style="text;html=1;strokeColor=none;fillColor=none;align=left;verticalAlign=middle;whiteSpace=wrap;rounded=0;fontSize=16;fontStyle=1" vertex="1" parent="1">
          <mxGeometry x="2370" y="690" width="220" height="50" as="geometry" />
        </mxCell>
        <mxCell id="bboikSEtlDNSUxXmhBnC-57" value="&lt;div&gt;Infrastructure.Social &lt;br&gt;&lt;/div&gt;&lt;div&gt;Infrastructure.WaterManagement &lt;br&gt;&lt;/div&gt;&lt;div&gt;Infrastructure.Logistics &lt;br&gt;&lt;/div&gt;&lt;div&gt;Infrastructure.Transformation &lt;br&gt;&lt;/div&gt;&lt;div&gt;Infrastructure.Agricultural &lt;br&gt;&lt;/div&gt;&lt;div&gt;Infrastructure.Livestock&lt;/div&gt;" style="text;whiteSpace=wrap;html=1;" vertex="1" parent="1">
          <mxGeometry x="2630" y="690" width="120" height="110" as="geometry" />
        </mxCell>
        <mxCell id="bboikSEtlDNSUxXmhBnC-58" value="&lt;div&gt;Water.Lake &lt;br&gt;&lt;/div&gt;Water.Sea&lt;div&gt;Water.River&lt;/div&gt;&lt;div&gt;Water.Pond&lt;/div&gt;" style="text;whiteSpace=wrap;html=1;" vertex="1" parent="1">
          <mxGeometry x="2835" y="690" width="120" height="110" as="geometry" />
        </mxCell>
        <mxCell id="bboikSEtlDNSUxXmhBnC-59" value="&lt;div&gt;land.annual&lt;/div&gt;&lt;div&gt;land.perenial&lt;div&gt;land.rotation.anual.pasture&lt;/div&gt;&lt;div&gt;land.silvopastoral&lt;/div&gt;land.agroforestal&lt;/div&gt;&lt;div&gt;land.edible.forest&lt;div&gt;land.greenhouse&lt;/div&gt;&lt;div&gt;land.fence&lt;/div&gt;&lt;div&gt;land.forest&lt;/div&gt;&lt;div&gt;&lt;br&gt;&lt;div&gt;&lt;br&gt;&lt;br&gt;&lt;/div&gt;&lt;/div&gt;&lt;div&gt;&lt;br&gt;&lt;br&gt;&lt;/div&gt;&lt;br&gt;&lt;br&gt;&lt;/div&gt;" style="text;whiteSpace=wrap;html=1;" vertex="1" parent="1">
          <mxGeometry x="2980" y="690" width="120" height="110" as="geometry" />
        </mxCell>
        <mxCell id="bboikSEtlDNSUxXmhBnC-60" value="5. TypeOfVar&lt;div&gt;&lt;br&gt;&lt;/div&gt;" style="text;html=1;strokeColor=none;fillColor=none;align=left;verticalAlign=middle;whiteSpace=wrap;rounded=0;fontSize=16;" vertex="1" parent="1">
          <mxGeometry x="2842.8399999999997" y="905" width="100" height="44" as="geometry" />
        </mxCell>
        <mxCell id="bboikSEtlDNSUxXmhBnC-61" value="4. Step or group" style="text;html=1;strokeColor=none;fillColor=none;align=left;verticalAlign=middle;whiteSpace=wrap;rounded=0;fontSize=16;" vertex="1" parent="1">
          <mxGeometry x="2752" y="902" width="100" height="38" as="geometry" />
        </mxCell>
        <mxCell id="bboikSEtlDNSUxXmhBnC-62" value="6. Variable " style="text;html=1;strokeColor=none;fillColor=none;align=left;verticalAlign=middle;whiteSpace=wrap;rounded=0;fontSize=16;" vertex="1" parent="1">
          <mxGeometry x="2960" y="898.5" width="100" height="32" as="geometry" />
        </mxCell>
        <mxCell id="bboikSEtlDNSUxXmhBnC-63" value="&lt;div style=&quot;font-size: 16px;&quot;&gt;ID.UFs .Especies .Varieties .Products .Uses&lt;/div&gt;&lt;div style=&quot;font-size: 16px;&quot;&gt;.Fcha inco&lt;br style=&quot;font-size: 16px;&quot;&gt;&lt;/div&gt;" style="text;whiteSpace=wrap;html=1;fontSize=16;verticalAlign=top;" vertex="1" parent="1">
          <mxGeometry x="2519" y="1016" width="78" height="144" as="geometry" />
        </mxCell>
        <mxCell id="bboikSEtlDNSUxXmhBnC-64" value="Tree" style="whiteSpace=wrap;html=1;" vertex="1" parent="1">
          <mxGeometry x="2522" y="1190" width="45" height="31" as="geometry" />
        </mxCell>
        <mxCell id="bboikSEtlDNSUxXmhBnC-65" value="1.Cycle ID" style="text;html=1;strokeColor=none;fillColor=none;align=left;verticalAlign=middle;whiteSpace=wrap;rounded=0;fontSize=16;" vertex="1" parent="1">
          <mxGeometry x="2519" y="870" width="100" height="82" as="geometry" />
        </mxCell>
        <mxCell id="bboikSEtlDNSUxXmhBnC-66" value="Cycle model parameters combinations" style="text;html=1;strokeColor=none;fillColor=none;align=left;verticalAlign=middle;whiteSpace=wrap;rounded=0;fontSize=16;" vertex="1" parent="1">
          <mxGeometry x="2370" y="1532" width="220" height="30" as="geometry" />
        </mxCell>
        <mxCell id="bboikSEtlDNSUxXmhBnC-67" value="p" style="text;whiteSpace=wrap;html=1;fontSize=16;verticalAlign=top;" vertex="1" parent="1">
          <mxGeometry x="2700.84" y="1523.5" width="100" height="90" as="geometry" />
        </mxCell>
        <mxCell id="bboikSEtlDNSUxXmhBnC-68" value=".step" style="text;whiteSpace=wrap;html=1;fontSize=16;verticalAlign=top;" vertex="1" parent="1">
          <mxGeometry x="2835" y="1523.5" width="100" height="90" as="geometry" />
        </mxCell>
        <mxCell id="bboikSEtlDNSUxXmhBnC-69" value="&lt;div&gt;.log&lt;/div&gt;&lt;div&gt;.logit&lt;/div&gt;&lt;div&gt;.exp&lt;br&gt;&lt;/div&gt;" style="text;whiteSpace=wrap;html=1;fontSize=16;verticalAlign=top;" vertex="1" parent="1">
          <mxGeometry x="3413" y="1279" width="60" height="74.5" as="geometry" />
        </mxCell>
        <mxCell id="bboikSEtlDNSUxXmhBnC-70" value="&lt;div&gt;.varname&lt;/div&gt;&lt;div&gt;.value&lt;br&gt;&lt;/div&gt;" style="text;whiteSpace=wrap;html=1;fontSize=16;verticalAlign=top;" vertex="1" parent="1">
          <mxGeometry x="3045" y="1524.5" width="100" height="90" as="geometry" />
        </mxCell>
        <mxCell id="bboikSEtlDNSUxXmhBnC-71" value="&lt;div&gt;.product&lt;/div&gt;&lt;div&gt;.activity&lt;/div&gt;&lt;div&gt;.observation&lt;/div&gt;" style="text;whiteSpace=wrap;html=1;fontSize=16;verticalAlign=top;" vertex="1" parent="1">
          <mxGeometry x="2930" y="1526" width="100" height="90" as="geometry" />
        </mxCell>
        <mxCell id="bboikSEtlDNSUxXmhBnC-72" value="&lt;div&gt;6. IndepVar&lt;/div&gt;&lt;div&gt;(visibles linked in the graph&lt;br&gt;&lt;/div&gt;" style="text;html=1;strokeColor=none;fillColor=none;align=left;verticalAlign=middle;whiteSpace=wrap;rounded=0;fontSize=16;" vertex="1" parent="1">
          <mxGeometry x="3170" y="905" width="100" height="73" as="geometry" />
        </mxCell>
        <mxCell id="bboikSEtlDNSUxXmhBnC-73" value="7. Parameter (admin, ML) " style="text;html=1;strokeColor=none;fillColor=none;align=left;verticalAlign=middle;whiteSpace=wrap;rounded=0;fontSize=16;" vertex="1" parent="1">
          <mxGeometry x="3270" y="904" width="100" height="32" as="geometry" />
        </mxCell>
        <mxCell id="bboikSEtlDNSUxXmhBnC-74" value="&lt;div&gt;.degreeDay&lt;br&gt;&lt;/div&gt;&lt;div&gt;.SoilTexture&lt;/div&gt;&lt;div&gt;.droughtDays&lt;/div&gt;&lt;div&gt;.humidityDays&lt;/div&gt;&lt;div&gt;.lightPercCoverage&lt;/div&gt;&lt;div&gt;.organicContent&lt;/div&gt;&lt;div&gt;&lt;div&gt;.SoilTexture&lt;/div&gt;&lt;div&gt;.activity&lt;/div&gt;&lt;div&gt;.observation&lt;/div&gt;&lt;div&gt;.observationOrCalculation&lt;br&gt;&lt;/div&gt;&lt;/div&gt;" style="text;whiteSpace=wrap;html=1;fontSize=16;verticalAlign=top;" vertex="1" parent="1">
          <mxGeometry x="3159" y="1340" width="87" height="155.5" as="geometry" />
        </mxCell>
        <mxCell id="bboikSEtlDNSUxXmhBnC-75" value="7. Link &lt;br&gt;indep/ response" style="text;html=1;strokeColor=none;fillColor=none;align=left;verticalAlign=middle;whiteSpace=wrap;rounded=0;fontSize=16;" vertex="1" parent="1">
          <mxGeometry x="3241.67" y="1230" width="64.16" height="63" as="geometry" />
        </mxCell>
        <mxCell id="bboikSEtlDNSUxXmhBnC-76" value="&lt;div&gt;.var1ID&lt;/div&gt;&lt;div&gt;&lt;div&gt;.var2ID&lt;/div&gt;&lt;/div&gt;" style="text;whiteSpace=wrap;html=1;fontSize=16;verticalAlign=top;" vertex="1" parent="1">
          <mxGeometry x="3170" y="1018" width="90" height="72" as="geometry" />
        </mxCell>
        <mxCell id="bboikSEtlDNSUxXmhBnC-77" value="Algorithm: build the calculation graph, send alert when data is missing, calculate" style="text;html=1;strokeColor=none;fillColor=none;align=left;verticalAlign=middle;whiteSpace=wrap;rounded=0;fontSize=16;" vertex="1" parent="1">
          <mxGeometry x="2370" y="1240" width="720" height="20" as="geometry" />
        </mxCell>
        <mxCell id="bboikSEtlDNSUxXmhBnC-78" value="2.Model" style="text;html=1;strokeColor=none;fillColor=none;align=left;verticalAlign=middle;whiteSpace=wrap;rounded=0;fontSize=16;" vertex="1" parent="1">
          <mxGeometry x="2590" y="871" width="78" height="82" as="geometry" />
        </mxCell>
        <mxCell id="bboikSEtlDNSUxXmhBnC-79" value="&lt;div&gt;Model&lt;/div&gt;&lt;div&gt;.name&lt;/div&gt;&lt;div&gt;.stepNames&lt;br&gt;&lt;/div&gt;&lt;div&gt;.transitionMatrix&lt;br&gt;&lt;/div&gt;&amp;nbsp;(binary)" style="text;whiteSpace=wrap;html=1;fontSize=16;verticalAlign=top;" vertex="1" parent="1">
          <mxGeometry x="2590" y="1018" width="68" height="100" as="geometry" />
        </mxCell>
        <mxCell id="bboikSEtlDNSUxXmhBnC-80" value="&lt;div&gt;3. Associated&lt;/div&gt;&lt;div&gt;cycle&lt;/div&gt;" style="text;html=1;strokeColor=none;fillColor=none;align=left;verticalAlign=middle;whiteSpace=wrap;rounded=0;fontSize=16;" vertex="1" parent="1">
          <mxGeometry x="2669" y="891" width="78" height="82" as="geometry" />
        </mxCell>
        <mxCell id="bboikSEtlDNSUxXmhBnC-81" value="Associated&lt;div&gt;cycle&lt;/div&gt;&lt;div&gt;.CyceID&lt;br&gt;&lt;/div&gt;" style="text;html=1;strokeColor=none;fillColor=none;align=left;verticalAlign=middle;whiteSpace=wrap;rounded=0;fontSize=16;" vertex="1" parent="1">
          <mxGeometry x="2667.84" y="1009.75" width="78" height="82" as="geometry" />
        </mxCell>
        <mxCell id="bboikSEtlDNSUxXmhBnC-82" value="&lt;div&gt;Type&lt;br&gt;&lt;/div&gt;&lt;div&gt;.activity &lt;br&gt;&lt;/div&gt;&lt;div&gt;.observation&lt;/div&gt;" style="text;whiteSpace=wrap;html=1;fontSize=16;verticalAlign=top;" vertex="1" parent="1">
          <mxGeometry x="2842.84" y="1016" width="77.16" height="90" as="geometry" />
        </mxCell>
        <mxCell id="bboikSEtlDNSUxXmhBnC-83" value="7. TypeOfCn-structn " style="text;html=1;strokeColor=none;fillColor=none;align=left;verticalAlign=middle;whiteSpace=wrap;rounded=0;fontSize=16;" vertex="1" parent="1">
          <mxGeometry x="3051.34" y="908" width="100" height="32" as="geometry" />
        </mxCell>
        <mxCell id="bboikSEtlDNSUxXmhBnC-84" value="&lt;div&gt;.calculated&lt;/div&gt;&lt;div&gt;.observed&lt;/div&gt;" style="text;whiteSpace=wrap;html=1;fontSize=16;verticalAlign=top;" vertex="1" parent="1">
          <mxGeometry x="3050" y="1018" width="100" height="72" as="geometry" />
        </mxCell>
        <mxCell id="bboikSEtlDNSUxXmhBnC-85" value="&lt;div&gt;8. Function &lt;br&gt;&lt;/div&gt;&lt;div&gt;(admin)&lt;br&gt;&lt;/div&gt;" style="text;html=1;strokeColor=none;fillColor=none;align=left;verticalAlign=middle;whiteSpace=wrap;rounded=0;fontSize=16;" vertex="1" parent="1">
          <mxGeometry x="3380" y="905" width="100" height="32" as="geometry" />
        </mxCell>
        <mxCell id="bboikSEtlDNSUxXmhBnC-86" value="&lt;div&gt;.p1ID&lt;/div&gt;&lt;div&gt;&lt;div&gt;.p2ID&lt;/div&gt;&lt;/div&gt;" style="text;whiteSpace=wrap;html=1;fontSize=16;verticalAlign=top;" vertex="1" parent="1">
          <mxGeometry x="3275" y="1018" width="90" height="72" as="geometry" />
        </mxCell>
        <mxCell id="bboikSEtlDNSUxXmhBnC-87" value=".function" style="text;whiteSpace=wrap;html=1;fontSize=16;verticalAlign=top;" vertex="1" parent="1">
          <mxGeometry x="3380" y="1018" width="90" height="42" as="geometry" />
        </mxCell>
        <mxCell id="bboikSEtlDNSUxXmhBnC-88" value="Animales" style="text;html=1;strokeColor=none;fillColor=none;align=left;verticalAlign=middle;whiteSpace=wrap;rounded=0;fontSize=16;" vertex="1" parent="1">
          <mxGeometry x="3165" y="621" width="60" height="20" as="geometry" />
        </mxCell>
        <mxCell id="bboikSEtlDNSUxXmhBnC-89" value="Cultivos" style="text;html=1;strokeColor=none;fillColor=none;align=left;verticalAlign=middle;whiteSpace=wrap;rounded=0;fontSize=16;" vertex="1" parent="1">
          <mxGeometry x="3270" y="621" width="60" height="20" as="geometry" />
        </mxCell>
        <mxCell id="bboikSEtlDNSUxXmhBnC-90" value="&lt;div&gt;economicModel&lt;/div&gt;" style="swimlane;fontStyle=1;align=center;verticalAlign=top;childLayout=stackLayout;horizontal=1;startSize=26;horizontalStack=0;resizeParent=1;resizeParentMax=0;resizeLast=0;collapsible=1;marginBottom=0;whiteSpace=wrap;html=1;" vertex="1" parent="1">
          <mxGeometry x="1701" y="137" width="182" height="120" as="geometry" />
        </mxCell>
        <mxCell id="bboikSEtlDNSUxXmhBnC-91" value="+compensateConsolidation: points" style="text;strokeColor=none;fillColor=none;align=left;verticalAlign=top;spacingLeft=4;spacingRight=4;overflow=hidden;rotatable=0;points=[[0,0.5],[1,0.5]];portConstraint=eastwest;whiteSpace=wrap;html=1;" vertex="1" parent="bboikSEtlDNSUxXmhBnC-90">
          <mxGeometry y="26" width="182" height="44" as="geometry" />
        </mxCell>
        <mxCell id="bboikSEtlDNSUxXmhBnC-92" value="" style="line;strokeWidth=1;fillColor=none;align=left;verticalAlign=middle;spacingTop=-1;spacingLeft=3;spacingRight=3;rotatable=0;labelPosition=right;points=[];portConstraint=eastwest;strokeColor=inherit;" vertex="1" parent="bboikSEtlDNSUxXmhBnC-90">
          <mxGeometry y="70" width="182" height="8" as="geometry" />
        </mxCell>
        <mxCell id="bboikSEtlDNSUxXmhBnC-93" value="+modifyCompens(points): points" style="text;strokeColor=none;fillColor=none;align=left;verticalAlign=top;spacingLeft=4;spacingRight=4;overflow=hidden;rotatable=0;points=[[0,0.5],[1,0.5]];portConstraint=eastwest;whiteSpace=wrap;html=1;" vertex="1" parent="bboikSEtlDNSUxXmhBnC-90">
          <mxGeometry y="78" width="182" height="42" as="geometry" />
        </mxCell>
        <mxCell id="bboikSEtlDNSUxXmhBnC-94" value="Points" style="swimlane;fontStyle=1;align=center;verticalAlign=top;childLayout=stackLayout;horizontal=1;startSize=26;horizontalStack=0;resizeParent=1;resizeParentMax=0;resizeLast=0;collapsible=1;marginBottom=0;whiteSpace=wrap;html=1;" vertex="1" parent="1">
          <mxGeometry x="1712" y="20" width="160" height="86" as="geometry" />
        </mxCell>
        <mxCell id="bboikSEtlDNSUxXmhBnC-95" value="+ value: float" style="text;strokeColor=none;fillColor=none;align=left;verticalAlign=top;spacingLeft=4;spacingRight=4;overflow=hidden;rotatable=0;points=[[0,0.5],[1,0.5]];portConstraint=eastwest;whiteSpace=wrap;html=1;" vertex="1" parent="bboikSEtlDNSUxXmhBnC-94">
          <mxGeometry y="26" width="160" height="26" as="geometry" />
        </mxCell>
        <mxCell id="bboikSEtlDNSUxXmhBnC-96" value="" style="line;strokeWidth=1;fillColor=none;align=left;verticalAlign=middle;spacingTop=-1;spacingLeft=3;spacingRight=3;rotatable=0;labelPosition=right;points=[];portConstraint=eastwest;strokeColor=inherit;" vertex="1" parent="bboikSEtlDNSUxXmhBnC-94">
          <mxGeometry y="52" width="160" height="8" as="geometry" />
        </mxCell>
        <mxCell id="bboikSEtlDNSUxXmhBnC-97" value="+ changeValue(float): value" style="text;strokeColor=none;fillColor=none;align=left;verticalAlign=top;spacingLeft=4;spacingRight=4;overflow=hidden;rotatable=0;points=[[0,0.5],[1,0.5]];portConstraint=eastwest;whiteSpace=wrap;html=1;" vertex="1" parent="bboikSEtlDNSUxXmhBnC-94">
          <mxGeometry y="60" width="160" height="26" as="geometry" />
        </mxCell>
        <mxCell id="bboikSEtlDNSUxXmhBnC-98" value="Extends" style="endArrow=block;endSize=16;endFill=0;html=1;rounded=0;" edge="1" parent="1" source="bboikSEtlDNSUxXmhBnC-90" target="bboikSEtlDNSUxXmhBnC-97">
          <mxGeometry x="-0.2778" y="-25" width="160" relative="1" as="geometry">
            <mxPoint x="2017" y="290" as="sourcePoint" />
            <mxPoint x="2017" y="251" as="targetPoint" />
            <mxPoint as="offset" />
          </mxGeometry>
        </mxCell>
        <mxCell id="bboikSEtlDNSUxXmhBnC-100" value="Extends" style="endArrow=block;endSize=16;endFill=0;html=1;rounded=0;entryX=-0.003;entryY=-0.134;entryDx=0;entryDy=0;entryPerimeter=0;" edge="1" parent="1" source="jO_6KhbkxEUZzAkIXSuS-12" target="KSp4SFGzi_MSVjwqNxPU-75">
          <mxGeometry x="-0.2778" y="-25" width="160" relative="1" as="geometry">
            <mxPoint x="1802" y="147" as="sourcePoint" />
            <mxPoint x="1802" y="116" as="targetPoint" />
            <mxPoint as="offset" />
          </mxGeometry>
        </mxCell>
        <mxCell id="bboikSEtlDNSUxXmhBnC-102" value="" style="endArrow=open;endFill=1;endSize=12;html=1;rounded=0;exitX=0.5;exitY=0;exitDx=0;exitDy=0;" edge="1" parent="1" source="KSp4SFGzi_MSVjwqNxPU-74" target="KSp4SFGzi_MSVjwqNxPU-81">
          <mxGeometry width="160" relative="1" as="geometry">
            <mxPoint x="1780" y="440" as="sourcePoint" />
            <mxPoint x="1940" y="440" as="targetPoint" />
          </mxGeometry>
        </mxCell>
        <mxCell id="bboikSEtlDNSUxXmhBnC-103" value="administrator" style="swimlane;fontStyle=1;align=center;verticalAlign=top;childLayout=stackLayout;horizontal=1;startSize=26;horizontalStack=0;resizeParent=1;resizeParentMax=0;resizeLast=0;collapsible=1;marginBottom=0;whiteSpace=wrap;html=1;" vertex="1" parent="1">
          <mxGeometry x="2120" y="219" width="160" height="70" as="geometry" />
        </mxCell>
        <mxCell id="bboikSEtlDNSUxXmhBnC-104" value="" style="line;strokeWidth=1;fillColor=none;align=left;verticalAlign=middle;spacingTop=-1;spacingLeft=3;spacingRight=3;rotatable=0;labelPosition=right;points=[];portConstraint=eastwest;strokeColor=inherit;" vertex="1" parent="bboikSEtlDNSUxXmhBnC-103">
          <mxGeometry y="26" width="160" height="8" as="geometry" />
        </mxCell>
        <mxCell id="bboikSEtlDNSUxXmhBnC-105" value="+modifyModel(points)" style="text;strokeColor=none;fillColor=none;align=left;verticalAlign=top;spacingLeft=4;spacingRight=4;overflow=hidden;rotatable=0;points=[[0,0.5],[1,0.5]];portConstraint=eastwest;whiteSpace=wrap;html=1;" vertex="1" parent="bboikSEtlDNSUxXmhBnC-103">
          <mxGeometry y="34" width="160" height="36" as="geometry" />
        </mxCell>
      </root>
    </mxGraphModel>
  </diagram>
  <diagram id="6a731a19-8d31-9384-78a2-239565b7b9f0" name="Bovinos">
    <mxGraphModel dx="1194" dy="779" grid="1" gridSize="10" guides="1" tooltips="1" connect="1" arrows="1" fold="1" page="1" pageScale="1" pageWidth="1169" pageHeight="827" background="none" math="0" shadow="0">
      <root>
        <mxCell id="0" />
        <mxCell id="1" parent="0" />
        <mxCell id="wV_RwZgJfHrOoYBap2ik-1772" value="" style="edgeStyle=orthogonalEdgeStyle;rounded=0;orthogonalLoop=1;jettySize=auto;html=1;" parent="1" source="1749" target="wV_RwZgJfHrOoYBap2ik-1771" edge="1">
          <mxGeometry relative="1" as="geometry" />
        </mxCell>
        <mxCell id="1749" value="A. Amamantando" style="rounded=1;whiteSpace=wrap;html=1;shadow=0;labelBackgroundColor=none;strokeColor=none;strokeWidth=3;fillColor=#2F5B7C;fontFamily=Helvetica;fontSize=16;fontColor=#FFFFFF;align=center;fontStyle=1;spacing=5;arcSize=7;perimeterSpacing=2;" parent="1" vertex="1">
          <mxGeometry x="55" y="249" width="140" height="61" as="geometry" />
        </mxCell>
        <mxCell id="1753" value="C. Lactando" style="rounded=1;whiteSpace=wrap;html=1;shadow=0;labelBackgroundColor=none;strokeColor=none;strokeWidth=3;fillColor=#e85642;fontFamily=Helvetica;fontSize=14;fontColor=#FFFFFF;align=center;spacing=5;fontStyle=1;arcSize=7;perimeterSpacing=2;" parent="1" vertex="1">
          <mxGeometry x="521" y="248" width="150" height="60" as="geometry" />
        </mxCell>
        <mxCell id="1754" value="&lt;div style=&quot;font-size: 12px;&quot;&gt;&lt;font style=&quot;font-size: 12px;&quot;&gt;&lt;b&gt;&lt;font style=&quot;font-size: 12px;&quot; color=&quot;#000000&quot;&gt;F. Leche en oferta&lt;/font&gt;&lt;/b&gt;&lt;/font&gt;&lt;/div&gt;" style="rounded=1;whiteSpace=wrap;html=1;shadow=0;labelBackgroundColor=none;strokeColor=none;strokeWidth=3;fillColor=#E0E0E0;fontFamily=Helvetica;fontSize=14;align=center;spacing=5;fontStyle=0;arcSize=7;perimeterSpacing=2;fontColor=#333333;" parent="1" vertex="1">
          <mxGeometry x="847.25" y="248" width="133" height="60" as="geometry" />
        </mxCell>
        <mxCell id="DLMDTIZW3BZclp9K0W_a-1778" value="" style="edgeStyle=orthogonalEdgeStyle;rounded=0;orthogonalLoop=1;jettySize=auto;html=1;fontSize=12;fontColor=#000000;endArrow=none;endFill=0;entryX=0;entryY=0.5;entryDx=0;entryDy=0;" parent="1" source="1760" target="DLMDTIZW3BZclp9K0W_a-1774" edge="1">
          <mxGeometry relative="1" as="geometry">
            <mxPoint x="880" y="140" as="targetPoint" />
          </mxGeometry>
        </mxCell>
        <mxCell id="DLMDTIZW3BZclp9K0W_a-1779" value="&lt;div&gt;E_Fv=NÃºmero, &lt;br&gt;&lt;/div&gt;&lt;div&gt;Sexos, &lt;br&gt;&lt;/div&gt;&lt;div&gt;Fecha&lt;/div&gt;" style="edgeLabel;html=1;align=center;verticalAlign=middle;resizable=0;points=[];fontSize=12;fontColor=#000000;labelBackgroundColor=#D4AD9B;labelBorderColor=#A0522D;" parent="DLMDTIZW3BZclp9K0W_a-1778" vertex="1" connectable="0">
          <mxGeometry x="-0.1494" relative="1" as="geometry">
            <mxPoint x="16" as="offset" />
          </mxGeometry>
        </mxCell>
        <mxCell id="1760" value="E. Engorando" style="rounded=1;whiteSpace=wrap;html=1;shadow=0;labelBackgroundColor=none;strokeColor=#572C18;strokeWidth=3;fillColor=#A0522D;fontFamily=Helvetica;fontSize=14;fontColor=#FFFFFF;align=center;spacing=5;fontStyle=1;arcSize=7;perimeterSpacing=2;" parent="1" vertex="1">
          <mxGeometry x="521" y="110" width="150" height="60" as="geometry" />
        </mxCell>
        <mxCell id="qsEijEhWH3xLUdq9jlML-1775" value="" style="edgeStyle=orthogonalEdgeStyle;rounded=0;orthogonalLoop=1;jettySize=auto;html=1;endArrow=none;endFill=0;entryX=0.5;entryY=1;entryDx=0;entryDy=0;exitX=0.5;exitY=0;exitDx=0;exitDy=0;" parent="1" source="1769" target="DLMDTIZW3BZclp9K0W_a-1774" edge="1">
          <mxGeometry relative="1" as="geometry">
            <Array as="points">
              <mxPoint x="1072" y="182" />
            </Array>
          </mxGeometry>
        </mxCell>
        <mxCell id="1769" value="&lt;font style=&quot;font-size: 12px;&quot;&gt;&lt;b&gt;Gv.f.p=(&lt;/b&gt;&lt;/font&gt;&lt;font style=&quot;font-size: 12px;&quot;&gt;&lt;b&gt;fechas, cantidades ofertas, previstas, observadas, restantes&lt;/b&gt;&lt;/font&gt;&lt;font style=&quot;font-size: 12px;&quot;&gt;&lt;b&gt;)&lt;br&gt;&lt;/b&gt;&lt;/font&gt;" style="rounded=1;whiteSpace=wrap;html=1;shadow=0;labelBackgroundColor=none;strokeColor=#572C18;strokeWidth=3;fillColor=#856C61;fontFamily=Helvetica;fontSize=14;fontColor=#000000;align=center;spacing=5;arcSize=7;perimeterSpacing=2;" parent="1" vertex="1">
          <mxGeometry x="1017.25" y="470" width="108.5" height="100" as="geometry" />
        </mxCell>
        <mxCell id="yf1A8xf_c-HTEzNxy_wl-1791" style="edgeStyle=orthogonalEdgeStyle;rounded=0;orthogonalLoop=1;jettySize=auto;html=1;exitX=0.5;exitY=0;exitDx=0;exitDy=0;entryX=0.75;entryY=0;entryDx=0;entryDy=0;endArrow=classic;endFill=1;" parent="1" source="1771" target="1749" edge="1">
          <mxGeometry relative="1" as="geometry">
            <Array as="points">
              <mxPoint x="355" y="190" />
              <mxPoint x="161" y="190" />
            </Array>
          </mxGeometry>
        </mxCell>
        <mxCell id="yf1A8xf_c-HTEzNxy_wl-1792" value="&lt;div&gt;NÃºmero terneros&lt;/div&gt;&lt;div&gt;hembras y machos&lt;/div&gt;" style="edgeLabel;html=1;align=center;verticalAlign=middle;resizable=0;points=[];" parent="yf1A8xf_c-HTEzNxy_wl-1791" vertex="1" connectable="0">
          <mxGeometry x="-0.1821" relative="1" as="geometry">
            <mxPoint as="offset" />
          </mxGeometry>
        </mxCell>
        <mxCell id="1771" value="B. Levantando" style="rounded=1;whiteSpace=wrap;html=1;shadow=0;labelBackgroundColor=none;strokeColor=none;strokeWidth=3;fillColor=#12aab5;fontFamily=Helvetica;fontSize=14;fontColor=#FFFFFF;align=center;spacing=5;fontStyle=1;arcSize=7;perimeterSpacing=2;" parent="1" vertex="1">
          <mxGeometry x="280" y="248.9999999999999" width="150" height="60" as="geometry" />
        </mxCell>
        <mxCell id="z_6aWykkNIrOVK7mSuos-1771" value="D. Descansando" style="rounded=1;whiteSpace=wrap;html=1;shadow=0;labelBackgroundColor=none;strokeColor=none;strokeWidth=3;fillColor=#a20025;fontFamily=Helvetica;fontSize=14;align=center;spacing=5;fontStyle=1;arcSize=7;perimeterSpacing=2;fontColor=#ffffff;" parent="1" vertex="1">
          <mxGeometry x="523" y="380" width="148" height="60" as="geometry" />
        </mxCell>
        <mxCell id="wV_RwZgJfHrOoYBap2ik-1771" value="&lt;div style=&quot;font-size: 12px;&quot;&gt;A.ID&lt;/div&gt;&lt;div style=&quot;font-size: 12px;&quot;&gt;A.ID.madre&lt;br style=&quot;font-size: 12px;&quot;&gt;&lt;/div&gt;&lt;div style=&quot;font-size: 12px;&quot;&gt;A.ID.padre&lt;/div&gt;&lt;div style=&quot;font-size: 12px;&quot;&gt;A.NÃºmero.Machos.t A.NÃºmero.Hembras.t A.Inicio_observado.Fecha&lt;/div&gt;&lt;div&gt;A.Inicio_observado.Numero.Machos A.Inicio_observado.Numero.Hembras&lt;/div&gt;" style="rounded=1;whiteSpace=wrap;html=1;fontSize=12;fillColor=#BBCAD6;strokeColor=#2F5B7C;fontColor=#000000;shadow=0;labelBackgroundColor=none;strokeWidth=3;fontStyle=1;spacing=5;arcSize=7;" parent="1" vertex="1">
          <mxGeometry x="50" y="360" width="150" height="150" as="geometry" />
        </mxCell>
        <mxCell id="wV_RwZgJfHrOoYBap2ik-1781" value="" style="edgeStyle=orthogonalEdgeStyle;rounded=0;orthogonalLoop=1;jettySize=auto;html=1;entryX=0.5;entryY=1;entryDx=0;entryDy=0;" parent="1" source="wV_RwZgJfHrOoYBap2ik-1775" target="wV_RwZgJfHrOoYBap2ik-1771" edge="1">
          <mxGeometry relative="1" as="geometry">
            <mxPoint x="125" y="590" as="targetPoint" />
          </mxGeometry>
        </mxCell>
        <mxCell id="wV_RwZgJfHrOoYBap2ik-1775" value="&lt;div&gt;A.p.t=Tiempo nacimiento-destete&lt;/div&gt;&lt;div&gt;A.p.m=Mortalidad&lt;br&gt;&lt;/div&gt;" style="rounded=1;whiteSpace=wrap;html=1;fontSize=16;fillColor=#BBCAD6;strokeColor=none;fontColor=#000000;shadow=0;labelBackgroundColor=none;strokeWidth=3;fontStyle=1;spacing=5;arcSize=7;" parent="1" vertex="1">
          <mxGeometry x="53.5" y="670" width="142.5" height="80" as="geometry" />
        </mxCell>
        <mxCell id="wV_RwZgJfHrOoYBap2ik-1789" value="" style="edgeStyle=orthogonalEdgeStyle;rounded=0;orthogonalLoop=1;jettySize=auto;html=1;fontColor=#0839FF;" parent="1" source="wV_RwZgJfHrOoYBap2ik-1777" target="wV_RwZgJfHrOoYBap2ik-1787" edge="1">
          <mxGeometry relative="1" as="geometry" />
        </mxCell>
        <mxCell id="wV_RwZgJfHrOoYBap2ik-1777" value="&lt;div&gt;B.p.t=Tiempo levante&lt;/div&gt;&lt;div&gt;B.p.m= mortalidad&lt;/div&gt;&lt;div&gt;B.p.f= fecundidad (hembras, machos)&lt;br&gt;&lt;/div&gt;" style="rounded=1;whiteSpace=wrap;html=1;fontSize=14;fillColor=#9AC7BF;strokeColor=none;fontColor=#000000;shadow=0;labelBackgroundColor=none;strokeWidth=3;spacing=5;fontStyle=1;arcSize=7;" parent="1" vertex="1">
          <mxGeometry x="237" y="651" width="140" height="100" as="geometry" />
        </mxCell>
        <mxCell id="_-vP3DGrT6uwovaDLPBB-1786" value="" style="edgeStyle=orthogonalEdgeStyle;rounded=0;orthogonalLoop=1;jettySize=auto;html=1;entryX=0.5;entryY=1;entryDx=0;entryDy=0;" parent="1" source="wV_RwZgJfHrOoYBap2ik-1783" target="_-vP3DGrT6uwovaDLPBB-1789" edge="1">
          <mxGeometry relative="1" as="geometry">
            <mxPoint x="562" y="570" as="targetPoint" />
          </mxGeometry>
        </mxCell>
        <mxCell id="wV_RwZgJfHrOoYBap2ik-1783" value="&lt;div&gt;C.p.t=Tiempo lactancia C.p.m= mortalidad&lt;/div&gt;&lt;div&gt;C.p.N= nÃºmero de lactaciones&lt;/div&gt;&lt;div&gt;C.p.pr=produc- dividad&lt;br&gt;&lt;/div&gt;" style="rounded=1;whiteSpace=wrap;html=1;fontSize=14;fillColor=#FFE6CC;strokeColor=#FFE6CC;fontColor=#000000;shadow=0;labelBackgroundColor=none;strokeWidth=3;spacing=5;fontStyle=1;arcSize=7;" parent="1" vertex="1">
          <mxGeometry x="390.5" y="620" width="100" height="130" as="geometry" />
        </mxCell>
        <mxCell id="_-vP3DGrT6uwovaDLPBB-1788" value="" style="edgeStyle=orthogonalEdgeStyle;rounded=0;orthogonalLoop=1;jettySize=auto;html=1;" parent="1" source="wV_RwZgJfHrOoYBap2ik-1784" target="_-vP3DGrT6uwovaDLPBB-1771" edge="1">
          <mxGeometry relative="1" as="geometry" />
        </mxCell>
        <mxCell id="wV_RwZgJfHrOoYBap2ik-1784" value="&lt;div&gt;E.p.t=Tiempo engorde&lt;/div&gt;&lt;div&gt;E.p.m= mortalidad&lt;/div&gt;&lt;div&gt;E.p.po=peso esperado a la oferta&lt;br&gt;&lt;/div&gt;" style="rounded=1;whiteSpace=wrap;html=1;fontSize=14;fillColor=#D4AD9B;strokeColor=none;fontColor=#000000;shadow=0;labelBackgroundColor=none;strokeWidth=3;spacing=5;fontStyle=1;arcSize=7;" parent="1" vertex="1">
          <mxGeometry x="707" y="631" width="110" height="120" as="geometry" />
        </mxCell>
        <mxCell id="_-vP3DGrT6uwovaDLPBB-1787" value="" style="edgeStyle=orthogonalEdgeStyle;rounded=0;orthogonalLoop=1;jettySize=auto;html=1;entryX=0.5;entryY=1;entryDx=0;entryDy=0;" parent="1" source="wV_RwZgJfHrOoYBap2ik-1785" target="_-vP3DGrT6uwovaDLPBB-1790" edge="1">
          <mxGeometry relative="1" as="geometry">
            <mxPoint x="696" y="600" as="targetPoint" />
          </mxGeometry>
        </mxCell>
        <mxCell id="wV_RwZgJfHrOoYBap2ik-1785" value="D.p.t=Tiempo descanso D.p.m= mortalidad" style="rounded=1;whiteSpace=wrap;html=1;fontSize=14;fillColor=#F8CECC;strokeColor=none;fontColor=#000000;shadow=0;labelBackgroundColor=none;strokeWidth=3;spacing=5;fontStyle=1;arcSize=7;" parent="1" vertex="1">
          <mxGeometry x="546" y="680" width="102" height="70" as="geometry" />
        </mxCell>
        <mxCell id="yf1A8xf_c-HTEzNxy_wl-1780" style="edgeStyle=orthogonalEdgeStyle;rounded=0;orthogonalLoop=1;jettySize=auto;html=1;entryX=0.5;entryY=1;entryDx=0;entryDy=0;endArrow=none;endFill=0;" parent="1" source="wV_RwZgJfHrOoYBap2ik-1787" target="1771" edge="1">
          <mxGeometry relative="1" as="geometry" />
        </mxCell>
        <mxCell id="wV_RwZgJfHrOoYBap2ik-1787" value="&lt;div style=&quot;font-size: 12px;&quot;&gt;B.v.ID&lt;br style=&quot;font-size: 12px;&quot;&gt;&lt;/div&gt;&lt;div style=&quot;font-size: 12px;&quot;&gt;B.Fecha inicio&lt;/div&gt;&lt;div style=&quot;font-size: 12px;&quot;&gt;B.v.f.o=Fecha fin&lt;/div&gt;&lt;div style=&quot;font-size: 12px;&quot;&gt;B.v.n=nÃºmero individuos (Hembras, machos)&lt;br style=&quot;font-size: 12px;&quot;&gt;&lt;/div&gt;&lt;div style=&quot;font-size: 12px;&quot;&gt;&lt;br style=&quot;font-size: 12px;&quot;&gt;&lt;/div&gt;" style="rounded=1;whiteSpace=wrap;html=1;fontSize=12;fillColor=#9AC7BF;strokeColor=#12AAB5;fontColor=#000000;shadow=0;labelBackgroundColor=none;strokeWidth=3;fontStyle=1;spacing=5;arcSize=7;" parent="1" vertex="1">
          <mxGeometry x="247" y="449" width="120" height="120" as="geometry" />
        </mxCell>
        <mxCell id="yf1A8xf_c-HTEzNxy_wl-1779" style="edgeStyle=orthogonalEdgeStyle;rounded=0;orthogonalLoop=1;jettySize=auto;html=1;entryX=0.5;entryY=1;entryDx=0;entryDy=0;endArrow=none;endFill=0;exitX=0.5;exitY=0;exitDx=0;exitDy=0;" parent="1" source="_-vP3DGrT6uwovaDLPBB-1771" target="1760" edge="1">
          <mxGeometry relative="1" as="geometry">
            <Array as="points">
              <mxPoint x="762" y="440" />
              <mxPoint x="762" y="440" />
            </Array>
            <mxPoint x="688" y="409" as="targetPoint" />
          </mxGeometry>
        </mxCell>
        <mxCell id="_-vP3DGrT6uwovaDLPBB-1771" value="&lt;div style=&quot;font-size: 12px;&quot;&gt;E.v.ID&lt;br style=&quot;font-size: 12px;&quot;&gt;&lt;/div&gt;&lt;div style=&quot;font-size: 12px;&quot;&gt;E.v.i.o=Fecha inicio&lt;/div&gt;&lt;div style=&quot;font-size: 12px;&quot;&gt;E.v.f.p=Fecha fin&lt;/div&gt;&lt;div style=&quot;font-size: 12px;&quot;&gt;previsto&lt;/div&gt;&lt;div style=&quot;font-size: 12px;&quot;&gt;E.v.f.o=Fecha fin observada E.v.n=nÃºmeros&lt;/div&gt;&lt;div style=&quot;font-size: 12px;&quot;&gt;E.v.p.p= producciÃ³n prevista&lt;br style=&quot;font-size: 12px;&quot;&gt;&lt;/div&gt;" style="rounded=1;whiteSpace=wrap;html=1;fontSize=12;fillColor=#D4AD9B;strokeColor=#A0522D;shadow=0;labelBackgroundColor=none;strokeWidth=3;fontStyle=1;spacing=5;arcSize=7;" parent="1" vertex="1">
          <mxGeometry x="707" y="424" width="110" height="170" as="geometry" />
        </mxCell>
        <mxCell id="_-vP3DGrT6uwovaDLPBB-1774" value="" style="endArrow=classic;html=1;rounded=0;exitX=1;exitY=0.5;exitDx=0;exitDy=0;" parent="1" source="1749" target="1771" edge="1">
          <mxGeometry relative="1" as="geometry">
            <mxPoint x="397" y="440" as="sourcePoint" />
            <mxPoint x="497" y="440" as="targetPoint" />
          </mxGeometry>
        </mxCell>
        <mxCell id="_-vP3DGrT6uwovaDLPBB-1775" value="A.B.Observado" style="edgeLabel;resizable=0;html=1;align=center;verticalAlign=middle;labelBorderColor=#2F5B7C;labelBackgroundColor=#BBCAD6;" parent="_-vP3DGrT6uwovaDLPBB-1774" connectable="0" vertex="1">
          <mxGeometry relative="1" as="geometry" />
        </mxCell>
        <mxCell id="_-vP3DGrT6uwovaDLPBB-1776" value="" style="endArrow=classic;html=1;rounded=0;exitX=1;exitY=0.5;exitDx=0;exitDy=0;" parent="1" source="1771" target="1753" edge="1">
          <mxGeometry relative="1" as="geometry">
            <mxPoint x="229" y="289" as="sourcePoint" />
            <mxPoint x="288" y="289" as="targetPoint" />
          </mxGeometry>
        </mxCell>
        <mxCell id="_-vP3DGrT6uwovaDLPBB-1777" value="B_Cv=&lt;div&gt;NÃºmeros&lt;/div&gt;&lt;div&gt;Fecha&lt;br&gt;&lt;/div&gt;" style="edgeLabel;resizable=0;html=1;align=center;verticalAlign=middle;labelBorderColor=#12AAB5;labelBackgroundColor=#9AC7BF;rotation=0;" parent="_-vP3DGrT6uwovaDLPBB-1776" connectable="0" vertex="1">
          <mxGeometry relative="1" as="geometry">
            <mxPoint x="-9" y="-9" as="offset" />
          </mxGeometry>
        </mxCell>
        <mxCell id="_-vP3DGrT6uwovaDLPBB-1778" value="" style="endArrow=classic;html=1;rounded=0;exitX=0.75;exitY=0;exitDx=0;exitDy=0;entryX=0;entryY=0.5;entryDx=0;entryDy=0;" parent="1" source="1771" target="1760" edge="1">
          <mxGeometry relative="1" as="geometry">
            <mxPoint x="239" y="299" as="sourcePoint" />
            <mxPoint x="298" y="299" as="targetPoint" />
          </mxGeometry>
        </mxCell>
        <mxCell id="_-vP3DGrT6uwovaDLPBB-1779" value="B.Ev=&lt;div&gt;NÃºmeros&lt;/div&gt;&lt;div&gt;Sexos&lt;br&gt;&lt;/div&gt;&lt;div&gt;Fecha&lt;br&gt;&lt;/div&gt;" style="edgeLabel;resizable=0;html=1;align=center;verticalAlign=middle;labelBackgroundColor=#9AC7BF;labelBorderColor=#12AAB5;" parent="_-vP3DGrT6uwovaDLPBB-1778" connectable="0" vertex="1">
          <mxGeometry relative="1" as="geometry">
            <mxPoint x="-6" y="-4" as="offset" />
          </mxGeometry>
        </mxCell>
        <mxCell id="_-vP3DGrT6uwovaDLPBB-1780" value="" style="endArrow=classic;html=1;rounded=0;" parent="1" source="1753" target="DLMDTIZW3BZclp9K0W_a-1774" edge="1">
          <mxGeometry relative="1" as="geometry">
            <mxPoint x="448" y="287.9999999999999" as="sourcePoint" />
            <mxPoint x="529" y="288" as="targetPoint" />
          </mxGeometry>
        </mxCell>
        <mxCell id="_-vP3DGrT6uwovaDLPBB-1781" value="&lt;div&gt;C_G.v=NÃºmeros&lt;/div&gt;&lt;div&gt;Fecha&lt;br&gt;&lt;/div&gt;" style="edgeLabel;resizable=0;html=1;align=center;verticalAlign=middle;labelBackgroundColor=#FFE6CC;labelBorderColor=#E85642;" parent="_-vP3DGrT6uwovaDLPBB-1780" connectable="0" vertex="1">
          <mxGeometry relative="1" as="geometry">
            <mxPoint x="49" y="-14" as="offset" />
          </mxGeometry>
        </mxCell>
        <mxCell id="_-vP3DGrT6uwovaDLPBB-1782" value="" style="endArrow=classic;html=1;rounded=0;exitX=0.75;exitY=1;exitDx=0;exitDy=0;" parent="1" source="1753" edge="1">
          <mxGeometry relative="1" as="geometry">
            <mxPoint x="649.5" y="246" as="sourcePoint" />
            <mxPoint x="635" y="380" as="targetPoint" />
          </mxGeometry>
        </mxCell>
        <mxCell id="_-vP3DGrT6uwovaDLPBB-1783" value="C_D.v=&lt;div&gt;NÃºmeros&lt;/div&gt;&lt;div&gt;Fecha&lt;br&gt;&lt;/div&gt;" style="edgeLabel;resizable=0;html=1;align=center;verticalAlign=middle;labelBackgroundColor=#FFE6CC;labelBorderColor=#E85642;" parent="_-vP3DGrT6uwovaDLPBB-1782" connectable="0" vertex="1">
          <mxGeometry relative="1" as="geometry" />
        </mxCell>
        <mxCell id="_-vP3DGrT6uwovaDLPBB-1784" value="" style="endArrow=classic;html=1;rounded=0;" parent="1" edge="1">
          <mxGeometry relative="1" as="geometry">
            <mxPoint x="560" y="380" as="sourcePoint" />
            <mxPoint x="560" y="310" as="targetPoint" />
          </mxGeometry>
        </mxCell>
        <mxCell id="_-vP3DGrT6uwovaDLPBB-1785" value="&lt;div&gt;D_C.v=NÃºmeros&lt;/div&gt;&lt;div&gt;Fecha&lt;br&gt;&lt;/div&gt;" style="edgeLabel;resizable=0;html=1;align=center;verticalAlign=middle;labelBackgroundColor=#F8CECC;labelBorderColor=#A20025;" parent="_-vP3DGrT6uwovaDLPBB-1784" connectable="0" vertex="1">
          <mxGeometry relative="1" as="geometry" />
        </mxCell>
        <mxCell id="yf1A8xf_c-HTEzNxy_wl-1778" style="edgeStyle=orthogonalEdgeStyle;rounded=0;orthogonalLoop=1;jettySize=auto;html=1;entryX=0;entryY=0.75;entryDx=0;entryDy=0;exitX=0.5;exitY=0;exitDx=0;exitDy=0;endArrow=none;endFill=0;" parent="1" source="_-vP3DGrT6uwovaDLPBB-1789" target="1753" edge="1">
          <mxGeometry relative="1" as="geometry">
            <Array as="points">
              <mxPoint x="441" y="294" />
            </Array>
          </mxGeometry>
        </mxCell>
        <mxCell id="_-vP3DGrT6uwovaDLPBB-1789" value="&lt;div style=&quot;font-size: 12px;&quot;&gt;&lt;font style=&quot;font-size: 12px;&quot;&gt;C.v.ID &lt;br style=&quot;font-size: 12px;&quot;&gt;&lt;/font&gt;&lt;/div&gt;&lt;div style=&quot;font-size: 12px;&quot;&gt;&lt;font style=&quot;font-size: 12px;&quot;&gt;C.v.N=NÃºmero ciclo&lt;br style=&quot;font-size: 12px;&quot;&gt;&lt;/font&gt;&lt;/div&gt;&lt;div style=&quot;font-size: 12px;&quot;&gt;&lt;font style=&quot;font-size: 12px;&quot;&gt;C.v.i.o=&lt;/font&gt;&lt;/div&gt;&lt;div style=&quot;font-size: 12px;&quot;&gt;&lt;font style=&quot;font-size: 12px;&quot;&gt;Fecha inicio&lt;/font&gt;&lt;/div&gt;&lt;div style=&quot;font-size: 12px;&quot;&gt;&lt;font style=&quot;font-size: 12px;&quot;&gt;C.v.f.p=Fecha fin&lt;/font&gt;&lt;/div&gt;&lt;div style=&quot;font-size: 12px;&quot;&gt;&lt;font style=&quot;font-size: 12px;&quot;&gt;previsto&lt;/font&gt;&lt;/div&gt;&lt;div style=&quot;font-size: 12px;&quot;&gt;&lt;font style=&quot;font-size: 12px;&quot;&gt;C.v.f.o=Fecha fin observada C.v.n=nÃºmeros individuos&lt;/font&gt;&lt;/div&gt;" style="rounded=1;whiteSpace=wrap;html=1;fontSize=12;fillColor=#ffe6cc;strokeColor=#E85642;shadow=0;labelBackgroundColor=none;strokeWidth=3;fontStyle=1;spacing=5;arcSize=7;" parent="1" vertex="1">
          <mxGeometry x="384" y="410" width="113" height="180" as="geometry" />
        </mxCell>
        <mxCell id="_-vP3DGrT6uwovaDLPBB-1791" value="" style="endArrow=classic;html=1;rounded=0;entryX=0;entryY=0.5;entryDx=0;entryDy=0;exitX=1;exitY=0.5;exitDx=0;exitDy=0;" parent="1" source="1753" target="1754" edge="1">
          <mxGeometry relative="1" as="geometry">
            <mxPoint x="688" y="278" as="sourcePoint" />
            <mxPoint x="766" y="269" as="targetPoint" />
            <Array as="points" />
          </mxGeometry>
        </mxCell>
        <mxCell id="qsEijEhWH3xLUdq9jlML-1776" value="&lt;div&gt;C_F.v&lt;font style=&quot;font-size: 12px;&quot;&gt;=produc-&lt;/font&gt;&lt;/div&gt;&lt;div&gt;&lt;font style=&quot;font-size: 12px;&quot;&gt;ciÃ³n, fecha&lt;br&gt;&lt;/font&gt;&lt;/div&gt;" style="edgeLabel;html=1;align=center;verticalAlign=middle;resizable=0;points=[];fontColor=#000000;labelBackgroundColor=#FFE6CC;labelBorderColor=#E85642;" parent="_-vP3DGrT6uwovaDLPBB-1791" vertex="1" connectable="0">
          <mxGeometry x="0.2301" relative="1" as="geometry">
            <mxPoint x="-37" y="-2" as="offset" />
          </mxGeometry>
        </mxCell>
        <mxCell id="qsEijEhWH3xLUdq9jlML-1778" value="" style="edgeStyle=orthogonalEdgeStyle;rounded=0;orthogonalLoop=1;jettySize=auto;html=1;fontColor=#000000;endArrow=none;endFill=0;" parent="1" source="_-vP3DGrT6uwovaDLPBB-1790" target="z_6aWykkNIrOVK7mSuos-1771" edge="1">
          <mxGeometry relative="1" as="geometry" />
        </mxCell>
        <mxCell id="_-vP3DGrT6uwovaDLPBB-1790" value="&lt;div style=&quot;font-size: 12px;&quot;&gt;D.v.ID&lt;br style=&quot;font-size: 12px;&quot;&gt;&lt;/div&gt;&lt;div style=&quot;font-size: 12px;&quot;&gt;D.v.i.o=Fecha inicio&lt;/div&gt;&lt;div style=&quot;font-size: 12px;&quot;&gt;D.v.f.p=Fecha fin&lt;/div&gt;&lt;div style=&quot;font-size: 12px;&quot;&gt;previsto&lt;/div&gt;&lt;div style=&quot;font-size: 12px;&quot;&gt;D.v.f.o=Fecha fin observada D.v.n=nÃºmeros&lt;br style=&quot;font-size: 12px;&quot;&gt;&lt;/div&gt;" style="rounded=1;whiteSpace=wrap;html=1;fontSize=12;fillColor=#f8cecc;strokeColor=#A20025;shadow=0;labelBackgroundColor=none;strokeWidth=3;fontStyle=1;spacing=5;arcSize=7;" parent="1" vertex="1">
          <mxGeometry x="542" y="464" width="110" height="156" as="geometry" />
        </mxCell>
        <mxCell id="DLMDTIZW3BZclp9K0W_a-1774" value="G. Animales en oferta" style="rounded=1;whiteSpace=wrap;html=1;shadow=0;labelBackgroundColor=none;strokeColor=#572C18;strokeWidth=3;fillColor=#572C18;fontFamily=Helvetica;fontSize=14;fontColor=#FFFFFF;align=center;spacing=5;fontStyle=1;arcSize=7;perimeterSpacing=2;" parent="1" vertex="1">
          <mxGeometry x="1020" y="110" width="103" height="60" as="geometry" />
        </mxCell>
        <mxCell id="qsEijEhWH3xLUdq9jlML-1774" value="" style="edgeStyle=orthogonalEdgeStyle;rounded=0;orthogonalLoop=1;jettySize=auto;html=1;endArrow=none;endFill=0;" parent="1" source="qsEijEhWH3xLUdq9jlML-1773" target="1754" edge="1">
          <mxGeometry relative="1" as="geometry" />
        </mxCell>
        <mxCell id="qsEijEhWH3xLUdq9jlML-1773" value="&lt;div&gt;&lt;font style=&quot;font-size: 12px;&quot;&gt;&lt;b&gt;&lt;font style=&quot;font-size: 12px;&quot; color=&quot;#000000&quot;&gt;F.v.l&lt;/font&gt;&lt;/b&gt;&lt;/font&gt;&lt;font style=&quot;font-size: 12px;&quot; color=&quot;#000000&quot;&gt;&lt;b&gt;=(fechas, en oferta, &lt;/b&gt;&lt;/font&gt;&lt;font style=&quot;font-size: 12px;&quot; color=&quot;#000000&quot;&gt;&lt;b&gt;cantidades &lt;/b&gt;&lt;/font&gt;&lt;font style=&quot;font-size: 12px;&quot; color=&quot;#000000&quot;&gt;&lt;b&gt;previstas, observadas, restantes)&lt;br&gt;&lt;/b&gt;&lt;/font&gt;&lt;/div&gt;" style="rounded=1;whiteSpace=wrap;html=1;shadow=0;labelBackgroundColor=none;strokeColor=#E0E0E0;strokeWidth=3;fillColor=#F0EEEE;fontFamily=Helvetica;fontSize=14;fontColor=#000000;align=center;spacing=5;arcSize=7;perimeterSpacing=2;" parent="1" vertex="1">
          <mxGeometry x="853.75" y="430" width="120" height="140" as="geometry" />
        </mxCell>
      </root>
    </mxGraphModel>
  </diagram>
</mxfile>
